<svg width="60" height="60" viewBox="0 0 40 40" fill="none" xmlns="http://www.w3.org/2000/svg">
<g clipPath="url(#clip0_222_5218)">
<path d="M20 6.8875C21.9019 6.8875 23.4437 5.34568 23.4437 3.44375C23.4437 1.54182 21.9019 0 20 0C18.0981 0 16.5562 1.54182 16.5562 3.44375C16.5562 5.34568 18.0981 6.8875 20 6.8875Z" fill="#00BFB4"/>
<path d="M25.0313 29.7375V22.625H25.45C26.525 22.625 27.3938 21.75 27.3938 20.6812V12.6375C27.3938 10.5 25.6563 8.7625 23.525 8.7625H16.7375C14.6063 8.7625 12.875 10.5 12.875 12.6375V20.6812C12.875 21.75 13.7438 22.625 14.8125 22.625H15.3313V29.6562C11.3313 30.5187 8.75626 32.4375 8.75626 34.5875C8.75626 37.625 13.6938 40 20 40C26.3063 40 31.2438 37.625 31.2438 34.5875C31.2438 32.4937 28.8688 30.6437 25.0313 29.7375ZM15.3313 32.1375V33.2937C15.3313 34.6937 16.4688 35.8312 17.8688 35.8312H18.0188C18.9813 35.8312 19.8188 35.2937 20.25 34.5062C20.3688 34.7187 20.5125 34.9125 20.6875 35.0875C21.175 35.5687 21.8125 35.8312 22.4875 35.8312C23.8875 35.8312 25.0313 34.6937 25.0313 33.2937V32.2875C26.4313 32.8937 27.2563 33.7375 27.2563 34.5875C27.2563 36.3375 23.9313 37.8125 20 37.8125C16.0625 37.8125 12.7375 36.3375 12.7375 34.5875C12.7375 33.65 13.7 32.75 15.3313 32.1375Z" fill="#00BFB4"/>
</g>
<defs>
<clipPath id="clip0_222_5218">
<rect width="40" height="40" fill="white"/>
</clipPath>
</defs>
</svg>
