<svg width="60" height="60" viewBox="0 0 80 80" fill="none" xmlns="http://www.w3.org/2000/svg">
<g clipPath="url(#clip0_222_5203)">
<path d="M67.5125 73.425C67.5125 77.0625 55.1875 80 40 80C24.8125 80 12.4875 77.0625 12.4875 73.425C12.4875 70.175 22.3625 67.5 35.3125 66.95H44.6875C57.65 67.5 67.5125 70.175 67.5125 73.425Z" fill="#008B83"/>
<path d="M61 24.3429C61 35.7711 51.1445 45 39 45C26.8555 45 17 35.7711 17 24.3429C17 14.1322 24.8964 5.72797 35.2517 4H42.7483C53.1136 5.72797 61 14.1322 61 24.3429Z" fill="white"/>
<path d="M40 0C25.875 0 14.425 11.4375 14.425 25.5625C14.425 39.6875 40 73.425 40 73.425C40 73.425 65.5625 39.6875 65.5625 25.5625C65.5625 11.4375 54.125 0 40 0ZM40 42.4875C30.65 42.4875 23.075 34.9125 23.075 25.5625C23.075 16.2125 30.65 8.6375 40 8.6375C49.35 8.6375 56.925 16.2125 56.925 25.5625C56.925 34.9125 49.35 42.4875 40 42.4875Z" fill="#00BFB4"/>
<path d="M28.2823 15L30.8285 16.2318" stroke="#00BFB4" strokeLinecap="round"/>
<path d="M28 19.2318H30.8284" stroke="#00BFB4" strokeLinecap="round"/>
<path d="M28.2823 23.4636L30.8285 22.2318" stroke="#00BFB4" strokeLinecap="round"/>
<g clipPath="url(#clip1_222_5203)">
<path d="M34.2643 28.7477C34.2642 28.7773 34.266 28.807 34.2698 28.8364C34.3165 32.9646 37.6885 36.3125 41.8278 36.3125C45.9959 36.3125 49.3899 32.9185 49.3899 28.7504C49.3899 24.814 46.3623 21.5726 42.5152 21.2227L42.5152 16.3761C42.5145 16.1947 42.4421 16.021 42.3139 15.8927C42.1856 15.7645 42.0119 15.6921 41.8305 15.6914L34.9545 15.6914C34.8642 15.691 34.7748 15.7084 34.6912 15.7426C34.6077 15.7768 34.5317 15.8272 34.4676 15.8908C34.4035 15.9543 34.3525 16.0299 34.3177 16.1132C34.2828 16.1965 34.2646 16.2858 34.2643 16.3761L34.2643 28.7477ZM35.6392 28.7154L35.6392 25.3131L37.7044 25.3131C37.8857 25.3124 38.0595 25.24 38.1877 25.1118C38.316 24.9835 38.3883 24.8098 38.3891 24.6284L38.3891 20.5022C38.3894 20.412 38.372 20.3225 38.3378 20.2389C38.3036 20.1554 38.2532 20.0794 38.1897 20.0153C38.1261 19.9512 38.0505 19.9003 37.9672 19.8654C37.884 19.8305 37.7946 19.8124 37.7044 19.812L35.6392 19.812L35.6392 17.0608L41.1403 17.0608L41.1403 21.7603C41.125 21.85 41.1277 21.9419 41.1481 22.0305C41.1686 22.1192 41.2065 22.203 41.2595 22.2769C41.3126 22.3508 41.3798 22.4135 41.4573 22.4612C41.5348 22.5089 41.621 22.5408 41.7109 22.555C41.757 22.5629 41.8037 22.5662 41.8505 22.5646C43.4881 22.5677 45.0575 23.2211 46.2135 24.3811C47.3695 25.5411 48.0175 27.1128 48.0149 28.7504C48.0149 32.1754 45.2527 34.9376 41.8278 34.9376C38.4028 34.9376 35.6406 32.1754 35.6406 28.7504C35.6404 28.739 35.64 28.7268 35.6392 28.7154ZM35.6392 23.9368L35.6392 21.1869L37.0141 21.1869L37.0141 23.9368L35.6392 23.9368ZM38.3891 28.7477C38.3891 30.6382 39.94 32.1891 41.8305 32.1891C43.721 32.1891 45.2665 30.6382 45.2665 28.7477C45.2665 26.8572 43.7204 25.3131 41.8305 25.3131C39.94 25.3131 38.3891 26.8578 38.3891 28.7477ZM39.7654 28.7477C39.7644 28.4765 39.8171 28.2077 39.9206 27.957C40.0241 27.7063 40.1763 27.4786 40.3683 27.2871C40.5604 27.0956 40.7885 26.944 41.0395 26.8412C41.2904 26.7384 41.5593 26.6863 41.8305 26.688C42.1015 26.6864 42.37 26.7385 42.6206 26.8415C42.8713 26.9444 43.099 27.096 43.2906 27.2876C43.4821 27.4792 43.6338 27.7069 43.7367 27.9576C43.8396 28.2082 43.8918 28.4767 43.8902 28.7477C43.8919 29.019 43.8398 29.2879 43.737 29.539C43.6342 29.79 43.4827 30.0182 43.2912 30.2103C43.0997 30.4025 42.872 30.5548 42.6213 30.6584C42.3706 30.7621 42.1018 30.815 41.8305 30.8142C41.5589 30.8152 41.2898 30.7624 41.0387 30.6589C40.7876 30.5554 40.5595 30.4032 40.3675 30.2111C40.1755 30.019 40.0235 29.7907 39.9201 29.5396C39.8168 29.2884 39.7642 29.0193 39.7654 28.7477Z" fill="#00BFB4"/>
</g>
<path fill-rule="evenodd" clip-rule="evenodd" d="M34.8284 16.5V20H36.3284H37.3284H37.8284V23.5V24.5H34.8284V29.5L35.8284 30.5L36.3284 32L37.3284 34L38.8284 35L40.3284 35.5H41.8284L43.8284 35L45.3284 34C45.6617 34 46.3284 33.9 46.3284 33.5C46.3284 33.2746 46.6988 32.9857 47.0818 32.687C47.3786 32.4556 47.6829 32.2183 47.8284 32L48.3284 30.5L48.8284 29L48.3284 27L47.8284 25.5L46.8284 24L45.8284 23L44.8284 22.5L43.3284 22L42.3284 21.5L41.8284 21L41.3284 18.5V17V16H34.8284V16.5ZM41.8284 32C43.4852 32 44.8284 30.6569 44.8284 29C44.8284 27.3431 43.4852 26 41.8284 26C40.1715 26 38.8284 27.3431 38.8284 29C38.8284 30.6569 40.1715 32 41.8284 32Z" fill="#00BFB4"/>
</g>
<defs>
<clipPath id="clip0_222_5203">
<rect width="80" height="80" fill="white"/>
</clipPath>
<clipPath id="clip1_222_5203">
<rect width="22" height="22" fill="white" transform="translate(30.8284 37) rotate(-90)"/>
</clipPath>
</defs>
</svg>
