<svg width="60" height="60" viewBox="0 0 80 80" fill="none" xmlns="http://www.w3.org/2000/svg">
<g clipPath="url(#clip0_222_5187)">
<path d="M67.5125 73.425C67.5125 77.0625 55.1875 80 40 80C24.8125 80 12.4875 77.0625 12.4875 73.425C12.4875 70.175 22.3625 67.5 35.3125 66.95H44.6875C57.65 67.5 67.5125 70.175 67.5125 73.425Z" fill="#008B83"/>
<path d="M62 24.3582C62 34.6715 52.1445 43 40 43C27.8555 43 18 34.6715 18 24.3582C18 15.1437 25.8964 7.55939 36.2517 6H43.7483C54.1136 7.55939 62 15.1437 62 24.3582Z" fill="white"/>
<path d="M40 0C25.875 0 14.425 11.4375 14.425 25.5625C14.425 39.6875 40 73.425 40 73.425C40 73.425 65.5625 39.6875 65.5625 25.5625C65.5625 11.4375 54.125 0 40 0ZM40 42.4875C30.65 42.4875 23.075 34.9125 23.075 25.5625C23.075 16.2125 30.65 8.6375 40 8.6375C49.35 8.6375 56.925 16.2125 56.925 25.5625C56.925 34.9125 49.35 42.4875 40 42.4875Z" fill="#00BFB4"/>
<path d="M49.9875 23.5547C48.3094 23.8312 45.5719 23.9062 43.7532 20.4562C41.8032 16.7484 38.6532 16.6359 36.811 16.9734C35.9157 17.1375 35.2454 17.8875 35.2454 18.6141V27.8297C35.775 28.0313 36.3422 27.8203 36.4875 27.7922C36.525 27.7828 36.5579 27.7781 36.6 27.7688C37.7719 27.5109 39.0094 27.3891 42.075 28.8609C45.9188 30.7031 49.2844 27.3094 50.5875 24.9469C50.6813 24.7828 50.9954 24 50.9954 23.25C50.5407 23.4375 49.9875 23.5547 49.9875 23.5547Z" fill="#00BFB4"/>
<path d="M34.125 16.5H33.375C33.1687 16.5 33 16.6687 33 16.875V37.125C33 37.3312 33.1687 37.5 33.375 37.5H34.125C34.3312 37.5 34.5 37.3312 34.5 37.125V16.875C34.5 16.6687 34.3312 16.5 34.125 16.5Z" fill="#00BFB4"/>
</g>
<defs>
<clipPath id="clip0_222_5187">
<rect width="80" height="80" fill="white"/>
</clipPath>
</defs>
</svg>
