<svg width="500" height="500" viewBox="0 0 500 500" fill="none" xmlns="http://www.w3.org/2000/svg">
<path d="M253.87 485.8C382.955 485.8 487.6 426.719 487.6 353.84C487.6 280.961 382.955 221.88 253.87 221.88C124.784 221.88 20.14 280.961 20.14 353.84C20.14 426.719 124.784 485.8 253.87 485.8Z" fill="#F2F2F2"/>
<path d="M79.06 441.51L71.89 437.37C69.63 436.06 69.63 433.95 71.89 432.64L323.52 287.35C324.79 286.709 326.193 286.375 327.615 286.375C329.037 286.375 330.44 286.709 331.71 287.35L338.93 291.49C341.19 292.79 341.19 294.9 338.93 296.2L87.25 441.51C85.9801 442.151 84.5775 442.485 83.155 442.485C81.7325 442.485 80.3299 442.151 79.06 441.51Z" fill="#E6E6E6"/>
<path d="M368.76 417.37C409.574 417.37 442.66 398.266 442.66 374.7C442.66 351.134 409.574 332.03 368.76 332.03C327.946 332.03 294.86 351.134 294.86 374.7C294.86 398.266 327.946 417.37 368.76 417.37Z" fill="#E0E0E0"/>
<path d="M91.66 421.24C90.66 406.02 91.73 390.55 82.24 369.55C74.24 351.93 61.12 338.05 46.17 336.97C39.97 336.52 35.49 337.97 32.88 342.38C28.31 350.13 35.12 358.44 42.42 363.23C45.63 365.34 72 379 79.29 409.29L82.45 426.54L83.45 425.95L91.66 421.24Z" fill="#00BFB4"/>
<path opacity="0.25" d="M91.66 421.24C90.66 406.02 91.73 390.55 82.24 369.55C74.24 351.93 61.12 338.05 46.17 336.97C39.97 336.52 35.49 337.97 32.88 342.38C28.31 350.13 35.12 358.44 42.42 363.23C45.63 365.34 72 379 79.29 409.29L82.45 426.54L83.45 425.95L91.66 421.24Z" fill="white"/>
<path d="M86.85 416C86.7045 415.979 86.5699 415.911 86.4669 415.807C86.3639 415.702 86.2983 415.566 86.28 415.42C81.54 378.6 67.55 356.56 42 347.89C41.918 347.856 41.8439 347.805 41.782 347.741C41.7202 347.677 41.672 347.601 41.6402 347.518C41.6084 347.435 41.5938 347.346 41.5972 347.257C41.6006 347.168 41.622 347.081 41.66 347C41.7362 346.84 41.8712 346.715 42.0369 346.652C42.2026 346.589 42.3864 346.592 42.55 346.66C68.32 354.89 82.8 377.95 87.6 415.29C87.6113 415.463 87.555 415.634 87.4432 415.766C87.3313 415.899 87.1724 415.982 87 416H86.85Z" fill="white"/>
<path d="M77.49 429.51C76.41 424.23 73.57 418.11 62.82 406.32C53.54 396.14 39.07 390.46 36.24 384.14C32.84 376.54 38.94 369.56 50.58 371.07C64.58 372.89 78.85 393.71 84.04 425.64L77.49 429.51Z" fill="#00BFB4"/>
<path opacity="0.65" d="M77.49 429.51C76.41 424.23 73.57 418.11 62.82 406.32C53.54 396.14 39.07 390.46 36.24 384.14C32.84 376.54 38.94 369.56 50.58 371.07C64.58 372.89 78.85 393.71 84.04 425.64L77.49 429.51Z" fill="white"/>
<path d="M45.83 378.26C45.7438 378.24 45.6544 378.237 45.5672 378.253C45.4799 378.268 45.3968 378.301 45.3228 378.35C45.2488 378.398 45.1856 378.462 45.137 378.536C45.0883 378.61 45.0553 378.693 45.04 378.78C45.021 378.867 45.0194 378.956 45.0353 379.044C45.0512 379.131 45.0843 379.214 45.1327 379.289C45.181 379.363 45.2437 379.427 45.3171 379.477C45.3905 379.527 45.473 379.562 45.56 379.58C54.97 381.58 74.64 399.23 81.01 427.27C81.0043 427.313 81.0043 427.357 81.01 427.4L82.2 426.7C75.77 398.33 56.22 380.43 45.83 378.26Z" fill="white"/>
<path d="M423.1 352.51C423.92 340.59 423.04 328.51 430.47 312.06C436.7 298.27 446.99 287.42 458.7 286.57C463.55 286.22 467.05 287.35 469.09 290.8C472.67 296.87 467.34 303.37 461.63 307.12C459.12 308.77 438.46 319.45 432.78 343.12L430.31 356.61L429.49 356.15L423.1 352.51Z" fill="#00BFB4"/>
<path opacity="0.25" d="M423.1 352.51C423.92 340.59 423.04 328.51 430.47 312.06C436.7 298.27 446.99 287.42 458.7 286.57C463.55 286.22 467.05 287.35 469.09 290.8C472.67 296.87 467.34 303.37 461.63 307.12C459.12 308.77 438.46 319.45 432.78 343.12L430.31 356.61L429.49 356.15L423.1 352.51Z" fill="white"/>
<path d="M426.86 348.44C426.974 348.424 427.079 348.371 427.16 348.29C427.241 348.209 427.294 348.104 427.31 347.99C431.02 319.14 441.97 301.89 461.94 295.11C462.003 295.083 462.061 295.043 462.109 294.994C462.157 294.944 462.194 294.886 462.219 294.822C462.245 294.757 462.257 294.689 462.255 294.62C462.253 294.551 462.238 294.483 462.21 294.42C462.149 294.295 462.043 294.197 461.913 294.147C461.783 294.097 461.639 294.098 461.51 294.15C441.35 300.59 430.02 318.63 426.26 347.85C426.246 347.989 426.286 348.128 426.371 348.238C426.457 348.348 426.582 348.42 426.72 348.44H426.86Z" fill="white"/>
<path d="M434.19 359C435.03 354.86 437.26 350.08 445.66 340.85C452.92 332.85 464.25 328.44 466.47 323.49C469.13 317.55 464.35 312.09 455.25 313.27C444.3 314.67 433.12 331 429.07 356L434.19 359Z" fill="#00BFB4"/>
<path opacity="0.65" d="M434.19 359C435.03 354.86 437.26 350.08 445.66 340.85C452.92 332.85 464.25 328.44 466.47 323.49C469.13 317.55 464.35 312.09 455.25 313.27C444.3 314.67 433.12 331 429.07 356L434.19 359Z" fill="white"/>
<path d="M431.61 355.35C431.699 355.33 431.782 355.287 431.85 355.226C431.919 355.164 431.97 355.087 432 355C437.91 333.36 451.77 321.48 459.13 319.94C459.198 319.926 459.263 319.898 459.321 319.859C459.379 319.819 459.428 319.769 459.466 319.71C459.504 319.652 459.53 319.586 459.543 319.518C459.556 319.449 459.555 319.378 459.54 319.31C459.527 319.242 459.5 319.178 459.462 319.121C459.423 319.064 459.374 319.015 459.316 318.977C459.258 318.94 459.193 318.915 459.125 318.903C459.057 318.892 458.987 318.894 458.92 318.91C450.77 320.61 437.01 332.63 430.98 354.72C430.943 354.855 430.961 355 431.031 355.121C431.1 355.243 431.215 355.333 431.35 355.37C431.437 355.384 431.526 355.378 431.61 355.35Z" fill="white"/>
<path d="M222.59 58.83L225.72 56.93C225.709 56.7134 225.709 56.4965 225.72 56.28V54.73C225.801 53.2273 226.235 51.7648 226.987 50.4615C227.739 49.1583 228.789 48.0511 230.05 47.23C230.424 46.977 230.846 46.8023 231.289 46.7164C231.732 46.6305 232.188 46.6351 232.63 46.73C232.887 44.6584 233.59 42.667 234.69 40.8926C235.789 39.1181 237.26 37.6026 239 36.45C242.58 34.39 245.48 36.06 245.48 40.19V42.52C245.464 43.648 245.279 44.7671 244.93 45.84L249.38 43.27C250.71 42.5 251.78 43.12 251.78 44.66C251.735 45.4932 251.494 46.304 251.077 47.0268C250.66 47.7496 250.079 48.3639 249.38 48.82L222.58 64.38C221.25 65.15 220.17 64.52 220.17 62.99C220.218 62.1552 220.462 61.3435 220.883 60.6207C221.303 59.8979 221.888 59.2844 222.59 58.83Z" fill="#EBEBEB"/>
<path d="M203.38 40.41L200.25 41.61V34.71C200.25 29.24 195.88 27.93 191.15 30.66C186.41 33.4 182.57 40.05 182.57 45.52V46.52C181.9 46.313 181.192 46.2612 180.498 46.3686C179.805 46.476 179.146 46.7398 178.57 47.14C176.773 48.3108 175.278 49.8891 174.206 51.7466C173.134 53.6041 172.515 55.6884 172.4 57.83V58.28L168.03 60.81C166.852 61.5777 165.87 62.6108 165.163 63.8264C164.457 65.0421 164.044 66.4064 163.96 67.81C163.96 70.4 165.78 71.45 168.03 70.15L203.38 49.8C204.558 49.0323 205.54 47.9992 206.247 46.7836C206.953 45.5679 207.366 44.2036 207.45 42.8C207.45 40.16 205.63 39.11 203.38 40.41Z" fill="#EBEBEB"/>
<path opacity="0.5" d="M82.53 110.24L127 84.5699L104.77 125.41L82.53 110.24Z" fill="#00BFB4"/>
<path opacity="0.3" d="M82.53 91.57L127 65.9L104.77 106.74L82.53 91.57Z" fill="#00BFB4"/>
<path opacity="0.1" d="M82.53 72.9L127 47.23L104.77 88.07L82.53 72.9Z" fill="#00BFB4"/>
<path d="M97 427C95.7351 427.759 94.3031 428.195 92.83 428.27C90.7322 428.532 88.604 428.159 86.72 427.2C85.2356 426.201 84.0088 424.864 83.1397 423.3C82.2707 421.736 81.7842 419.988 81.72 418.2V212.55L91.72 218.32V424C91.72 426.41 92.93 427.8 94.72 427.8C95.5323 427.716 96.3134 427.442 97 427Z" fill="#E0E0E0"/>
<path d="M334 284.05C333.903 285.895 333.371 287.691 332.448 289.291C331.526 290.892 330.238 292.251 328.69 293.26L97 427C94.08 428.7 91.7 427.32 91.7 423.93V192.17L106.33 183.73C109.25 182.03 253.6 98.73 256.52 97.01L334 52.24V284.05Z" fill="#FAFAFA"/>
<path d="M331.72 56.17V284.05C331.62 285.494 331.193 286.897 330.471 288.151C329.748 289.406 328.749 290.479 327.55 291.29L95.83 425.08C95.462 425.321 95.0389 425.466 94.6 425.5C94.02 425.5 93.93 424.5 93.93 423.97V193.48L107.43 185.69L183.43 141.78L257.62 99L331.72 56.2M334 52.24L256.48 97C253.56 98.69 109.21 182 106.29 183.72L91.66 192.16V424C91.66 426.41 92.86 427.8 94.6 427.8C95.4573 427.754 96.2864 427.477 97 427L328.68 293.26C330.228 292.251 331.516 290.892 332.438 289.291C333.361 287.691 333.893 285.895 333.99 284.05V52.24H334Z" fill="#EBEBEB"/>
<path d="M306.37 166.65V272.41C306.337 272.536 306.275 272.652 306.19 272.75L130.08 374.43V268.66C130.117 268.539 130.178 268.427 130.26 268.33L306.37 166.65ZM307.8 163.54C307.604 163.542 307.413 163.601 307.25 163.71L129.2 266.5C128.842 266.734 128.544 267.048 128.33 267.418C128.117 267.788 127.993 268.203 127.97 268.63V376.63C127.97 377.18 128.24 377.51 128.65 377.51C128.842 377.501 129.028 377.442 129.19 377.34L307.24 274.54C307.598 274.309 307.896 273.996 308.109 273.628C308.323 273.259 308.447 272.845 308.47 272.42V164.42C308.47 163.86 308.19 163.54 307.79 163.54H307.8Z" fill="#EBEBEB"/>
<path d="M86.67 208.52C85.1873 207.519 83.9618 206.182 83.0929 204.618C82.2241 203.055 81.7366 201.308 81.67 199.52V174.52C81.7704 172.672 82.3054 170.874 83.2315 169.272C84.1577 167.67 85.4488 166.309 87 165.3L318.71 31.51C320.292 30.6728 322.048 30.2194 323.837 30.1864C325.627 30.1534 327.399 30.5417 329.01 31.32C330.492 32.3216 331.717 33.6585 332.586 35.2222C333.455 36.7859 333.943 38.5324 334.01 40.32V65.32C333.914 67.1639 333.383 68.9588 332.46 70.558C331.537 72.1571 330.249 73.5148 328.7 74.52L97 208.33C95.415 209.174 93.653 209.631 91.8578 209.664C90.0625 209.697 88.2849 209.305 86.67 208.52Z" fill="#263238"/>
<path d="M333.94 39.47C333.57 36.72 331.33 35.72 328.68 37.26L97 171.05C95.4395 172.054 94.1513 173.428 93.25 175.05L83.25 169.28C84.1451 167.65 85.4388 166.274 87.01 165.28L318.72 31.52C320.297 30.6791 322.05 30.2227 323.836 30.1879C325.622 30.1532 327.392 30.5411 329 31.32C330.363 32.2416 331.51 33.4472 332.363 34.854C333.215 36.2608 333.753 37.8355 333.94 39.47Z" fill="#455A64"/>
<path d="M334 40.33V52.24L256.48 97C253.56 98.69 109.21 182 106.29 183.72L91.66 192.16V180.26C91.7593 178.417 92.2908 176.623 93.2115 175.023C94.1322 173.423 95.4163 172.062 96.96 171.05L328.68 37.26C331.6 35.57 334 36.94 334 40.33Z" fill="#37474F"/>
<path d="M325.09 45C326.81 44 328.21 44.81 328.21 46.8C328.149 47.8801 327.835 48.9307 327.293 49.867C326.751 50.8033 325.996 51.5991 325.09 52.19C323.38 53.19 321.98 52.37 321.98 50.39C322.04 49.3108 322.353 48.2607 322.893 47.3245C323.433 46.3883 324.186 45.592 325.09 45Z" fill="white"/>
<path d="M313.89 51.4399C315.61 50.4399 317 51.2499 317 53.2399C316.942 54.3182 316.63 55.3674 316.089 56.3023C315.549 57.2371 314.795 58.0312 313.89 58.6199C312.17 59.6199 310.78 58.8099 310.78 56.8299C310.837 55.75 311.148 54.6987 311.689 53.762C312.229 52.8253 312.983 52.0296 313.89 51.4399Z" fill="white"/>
<path d="M302.69 57.9C304.41 56.9 305.8 57.71 305.8 59.69C305.743 60.77 305.432 61.8212 304.891 62.7579C304.351 63.6947 303.597 64.4903 302.69 65.08C300.97 66.08 299.58 65.27 299.58 63.29C299.637 62.2101 299.948 61.1588 300.489 60.2221C301.029 59.2854 301.783 58.4897 302.69 57.9Z" fill="white"/>
<path d="M100.67 187C102.15 186.14 102.67 184.84 103.36 182.34L104.99 176.7C105.58 174.44 106.2 172.89 107.69 172.04L172.54 134.59C174.03 133.73 175.2 133.59 176.33 135.51L178.33 139.14C179.18 140.6 179.6 141.46 181.08 140.6L231.44 111.54L334 52.24V78.44L91.66 218.36V192.17L100.66 186.95" fill="#E0E0E0"/>
<path d="M91.66 192.17V218.35L81.67 212.59V186.43L91.66 192.17Z" fill="#E0E0E0"/>
<path opacity="0.15" d="M91.66 192.17V218.35L81.67 212.59V186.43L91.66 192.17Z" fill="black"/>
<path opacity="0.3" d="M105.13 197.36L100.47 200.05L102.24 196.63C102.313 196.504 102.351 196.361 102.351 196.215C102.351 196.069 102.313 195.926 102.24 195.8C102.1 195.63 101.87 195.75 101.71 196.05L99.18 200.92C99.1524 200.978 99.129 201.038 99.11 201.1C99.1143 201.12 99.1143 201.14 99.11 201.16C99.1002 201.246 99.1002 201.334 99.11 201.42C99.0988 201.489 99.0988 201.56 99.11 201.63C99.1273 201.67 99.1509 201.707 99.18 201.74L101.71 203.68C101.746 203.707 101.79 203.721 101.835 203.721C101.88 203.721 101.924 203.707 101.96 203.68C102.087 203.591 102.185 203.465 102.24 203.32C102.38 203 102.36 202.65 102.24 202.53L100.47 201.16L105.13 198.47C105.251 198.375 105.347 198.253 105.413 198.114C105.479 197.976 105.512 197.824 105.51 197.67C105.51 197.4 105.34 197.24 105.13 197.36Z" fill="black"/>
<path opacity="0.3" d="M109 195.11L113.66 192.42L111.89 191.05C111.73 190.93 111.71 190.57 111.89 190.25C112.07 189.93 112.26 189.77 112.42 189.89L114.95 191.89C114.981 191.917 115.005 191.952 115.02 191.99C115.031 192.059 115.031 192.13 115.02 192.2C115.03 192.283 115.03 192.367 115.02 192.45C115.016 192.47 115.016 192.49 115.02 192.51C115.001 192.572 114.978 192.632 114.95 192.69L112.42 197.56C112.364 197.674 112.277 197.771 112.17 197.84C112.133 197.877 112.082 197.897 112.03 197.897C111.978 197.897 111.927 197.877 111.89 197.84C111.817 197.712 111.779 197.567 111.779 197.42C111.779 197.273 111.817 197.128 111.89 197L113.66 193.58L109 196.28C108.79 196.4 108.62 196.23 108.62 195.91C108.618 195.756 108.651 195.604 108.717 195.466C108.783 195.327 108.879 195.205 109 195.11Z" fill="black"/>
<path opacity="0.3" d="M123.93 181.67C123.93 181.39 123.66 181.43 123.53 181.73L122.9 183.3C121.81 183.18 120.49 184.24 119.59 186.13C118.44 188.58 118.44 191.47 119.59 192.58C119.871 192.841 120.234 192.996 120.617 193.02C121 193.044 121.379 192.934 121.69 192.71C122.625 192.087 123.352 191.199 123.78 190.16C123.855 190.038 123.895 189.898 123.895 189.755C123.895 189.612 123.855 189.472 123.78 189.35C123.64 189.2 123.4 189.35 123.25 189.65C122.39 191.48 120.99 192.29 120.12 191.46C119.25 190.63 119.26 188.46 120.12 186.64C120.74 185.34 121.62 184.57 122.39 184.52L121.91 185.7C121.79 186.01 121.91 186.29 122.1 186.16L124 184.92C124.074 184.856 124.132 184.776 124.168 184.686C124.205 184.595 124.219 184.497 124.21 184.4L123.93 181.67Z" fill="black"/>
<path opacity="0.3" d="M171.59 142.9L173.46 138.9C173.571 138.714 173.63 138.502 173.63 138.285C173.63 138.068 173.571 137.856 173.46 137.67C173.24 137.45 172.88 137.67 172.66 138.13L170.79 142.13L168.92 140.33C168.7 140.12 168.34 140.33 168.12 140.79C168.009 140.976 167.95 141.188 167.95 141.405C167.95 141.622 168.009 141.834 168.12 142.02L169.99 143.82L168.12 147.82C168.009 148.006 167.95 148.218 167.95 148.435C167.95 148.652 168.009 148.864 168.12 149.05C168.176 149.097 168.247 149.123 168.32 149.123C168.393 149.123 168.464 149.097 168.52 149.05C168.695 148.925 168.833 148.756 168.92 148.56L170.79 144.56L172.66 146.36C172.716 146.407 172.787 146.433 172.86 146.433C172.933 146.433 173.004 146.407 173.06 146.36C173.314 146.163 173.493 145.884 173.565 145.571C173.638 145.258 173.601 144.929 173.46 144.64L171.59 142.9Z" fill="black"/>
<path d="M134.26 183.47V178.3C134.309 177.412 134.566 176.549 135.011 175.779C135.456 175.01 136.075 174.356 136.82 173.87L312 72.48C313.41 71.66 314.55 72.32 314.55 73.95V79.13C314.503 80.0155 314.248 80.8774 313.805 81.6455C313.361 82.4136 312.743 83.0661 312 83.55L136.82 185C135.41 185.76 134.26 185.1 134.26 183.47Z" fill="#FAFAFA"/>
<path d="M308.56 84C308.484 84.0112 308.406 84.0112 308.33 84C308.186 83.9333 308.07 83.8198 307.999 83.6781C307.928 83.5365 307.907 83.3749 307.94 83.22L308.2 81.12L307.2 80.41C307.112 80.3444 307.041 80.2581 306.994 80.1587C306.947 80.0593 306.925 79.9498 306.93 79.84C306.928 79.6696 306.965 79.501 307.038 79.3469C307.111 79.1927 307.217 79.057 307.35 78.95L308.85 77.79C308.887 77.7596 308.912 77.7171 308.92 77.67L309.59 75.47C309.632 75.2894 309.726 75.1253 309.861 74.9988C309.997 74.8723 310.167 74.7891 310.35 74.76C310.47 74.7293 310.596 74.7359 310.712 74.7787C310.828 74.8216 310.929 74.8988 311 75L311.56 76.2L312.83 75.71C312.944 75.6631 313.071 75.6533 313.191 75.682C313.311 75.7107 313.419 75.7765 313.5 75.87C313.598 76.0185 313.65 76.1923 313.65 76.37C313.65 76.5477 313.598 76.7215 313.5 76.87L312.41 78.87C312.4 78.9127 312.4 78.9572 312.41 79L312.66 80.84C312.677 81.0074 312.657 81.1766 312.602 81.3355C312.547 81.4945 312.457 81.6394 312.34 81.76C312.268 81.844 312.177 81.9089 312.074 81.9491C311.971 81.9892 311.86 82.0033 311.75 81.99L310.52 81.84L309.2 83.53C309.146 83.6591 309.058 83.771 308.945 83.8538C308.832 83.9366 308.699 83.9872 308.56 84ZM307.83 79.73L308.83 80.44C308.932 80.5224 309.011 80.631 309.056 80.7542C309.102 80.8774 309.114 81.0107 309.09 81.14L308.92 82.54L309.81 81.41C309.884 81.3023 309.984 81.2161 310.102 81.1599C310.22 81.1037 310.35 81.0796 310.48 81.09L311.71 81.24C311.738 81.1982 311.755 81.1501 311.76 81.1L311.5 79.26C311.475 79.0286 311.52 78.795 311.63 78.59L312.58 76.81L311.58 77.19C311.436 77.245 311.277 77.2436 311.134 77.1861C310.991 77.1286 310.876 77.0193 310.81 76.88L310.36 75.88L309.77 77.88C309.703 78.0985 309.575 78.2931 309.4 78.44L307.89 79.6C307.867 79.6242 307.847 79.651 307.83 79.68V79.73Z" fill="#E0E0E0"/>
<g opacity="0.2">
<path d="M319.46 70.47C319.271 70.4806 319.083 70.4268 318.929 70.3174C318.774 70.208 318.66 70.0495 318.607 69.8675C318.554 69.6856 318.564 69.491 318.635 69.3153C318.706 69.1397 318.835 68.9933 319 68.9L325.84 64.9C325.936 64.8449 326.042 64.8092 326.151 64.7949C326.261 64.7806 326.372 64.7881 326.479 64.8169C326.586 64.8457 326.686 64.8952 326.774 64.9627C326.861 65.0301 326.935 65.1142 326.99 65.21C327.045 65.3059 327.081 65.4117 327.095 65.5214C327.109 65.6311 327.102 65.7425 327.073 65.8492C327.044 65.956 326.995 66.0561 326.927 66.1438C326.86 66.2314 326.776 66.3049 326.68 66.36L319.84 70.36C319.725 70.4288 319.594 70.4666 319.46 70.47Z" fill="black"/>
<path d="M319.46 74.42C319.274 74.421 319.093 74.3604 318.946 74.2477C318.798 74.135 318.692 73.9766 318.644 73.7971C318.596 73.6177 318.609 73.4274 318.681 73.2561C318.752 73.0847 318.879 72.9419 319.04 72.85L325.88 68.9C325.976 68.8449 326.082 68.8092 326.191 68.7949C326.301 68.7806 326.412 68.7881 326.519 68.8169C326.626 68.8457 326.726 68.8952 326.814 68.9627C326.901 69.0301 326.975 69.1142 327.03 69.21C327.085 69.3059 327.121 69.4117 327.135 69.5214C327.149 69.6311 327.142 69.7425 327.113 69.8492C327.084 69.956 327.035 70.0561 326.967 70.1438C326.9 70.2314 326.816 70.3049 326.72 70.36L319.88 74.36C319.748 74.4185 319.603 74.4392 319.46 74.42Z" fill="black"/>
<path d="M319.46 78.38C319.272 78.3856 319.087 78.3285 318.935 78.2178C318.783 78.107 318.671 77.9488 318.619 77.768C318.566 77.5872 318.575 77.394 318.644 77.2189C318.713 77.0437 318.838 76.8963 319 76.8L325.84 72.8C325.936 72.7446 326.042 72.7086 326.151 72.6942C326.261 72.6798 326.373 72.6872 326.479 72.716C326.586 72.7448 326.686 72.7944 326.774 72.862C326.862 72.9297 326.935 73.0139 326.99 73.11C327.045 73.2058 327.081 73.3116 327.096 73.4214C327.11 73.5311 327.103 73.6426 327.074 73.7495C327.045 73.8563 326.996 73.9564 326.928 74.0441C326.86 74.1317 326.776 74.2051 326.68 74.26L319.84 78.26C319.726 78.3318 319.595 78.3731 319.46 78.38Z" fill="black"/>
</g>
<path d="M258.2 141.16L308.28 112.25C309.76 111.39 310.96 112.09 310.96 113.8V125.06C310.904 125.991 310.631 126.896 310.164 127.703C309.698 128.51 309.049 129.197 308.27 129.71L258.2 158.62C256.72 159.48 255.52 158.78 255.52 157.07V145.81C255.575 144.88 255.846 143.976 256.311 143.169C256.776 142.362 257.423 141.674 258.2 141.16Z" fill="#00BFB4"/>
<path opacity="0.3" d="M258.2 141.16L308.28 112.25C309.76 111.39 310.96 112.09 310.96 113.8V125.06C310.904 125.991 310.631 126.896 310.164 127.703C309.698 128.51 309.049 129.197 308.27 129.71L258.2 158.62C256.72 159.48 255.52 158.78 255.52 157.07V145.81C255.575 144.88 255.846 143.976 256.311 143.169C256.776 142.362 257.423 141.674 258.2 141.16Z" fill="white"/>
<path d="M197.71 176L247.79 147.09C249.27 146.24 250.47 146.93 250.47 148.64V159.9C250.418 160.832 250.148 161.739 249.681 162.546C249.213 163.354 248.562 164.041 247.78 164.55L197.71 193.5C196.23 194.35 195.03 193.66 195.03 191.94V180.69C195.079 179.753 195.347 178.841 195.812 178.026C196.278 177.212 196.928 176.518 197.71 176Z" fill="#00BFB4"/>
<path opacity="0.3" d="M197.71 176L247.79 147.09C249.27 146.24 250.47 146.93 250.47 148.64V159.9C250.418 160.832 250.148 161.739 249.681 162.546C249.213 163.354 248.562 164.041 247.78 164.55L197.71 193.5C196.23 194.35 195.03 193.66 195.03 191.94V180.69C195.079 179.753 195.347 178.841 195.812 178.026C196.278 177.212 196.928 176.518 197.71 176Z" fill="white"/>
<path d="M190 189.49C190.036 189.156 189.981 188.818 189.843 188.512C189.704 188.206 189.485 187.943 189.21 187.75L184.21 184.83C183.904 184.692 183.568 184.637 183.235 184.671C182.901 184.704 182.582 184.824 182.31 185.02L117.13 222.64C116.35 223.154 115.7 223.843 115.233 224.652C114.766 225.461 114.495 226.368 114.44 227.3V238.55C114.406 238.882 114.46 239.216 114.597 239.52C114.734 239.824 114.949 240.086 115.22 240.28C115.7 240.57 119.79 242.93 120.29 243.21C120.594 243.348 120.929 243.403 121.261 243.37C121.593 243.336 121.91 243.216 122.18 243.02L187.37 205.41C188.154 204.903 188.806 204.217 189.274 203.408C189.741 202.6 190.011 201.693 190.06 200.76L190 189.49Z" fill="#00BFB4"/>
<path opacity="0.15" d="M190 189.49C190.036 189.156 189.981 188.818 189.843 188.512C189.704 188.206 189.485 187.943 189.21 187.75L184.21 184.83C183.904 184.692 183.568 184.637 183.235 184.671C182.901 184.704 182.582 184.824 182.31 185.02L117.13 222.64C116.35 223.154 115.7 223.843 115.233 224.652C114.766 225.461 114.495 226.368 114.44 227.3V238.55C114.406 238.882 114.46 239.216 114.597 239.52C114.734 239.824 114.949 240.086 115.22 240.28C115.7 240.57 119.79 242.93 120.29 243.21C120.594 243.348 120.929 243.403 121.261 243.37C121.593 243.336 121.91 243.216 122.18 243.02L187.37 205.41C188.154 204.903 188.806 204.217 189.274 203.408C189.741 202.6 190.011 201.693 190.06 200.76L190 189.49Z" fill="black"/>
<path d="M122.1 225.56L187.27 187.94C187.527 187.714 187.849 187.575 188.19 187.541C188.53 187.508 188.873 187.582 189.17 187.752C189.466 187.923 189.702 188.183 189.844 188.494C189.985 188.806 190.026 189.154 189.96 189.49V200.76C189.91 201.691 189.642 202.598 189.176 203.406C188.711 204.214 188.061 204.9 187.28 205.41L122.1 243C121.843 243.226 121.521 243.365 121.18 243.399C120.84 243.432 120.497 243.358 120.2 243.188C119.904 243.017 119.668 242.757 119.526 242.446C119.385 242.134 119.344 241.786 119.41 241.45V230.21C119.462 229.278 119.732 228.371 120.199 227.564C120.667 226.756 121.318 226.069 122.1 225.56Z" fill="#00BFB4"/>
<path d="M189.18 187.75C188.874 187.612 188.538 187.557 188.205 187.591C187.871 187.624 187.552 187.744 187.28 187.94L122.11 225.55C121.319 226.05 120.662 226.736 120.2 227.55L115.2 224.64C115.653 223.823 116.307 223.134 117.1 222.64L182.24 185C182.512 184.804 182.831 184.684 183.165 184.651C183.498 184.617 183.834 184.672 184.14 184.81L189.18 187.75Z" fill="#00BFB4"/>
<path opacity="0.3" d="M189.18 187.75C188.874 187.612 188.538 187.557 188.205 187.591C187.871 187.624 187.552 187.744 187.28 187.94L122.11 225.55C121.319 226.05 120.662 226.736 120.2 227.55L115.2 224.64C115.653 223.823 116.307 223.134 117.1 222.64L182.24 185C182.512 184.804 182.831 184.684 183.165 184.651C183.498 184.617 183.834 184.672 184.14 184.81L189.18 187.75Z" fill="white"/>
<path d="M134.44 227.05L136.04 221.83L136.15 221.56C136.202 221.441 136.289 221.339 136.4 221.27L136.98 220.94C137.002 220.92 137.03 220.91 137.06 220.91C137.09 220.91 137.118 220.92 137.14 220.94C137.188 220.999 137.213 221.074 137.21 221.15V229.55C137.206 229.65 137.182 229.749 137.14 229.84C137.106 229.92 137.05 229.989 136.98 230.04L136.29 230.43C136.268 230.45 136.24 230.461 136.21 230.461C136.18 230.461 136.152 230.45 136.13 230.43C136.083 230.371 136.062 230.295 136.07 230.22V225.14L135 228.7C134.965 228.795 134.925 228.889 134.88 228.98C134.838 229.073 134.768 229.15 134.68 229.2L134.25 229.46C134.22 229.48 134.186 229.49 134.15 229.49C134.114 229.49 134.08 229.48 134.05 229.46C134.004 229.415 133.964 229.365 133.93 229.31L132.8 227V232.08C132.8 232.18 132.78 232.279 132.74 232.37C132.706 232.45 132.65 232.519 132.58 232.57L131.89 232.96C131.868 232.98 131.84 232.991 131.81 232.991C131.78 232.991 131.752 232.98 131.73 232.96C131.68 232.902 131.655 232.827 131.66 232.75V224.35C131.664 224.25 131.688 224.151 131.73 224.06C131.764 223.983 131.82 223.917 131.89 223.87L132.47 223.54C132.58 223.47 132.66 223.47 132.72 223.54L132.83 223.69L134.44 227.05Z" fill="#FAFAFA"/>
<path d="M138.23 225.94C138.232 225.453 138.279 224.968 138.37 224.49C138.463 224.024 138.604 223.568 138.79 223.13C138.96 222.728 139.178 222.349 139.44 222C139.676 221.692 139.968 221.431 140.3 221.23C140.555 221.065 140.857 220.988 141.16 221.01C141.41 221.034 141.643 221.152 141.81 221.34C142.012 221.577 142.156 221.858 142.23 222.16C142.335 222.544 142.386 222.942 142.38 223.34V223.92C142.381 224.021 142.357 224.12 142.31 224.21C142.279 224.292 142.223 224.362 142.15 224.41L139.33 226C139.32 226.164 139.348 226.328 139.41 226.48C139.451 226.586 139.525 226.677 139.62 226.74C139.718 226.792 139.831 226.81 139.94 226.79C140.067 226.768 140.188 226.724 140.3 226.66C140.462 226.568 140.61 226.453 140.74 226.32C140.835 226.221 140.922 226.114 141 226C141.045 225.92 141.096 225.844 141.15 225.77C141.194 225.717 141.249 225.672 141.31 225.64L141.99 225.25C142.013 225.232 142.041 225.222 142.07 225.222C142.099 225.222 142.127 225.232 142.15 225.25C142.177 225.277 142.197 225.31 142.208 225.347C142.218 225.384 142.219 225.423 142.21 225.46C142.199 225.646 142.155 225.829 142.08 226C141.986 226.271 141.865 226.532 141.72 226.78C141.542 227.068 141.338 227.339 141.11 227.59C140.871 227.859 140.591 228.089 140.28 228.27C140.024 228.434 139.724 228.517 139.42 228.51C139.168 228.483 138.936 228.362 138.77 228.17C138.566 227.912 138.422 227.611 138.35 227.29C138.257 226.846 138.217 226.393 138.23 225.94ZM140.3 222.79C140.142 222.888 140.001 223.009 139.88 223.15C139.768 223.29 139.671 223.441 139.59 223.6C139.511 223.759 139.45 223.927 139.41 224.1C139.371 224.248 139.345 224.398 139.33 224.55L141.24 223.45C141.231 223.324 141.208 223.2 141.17 223.08C141.147 222.966 141.095 222.859 141.02 222.77C140.944 222.697 140.845 222.654 140.74 222.65C140.583 222.655 140.431 222.703 140.3 222.79Z" fill="#FAFAFA"/>
<path d="M147.42 223.67C147.421 223.768 147.397 223.864 147.35 223.95C147.322 224.034 147.265 224.105 147.19 224.15L146.55 224.52C146.528 224.54 146.5 224.551 146.47 224.551C146.44 224.551 146.412 224.54 146.39 224.52C146.342 224.461 146.317 224.386 146.32 224.31V221C146.354 220.612 146.274 220.223 146.09 219.88C145.93 219.66 145.69 219.65 145.36 219.88C145.037 220.089 144.791 220.398 144.66 220.76C144.477 221.204 144.389 221.68 144.4 222.16V225.46C144.396 225.56 144.372 225.659 144.33 225.75C144.293 225.828 144.238 225.897 144.17 225.95L143.53 226.32C143.46 226.32 143.41 226.32 143.37 226.32C143.344 226.294 143.324 226.263 143.312 226.228C143.3 226.194 143.296 226.157 143.3 226.12V220C143.299 219.902 143.323 219.806 143.37 219.72C143.398 219.637 143.455 219.566 143.53 219.52L144.17 219.15C144.192 219.13 144.22 219.12 144.25 219.12C144.28 219.12 144.308 219.13 144.33 219.15C144.378 219.209 144.403 219.284 144.4 219.36V219.66C144.54 219.357 144.711 219.069 144.91 218.8C145.098 218.547 145.337 218.336 145.61 218.18C145.864 218.002 146.17 217.914 146.48 217.93C146.591 217.943 146.698 217.98 146.793 218.039C146.888 218.097 146.969 218.176 147.03 218.27C147.187 218.508 147.29 218.778 147.33 219.06C147.393 219.43 147.423 219.805 147.42 220.18V223.67Z" fill="#FAFAFA"/>
<path d="M148.5 217C148.504 216.9 148.528 216.801 148.57 216.71C148.604 216.633 148.66 216.567 148.73 216.52L149.37 216.15C149.44 216.15 149.49 216.15 149.53 216.15C149.556 216.176 149.576 216.207 149.588 216.242C149.6 216.277 149.604 216.314 149.6 216.35V219.66C149.57 220.047 149.646 220.434 149.82 220.78C149.96 221.01 150.2 221.03 150.52 220.84C150.842 220.642 151.086 220.338 151.21 219.98C151.369 219.538 151.447 219.07 151.44 218.6V215.29C151.444 215.193 151.468 215.098 151.51 215.01C151.542 214.929 151.598 214.859 151.67 214.81L152.31 214.44C152.334 214.42 152.364 214.408 152.395 214.408C152.426 214.408 152.456 214.42 152.48 214.44C152.527 214.5 152.548 214.575 152.54 214.65V220.71C152.538 220.81 152.518 220.908 152.48 221C152.446 221.08 152.386 221.147 152.31 221.19L151.67 221.56C151.66 221.571 151.647 221.58 151.634 221.586C151.62 221.592 151.605 221.595 151.59 221.595C151.575 221.595 151.56 221.592 151.546 221.586C151.533 221.58 151.52 221.571 151.51 221.56C151.46 221.502 151.435 221.427 151.44 221.35V221C151.305 221.287 151.144 221.562 150.96 221.82C150.781 222.083 150.545 222.302 150.27 222.46C150.021 222.633 149.723 222.721 149.42 222.71C149.309 222.693 149.203 222.653 149.108 222.593C149.014 222.533 148.932 222.453 148.87 222.36C148.719 222.113 148.624 221.837 148.59 221.55C148.527 221.184 148.497 220.812 148.5 220.44V217Z" fill="#FAFAFA"/>
<path d="M175.94 206.17L172.22 203.36L172.89 202.09L175.63 204.16L178.37 198.93L179.35 199.67L175.94 206.17Z" fill="#FAFAFA"/>
<path d="M253.16 234.48C253.196 234.146 253.142 233.808 253.003 233.502C252.864 233.196 252.645 232.933 252.37 232.74L247.37 229.84C247.066 229.698 246.73 229.639 246.395 229.671C246.061 229.703 245.742 229.823 245.47 230.02L202.78 254.66L200.1 256.21V340.42C200.067 340.75 200.12 341.084 200.256 341.387C200.391 341.691 200.602 341.953 200.87 342.15L205.94 345.07C206.243 345.21 206.579 345.266 206.911 345.233C207.243 345.199 207.561 345.078 207.83 344.88L250.53 320.25C251.311 319.74 251.961 319.054 252.426 318.246C252.892 317.438 253.16 316.531 253.21 315.6L253.16 234.48Z" fill="#E0E0E0"/>
<path d="M247.34 229.84C247.035 229.696 246.696 229.636 246.36 229.668C246.024 229.7 245.703 229.821 245.43 230.02L202.75 254.65L200.07 256.21L192.07 260.81C191.887 260.917 191.736 261.069 191.631 261.252C191.525 261.436 191.47 261.644 191.47 261.855C191.47 262.066 191.525 262.274 191.631 262.457C191.736 262.641 191.887 262.793 192.07 262.9C193.791 264.002 195.574 265.004 197.41 265.9L205.07 267.83V259.1L207.76 257.55L250.43 232.91C250.702 232.714 251.021 232.594 251.355 232.56C251.688 232.527 252.024 232.582 252.33 232.72C251.89 232.46 247.83 230.11 247.34 229.84Z" fill="#F0F0F0"/>
<path d="M253.15 234.48C253.216 234.144 253.175 233.796 253.034 233.484C252.892 233.173 252.656 232.913 252.36 232.742C252.063 232.572 251.72 232.498 251.38 232.531C251.039 232.565 250.717 232.704 250.46 232.93L205.11 259.12L197.11 263.72C196.927 263.825 196.775 263.977 196.67 264.159C196.564 264.342 196.509 264.549 196.509 264.76C196.509 264.971 196.564 265.178 196.67 265.361C196.775 265.543 196.927 265.695 197.11 265.8C197.206 265.856 197.311 265.897 197.42 265.92L205.08 267.85V343.33C205.01 343.666 205.048 344.015 205.188 344.328C205.327 344.641 205.563 344.902 205.86 345.074C206.156 345.246 206.5 345.319 206.841 345.285C207.182 345.25 207.504 345.108 207.76 344.88L250.46 320.25C251.242 319.741 251.893 319.054 252.361 318.246C252.828 317.439 253.098 316.532 253.15 315.6V234.48Z" fill="#FAFAFA"/>
<path d="M251.69 233.89C251.793 234.069 251.839 234.275 251.82 234.48V315.6C251.774 316.297 251.57 316.974 251.224 317.581C250.877 318.187 250.397 318.707 249.82 319.1L207.13 343.72C206.961 343.828 206.769 343.896 206.57 343.92C206.467 343.741 206.421 343.535 206.44 343.33V266.81L205.44 266.56L198.1 264.71L205.78 260.28L251.14 234.09C251.299 233.984 251.48 233.919 251.67 233.9M251.67 232.57C251.245 232.587 250.831 232.715 250.47 232.94L205.12 259.13L197.12 263.73C196.937 263.835 196.785 263.987 196.68 264.169C196.574 264.352 196.519 264.559 196.519 264.77C196.519 264.981 196.574 265.188 196.68 265.371C196.785 265.553 196.937 265.705 197.12 265.81C197.216 265.866 197.321 265.907 197.43 265.93L205.09 267.86V343.34C205.054 343.674 205.108 344.012 205.247 344.318C205.386 344.624 205.605 344.887 205.88 345.08C206.09 345.201 206.328 345.263 206.57 345.26C206.996 345.245 207.41 345.118 207.77 344.89L250.47 320.26C251.252 319.751 251.903 319.064 252.371 318.256C252.838 317.449 253.108 316.542 253.16 315.61V234.49C253.196 234.156 253.142 233.818 253.003 233.512C252.864 233.206 252.645 232.943 252.37 232.75C252.157 232.627 251.915 232.565 251.67 232.57Z" fill="#E0E0E0"/>
<path d="M205.11 310.79V312.22L253.17 284.48V283.04L205.11 310.79Z" fill="#E0E0E0"/>
<path d="M205.11 329.69L253.17 301.94V300.5L205.11 328.25V329.69Z" fill="#E0E0E0"/>
<path d="M205.11 275.87V277.3L253.16 249.56V248.12L205.11 275.87Z" fill="#E0E0E0"/>
<path d="M205.11 293.33V294.76L253.16 267.02V265.58L205.11 293.33Z" fill="#E0E0E0"/>
<path d="M206.35 294.05L251.97 267.71V283.86L206.35 310.07V294.05Z" fill="#00BFB4"/>
<path opacity="0.6" d="M206.35 294.05L251.97 267.71V283.86L206.35 310.07V294.05Z" fill="white"/>
<path d="M215.19 294L235.35 282.36C236.24 281.85 236.96 282.26 236.96 283.29V284.15C236.931 284.709 236.769 285.253 236.49 285.738C236.21 286.223 235.819 286.635 235.35 286.94L215.19 298.58C214.3 299.1 213.58 298.68 213.58 297.65V296.79C213.612 296.231 213.774 295.688 214.053 295.204C214.333 294.719 214.722 294.307 215.19 294Z" fill="#00BFB4"/>
<path d="M215.19 276.6L235.35 265C236.24 264.49 236.96 264.91 236.96 265.94V266.79C236.931 267.349 236.769 267.893 236.49 268.378C236.21 268.863 235.819 269.275 235.35 269.58L215.19 281.23C214.3 281.74 213.58 281.32 213.58 280.3V279.44C213.602 278.872 213.759 278.318 214.039 277.824C214.319 277.33 214.714 276.91 215.19 276.6Z" fill="#E0E0E0"/>
<path d="M215.19 259.12L235.35 247.48C236.24 246.96 236.96 247.38 236.96 248.41V249.27C236.928 249.828 236.766 250.372 236.487 250.856C236.207 251.341 235.818 251.753 235.35 252.06L215.19 263.7C214.3 264.21 213.58 263.8 213.58 262.77V261.91C213.609 261.351 213.771 260.807 214.05 260.322C214.33 259.837 214.721 259.425 215.19 259.12Z" fill="#E0E0E0"/>
<path d="M215.19 329L235.35 317.36C236.24 316.85 236.96 317.27 236.96 318.29V319.15C236.931 319.709 236.769 320.253 236.49 320.738C236.21 321.223 235.819 321.635 235.35 321.94L215.19 333.58C214.3 334.1 213.58 333.68 213.58 332.65V331.8C213.61 331.24 213.772 330.694 214.051 330.208C214.331 329.722 214.721 329.308 215.19 329Z" fill="#E0E0E0"/>
<path d="M215.19 311.49L235.35 299.85C236.24 299.33 236.96 299.75 236.96 300.78V301.63C236.93 302.19 236.768 302.736 236.489 303.222C236.209 303.708 235.819 304.122 235.35 304.43L215.19 316.07C214.3 316.58 213.58 316.17 213.58 315.14V314.28C213.609 313.721 213.771 313.177 214.05 312.692C214.33 312.207 214.721 311.795 215.19 311.49Z" fill="#E0E0E0"/>
<path d="M190 224.4C190.036 224.066 189.981 223.728 189.843 223.422C189.704 223.116 189.485 222.853 189.21 222.66L184.21 219.76C183.904 219.618 183.566 219.56 183.231 219.591C182.895 219.623 182.574 219.743 182.3 219.94L117.12 257.55C116.341 258.063 115.692 258.75 115.226 259.557C114.759 260.364 114.486 261.269 114.43 262.2V343.31C114.396 343.642 114.45 343.976 114.587 344.28C114.724 344.584 114.939 344.846 115.21 345.04C115.69 345.33 119.78 347.69 120.28 347.97C120.584 348.105 120.919 348.158 121.25 348.125C121.582 348.092 121.898 347.973 122.17 347.78L187.36 310.17C188.144 309.663 188.796 308.977 189.264 308.168C189.731 307.36 190.001 306.452 190.05 305.52L190 224.4Z" fill="#E0E0E0"/>
<path d="M189.18 222.66C188.874 222.522 188.538 222.467 188.205 222.501C187.871 222.534 187.552 222.654 187.28 222.85L122.11 260.46C121.316 260.957 120.66 261.644 120.2 262.46L115.2 259.55C115.653 258.733 116.307 258.044 117.1 257.55L182.28 219.94C182.553 219.741 182.874 219.62 183.21 219.588C183.546 219.556 183.885 219.616 184.19 219.76L189.18 222.66Z" fill="#F0F0F0"/>
<path d="M179.9 227.11L177.4 222.77C177.318 222.623 177.197 222.502 177.05 222.42L172.05 219.5C171.926 219.435 171.791 219.397 171.652 219.388C171.512 219.379 171.373 219.399 171.242 219.447C171.111 219.495 170.992 219.57 170.892 219.667C170.791 219.764 170.712 219.881 170.66 220.01L167.79 228.29L172.79 231.22L179.9 227.11Z" fill="#E0E0E0"/>
<path d="M190 224.4C190.066 224.064 190.025 223.716 189.884 223.404C189.742 223.093 189.506 222.833 189.21 222.662C188.913 222.492 188.57 222.418 188.23 222.451C187.889 222.485 187.567 222.624 187.31 222.85L179.94 227.1L177.44 222.77C177.339 222.625 177.201 222.51 177.041 222.436C176.881 222.362 176.704 222.331 176.529 222.348C176.353 222.364 176.185 222.426 176.041 222.529C175.897 222.631 175.783 222.769 175.71 222.93L172.85 231.19L122.1 260.46C121.32 260.974 120.67 261.663 120.203 262.472C119.736 263.281 119.465 264.187 119.41 265.12V346.22C119.374 346.557 119.43 346.897 119.571 347.204C119.711 347.512 119.932 347.777 120.21 347.97C120.514 348.105 120.849 348.158 121.18 348.125C121.512 348.092 121.828 347.973 122.1 347.78L187.3 310.17C188.081 309.66 188.731 308.974 189.196 308.166C189.662 307.358 189.93 306.451 189.98 305.52L190 224.4Z" fill="#FAFAFA"/>
<path d="M188.5 223.81C188.6 223.99 188.642 224.196 188.62 224.4V305.52C188.571 306.216 188.365 306.892 188.019 307.498C187.673 308.104 187.195 308.624 186.62 309.02L121.42 346.62C121.257 346.731 121.067 346.796 120.87 346.81C120.87 346.81 120.74 346.62 120.74 346.22V265.12C120.786 264.423 120.99 263.746 121.336 263.139C121.683 262.533 122.163 262.013 122.74 261.62L173.45 232.35L173.88 232.1L174.04 231.63L176.63 224.16L178.71 227.77L179.38 228.93L180.54 228.26L187.91 224C188.078 223.892 188.271 223.827 188.47 223.81M176.54 222.29C176.341 222.286 176.147 222.347 175.985 222.462C175.823 222.577 175.702 222.741 175.64 222.93L172.78 231.19L122.1 260.46C121.32 260.974 120.67 261.662 120.203 262.472C119.736 263.281 119.465 264.187 119.41 265.12V346.22C119.374 346.557 119.43 346.897 119.571 347.204C119.711 347.512 119.932 347.777 120.21 347.97C120.422 348.085 120.659 348.143 120.9 348.14C121.324 348.123 121.737 347.999 122.1 347.78L187.3 310.17C188.081 309.66 188.731 308.973 189.196 308.166C189.662 307.358 189.93 306.451 189.98 305.52V224.4C190.016 224.066 189.962 223.728 189.823 223.422C189.684 223.116 189.465 222.853 189.19 222.66C188.977 222.539 188.735 222.477 188.49 222.48C188.064 222.496 187.651 222.624 187.29 222.85L179.92 227.1L177.42 222.77C177.333 222.627 177.211 222.508 177.066 222.424C176.921 222.34 176.757 222.294 176.59 222.29H176.54Z" fill="#E0E0E0"/>
<path d="M119.41 278.77V280.21L189.98 239.47V238.03L119.41 278.77Z" fill="#E0E0E0"/>
<path d="M119.41 313.7V315.13L189.98 274.39V272.96L119.41 313.7Z" fill="#E0E0E0"/>
<path d="M119.41 332.59L189.98 291.85V290.42L119.41 331.16V332.59Z" fill="#E0E0E0"/>
<path d="M119.41 296.24V297.67L189.98 256.93V255.5L119.41 296.24Z" fill="#E0E0E0"/>
<path d="M120.67 296.95L188.76 257.63L188.74 273.67L120.67 312.98V296.95Z" fill="#00BFB4"/>
<path opacity="0.6" d="M120.67 296.95L188.76 257.63L188.74 273.67L120.67 312.98V296.95Z" fill="white"/>
<path d="M131.11 296L163.17 277.49C164.06 276.98 164.78 277.4 164.78 278.42V279.28C164.751 279.839 164.589 280.383 164.31 280.868C164.03 281.353 163.639 281.765 163.17 282.07L131.11 300.6C130.22 301.12 129.49 300.7 129.49 299.67V298.82C129.519 298.256 129.681 297.706 129.962 297.216C130.244 296.726 130.637 296.309 131.11 296Z" fill="#00BFB4"/>
<path d="M131.11 278.59L163.17 260.08C164.06 259.56 164.78 259.98 164.78 261.01V261.86C164.75 262.42 164.588 262.965 164.309 263.452C164.029 263.938 163.639 264.352 163.17 264.66L131.11 283.17C130.22 283.68 129.49 283.26 129.49 282.24V281.38C129.521 280.82 129.684 280.276 129.966 279.791C130.247 279.306 130.639 278.895 131.11 278.59Z" fill="#E0E0E0"/>
<path d="M131.11 261.11L163.17 242.6C164.06 242.09 164.78 242.5 164.78 243.53V244.39C164.751 244.949 164.589 245.493 164.31 245.978C164.03 246.463 163.639 246.875 163.17 247.18L131.11 265.69C130.22 266.2 129.49 265.79 129.49 264.76V263.9C129.521 263.34 129.684 262.796 129.966 262.311C130.247 261.826 130.639 261.415 131.11 261.11Z" fill="#E0E0E0"/>
<path d="M131.11 331L163.17 312.49C164.06 311.98 164.78 312.4 164.78 313.42V314.28C164.751 314.839 164.589 315.383 164.31 315.868C164.03 316.353 163.639 316.765 163.17 317.07L131.11 335.58C130.22 336.1 129.49 335.68 129.49 334.65V333.8C129.522 333.239 129.685 332.693 129.967 332.207C130.248 331.721 130.64 331.307 131.11 331Z" fill="#E0E0E0"/>
<path d="M131.11 313.48L163.17 295C164.06 294.48 164.78 294.9 164.78 295.93V296.79C164.748 297.349 164.586 297.892 164.307 298.376C164.027 298.861 163.638 299.273 163.17 299.58L131.11 318.09C130.22 318.6 129.49 318.19 129.49 317.16V316.3C129.517 315.735 129.677 315.185 129.959 314.694C130.241 314.204 130.635 313.788 131.11 313.48Z" fill="#E0E0E0"/>
<path d="M266.54 296.41L251.49 278.41C251.414 278.316 251.323 278.235 251.22 278.17L247.61 276.08C247.3 275.9 247.08 276.14 247.08 276.73L247 313.13C247 313.44 247.05 313.62 247.13 313.67L250.74 315.76C250.86 315.82 251.05 315.63 251.27 315.17L253.85 309.64L255.32 314.9C255.358 315.075 255.462 315.229 255.61 315.33L259.23 317.42C259.53 317.59 259.97 317.42 260.39 316.95L262.47 314.55C262.77 314.213 262.993 313.815 263.124 313.383C263.256 312.952 263.292 312.497 263.23 312.05L260.39 301.89C260.341 301.481 260.432 301.068 260.648 300.717C260.864 300.367 261.193 300.1 261.58 299.96L265.8 298.06C266.65 297.67 267 296.93 266.54 296.41Z" fill="#00BFB4"/>
<path d="M266.54 296.41L251.49 278.41C251.414 278.316 251.323 278.235 251.22 278.17L247.61 276.08C247.3 275.9 247.08 276.14 247.08 276.73L247 313.13C247 313.44 247.05 313.62 247.13 313.67L250.74 315.76C250.86 315.82 251.05 315.63 251.27 315.17L253.85 309.64L255.32 314.9C255.358 315.075 255.462 315.229 255.61 315.33L259.23 317.42C259.53 317.59 259.97 317.42 260.39 316.95L262.47 314.55C262.77 314.213 262.993 313.815 263.124 313.383C263.256 312.952 263.292 312.497 263.23 312.05L260.39 301.89C260.341 301.481 260.432 301.068 260.648 300.717C260.864 300.367 261.193 300.1 261.58 299.96L265.8 298.06C266.65 297.67 267 296.93 266.54 296.41Z" fill="#37474F"/>
<path d="M250.61 315.22L250.69 278.79C250.69 278.03 251.05 277.85 251.49 278.38L266.54 296.38C266.98 296.9 266.65 297.64 265.8 298.03L261.58 299.93C261.193 300.07 260.864 300.337 260.648 300.687C260.432 301.038 260.341 301.451 260.39 301.86L263.23 312.02C263.292 312.467 263.256 312.922 263.124 313.353C262.993 313.785 262.77 314.183 262.47 314.52L260.39 316.92C259.78 317.62 259.13 317.64 258.94 316.92L256.09 306.77C255.9 306.09 255.45 306.17 255.09 306.95L251.28 315.11C250.9 316 250.61 316 250.61 315.22Z" fill="#455A64"/>
<path d="M259.17 317.38L255.61 315.33C255.462 315.229 255.358 315.075 255.32 314.9L253.85 309.65L255.08 307.01C255.45 306.23 255.9 306.15 256.08 306.83L258.93 317C258.972 317.147 259.055 317.279 259.17 317.38Z" fill="#263238"/>
<path d="M338.07 386.16L329.82 369.92L313.23 379.63L333.68 403.77C333.68 403.77 343.82 402.84 345.45 397.55C347.08 392.26 340.86 387.92 338.07 386.16Z" fill="#C8856A"/>
<path d="M349.75 392.54C350.676 393.215 351.458 394.069 352.05 395.05C352.72 396.05 352.51 400.85 353.15 403.05C353.79 405.25 354.28 405.87 355.35 408.67C356.53 411.77 358.72 414.6 356.25 422.56C353.78 430.52 349.82 434.32 346.49 436.27C345.255 436.916 343.884 437.259 342.49 437.27C342.49 437.27 338.12 435.62 338.79 433.03C339.46 430.44 349.75 392.54 349.75 392.54Z" fill="#263238"/>
<path d="M330.57 401.28C330.69 402.1 331.83 403.36 332.3 404.03C333.87 406.28 334.59 409.33 335.13 412.03C337.71 424.63 332.7 431.03 339.49 435.77C341.49 437 345.49 436.66 351.72 428.72C354.89 424.66 356.72 416.32 355.46 412.54C354.2 408.76 352.54 406.3 351.74 403.39C350.94 400.48 351.36 395.07 349.74 392.58C348.701 391.169 347.358 390.011 345.81 389.19C344.61 388.46 341.97 387.5 340.75 386.8C339.53 386.1 338.84 385.31 338.06 386.2L339.47 387.95C341.68 391.01 341.07 391.46 341.01 393.09C341.11 394.844 341.388 396.583 341.84 398.28C340.26 396.28 339.62 394.56 337.9 394.86C336.18 395.16 335.98 395.09 333.52 397.39C331.06 399.69 330.46 400.55 330.57 401.28Z" fill="#00BFB4"/>
<path opacity="0.4" d="M330.57 401.28C330.69 402.1 331.83 403.36 332.3 404.03C333.87 406.28 334.59 409.33 335.13 412.03C337.71 424.63 332.7 431.03 339.49 435.77C341.49 437 345.49 436.66 351.72 428.72C354.89 424.66 356.72 416.32 355.46 412.54C354.2 408.76 352.54 406.3 351.74 403.39C350.94 400.48 351.36 395.07 349.74 392.58C348.701 391.169 347.358 390.011 345.81 389.19C344.61 388.46 341.97 387.5 340.75 386.8C339.53 386.1 338.84 385.31 338.06 386.2L339.47 387.95C341.68 391.01 341.07 391.46 341.01 393.09C341.11 394.844 341.388 396.583 341.84 398.28C340.26 396.28 339.62 394.56 337.9 394.86C336.18 395.16 335.98 395.09 333.52 397.39C331.06 399.69 330.46 400.55 330.57 401.28Z" fill="black"/>
<path opacity="0.3" d="M351.72 428.68C354.89 424.62 356.72 416.28 355.46 412.5C355.045 411.254 354.561 410.032 354.01 408.84C354.06 409.09 354.14 409.36 354.17 409.57C354.25 410.06 354.31 410.57 354.36 411.05C354.644 412.979 354.427 414.949 353.73 416.77C353.02 418.34 351.37 422.28 349.25 422.36C348.05 422.41 347.04 421.24 346.57 419.9C346.38 419.33 346.06 417.8 346.06 417.8C344.111 418.248 342.247 419.008 340.54 420.05C337.47 422.05 337.54 422.53 337.54 422.53C337.726 423.418 337.76 424.331 337.64 425.23C337.46 426.199 337.071 427.117 336.5 427.92C336.264 428.162 335.998 428.373 335.71 428.55C335.84 431.46 336.6 433.74 339.45 435.73C341.45 437 345.53 436.62 351.72 428.68Z" fill="black"/>
<path d="M335.13 412C335.791 415.313 336.056 418.694 335.92 422.07C337.08 425.3 338.09 425.21 338.23 423.53C338.37 421.85 336.14 414.92 334.48 409.19C334.74 410.13 335 411.08 335.13 412Z" fill="#37474F"/>
<path d="M342.8 391.78C342.943 390.147 342.507 388.515 341.57 387.17C341.27 387.03 340.98 386.89 340.76 386.76C339.43 386.01 338.85 385.27 338.07 386.16L339.48 387.91C341.69 390.97 341.08 391.42 341.02 393.05C341.12 394.804 341.398 396.543 341.85 398.24C343.13 403.71 344.3 405.54 344.91 410.71C345.52 415.88 344.48 419.35 345.21 419.64C345.94 419.93 347.41 419.35 347.68 415.21C347.95 411.07 346.12 404.1 344.83 400.8C343.54 397.5 342.54 394 342.8 391.78Z" fill="#37474F"/>
<path d="M346.42 418.16C346.349 418.231 346.259 418.28 346.16 418.3C344.531 418.517 342.961 419.058 341.543 419.889C340.125 420.72 338.886 421.825 337.9 423.14C337.811 423.244 337.684 423.309 337.547 423.32C337.411 423.332 337.275 423.288 337.17 423.2C337.119 423.157 337.076 423.104 337.046 423.044C337.015 422.985 336.996 422.919 336.991 422.852C336.985 422.786 336.993 422.718 337.013 422.654C337.034 422.59 337.067 422.531 337.11 422.48C339.252 419.647 342.432 417.78 345.95 417.29C346.085 417.266 346.224 417.296 346.338 417.372C346.451 417.449 346.531 417.566 346.56 417.7C346.578 417.782 346.575 417.868 346.55 417.948C346.526 418.029 346.481 418.102 346.42 418.16Z" fill="#EBEBEB"/>
<path d="M345.77 413.85C345.697 413.921 345.608 413.972 345.51 414C342.044 414.589 338.933 416.477 336.81 419.28C336.766 419.335 336.711 419.38 336.648 419.412C336.586 419.445 336.518 419.465 336.448 419.471C336.378 419.476 336.307 419.467 336.241 419.445C336.174 419.423 336.112 419.387 336.06 419.34C335.954 419.247 335.889 419.117 335.878 418.977C335.867 418.837 335.91 418.698 336 418.59C338.275 415.618 341.584 413.608 345.27 412.96C345.382 412.933 345.501 412.943 345.607 412.989C345.713 413.035 345.801 413.115 345.858 413.215C345.914 413.316 345.936 413.433 345.921 413.547C345.905 413.662 345.852 413.768 345.77 413.85Z" fill="#EBEBEB"/>
<path d="M345.86 409.1C345.787 409.183 345.688 409.239 345.58 409.26C341.709 409.956 338.239 412.075 335.85 415.2C335.8 415.258 335.739 415.305 335.671 415.34C335.603 415.374 335.529 415.395 335.452 415.4C335.376 415.406 335.3 415.396 335.227 415.372C335.155 415.348 335.088 415.31 335.03 415.26C334.971 415.211 334.923 415.151 334.888 415.083C334.852 415.015 334.831 414.941 334.824 414.865C334.818 414.788 334.826 414.712 334.85 414.639C334.873 414.566 334.911 414.498 334.96 414.44C337.51 411.128 341.198 408.879 345.31 408.13C345.384 408.111 345.462 408.107 345.537 408.118C345.613 408.129 345.686 408.156 345.751 408.196C345.817 408.236 345.873 408.289 345.918 408.352C345.962 408.414 345.994 408.485 346.01 408.56C346.035 408.655 346.034 408.755 346.007 408.85C345.981 408.945 345.93 409.031 345.86 409.1Z" fill="#EBEBEB"/>
<path d="M345.17 405.05C345.093 405.126 344.996 405.179 344.89 405.2C341.107 405.878 337.715 407.947 335.38 411C335.281 411.113 335.142 411.183 334.992 411.195C334.843 411.206 334.694 411.157 334.58 411.06C334.522 411.013 334.474 410.954 334.439 410.888C334.404 410.822 334.383 410.749 334.376 410.675C334.369 410.6 334.378 410.525 334.401 410.454C334.424 410.383 334.461 410.317 334.51 410.26C337.001 407.014 340.613 404.814 344.64 404.09C344.787 404.057 344.941 404.084 345.069 404.165C345.196 404.245 345.287 404.373 345.32 404.52C345.344 404.614 345.342 404.712 345.316 404.805C345.29 404.898 345.239 404.983 345.17 405.05Z" fill="#EBEBEB"/>
<path d="M343.69 401.1C343.61 401.174 343.514 401.229 343.41 401.26C339.62 401.927 336.221 403.998 333.89 407.06C333.841 407.116 333.781 407.163 333.714 407.196C333.647 407.229 333.574 407.249 333.499 407.254C333.424 407.259 333.349 407.25 333.278 407.226C333.207 407.202 333.141 407.164 333.085 407.115C333.029 407.066 332.982 407.006 332.949 406.939C332.916 406.872 332.896 406.799 332.891 406.724C332.886 406.649 332.895 406.574 332.919 406.503C332.943 406.432 332.981 406.366 333.03 406.31C335.52 403.068 339.128 400.869 343.15 400.14C343.298 400.107 343.454 400.133 343.583 400.214C343.712 400.294 343.804 400.422 343.84 400.57C343.859 400.664 343.856 400.761 343.829 400.853C343.803 400.945 343.756 401.03 343.69 401.1Z" fill="#EBEBEB"/>
<path d="M333.59 387.46L322.85 396.24L316.77 400.05L323.71 413.16L343.25 403.81L333.59 387.46Z" fill="#C8856A"/>
<path d="M355.48 328.81C355.48 328.81 316.38 322.34 299.65 322.44C282.58 322.55 281 335.37 285.27 343.22C293.45 358.22 321.89 390.13 321.89 390.13C321.89 390.13 331.44 385.75 334.37 377.49L327.89 362.61L348.59 369.2L350.98 366.29L355.48 328.81Z" fill="#455A64"/>
<path d="M324.48 350C327.625 354.604 330.504 359.385 333.1 364.32L327.89 362.66C322.01 348.66 320.8 344.58 311.41 338.02C311.41 338 318.15 340.5 324.48 350Z" fill="#37474F"/>
<path d="M355.48 328.81L415.75 339.86C415.75 339.86 420.52 362.08 415.91 375.96C411.4 389.54 398.01 393.43 391.57 393.96C382.35 394.67 371.66 391.82 371.66 391.82C368.362 394.343 364.769 396.455 360.96 398.11C355.58 400.26 332.01 410.11 332.01 410.11C332.01 410.11 325.38 404.5 326.01 392.83L351 366.29L355.48 328.81Z" fill="#455A64"/>
<path d="M332 410.1C332 410.1 330.72 409.51 328.88 406.04C334.98 404.6 355.05 396.75 361.53 394.04C373.07 389.15 376.64 383.98 376.64 383.98C376.64 383.98 376.71 387.42 371.64 391.83C368.342 394.353 364.749 396.465 360.94 398.12C355.58 400.23 332 410.1 332 410.1Z" fill="#37474F"/>
<path d="M384 389.58C389.77 390.51 405.29 387.65 410.34 376.71C415.28 366 413.61 353.21 412.51 342.21L414.37 342.65L417.64 343.53C418.5 353.31 419.46 364.86 416.64 375.82C413.04 389.66 398.05 393.43 391.64 393.93C382.42 394.64 371.73 391.79 371.73 391.79L374.79 387.05C377.744 388.269 380.838 389.118 384 389.58Z" fill="#37474F"/>
<path d="M348.3 369.14C348.3 369.14 349.38 367.85 351.67 365.14C353.96 362.43 357.67 357.39 367.09 357.76C376.51 358.13 394.74 359.76 394.74 359.76C394.74 359.76 375.74 356.53 369.22 355.44C362.7 354.35 358.3 355.1 354.56 358.44C350.82 361.78 345.03 368.05 345.03 368.05L348.3 369.14Z" fill="#37474F"/>
<path d="M361 357C357.908 353.346 356.324 348.651 356.57 343.87C356.57 343.87 354.3 352.5 357.93 358.78L361 357Z" fill="#37474F"/>
<path d="M292.15 406.88C287.55 408.7 284.71 410.52 282.58 413.3C280.45 416.08 279.81 418.88 281.83 422.25C283.85 425.62 287.56 429.56 291.96 429.3C296.36 429.04 299.07 427.95 303.16 425.73L292.15 406.88Z" fill="#263238"/>
<path d="M328.89 410.77C328.96 412.15 323.15 414.9 317.12 417.77C310.65 420.85 309.06 422.86 303.78 425.46C297.78 428.46 295.45 428.6 290.78 427.3C286.11 426 280.32 419.3 284.35 413.13C287.63 408.13 291.87 406.73 298.35 405.03C303.477 403.737 308.515 402.11 313.43 400.16C318.09 398.35 321.93 395.1 322.89 396.23C322.22 396.55 317.35 399.56 318.27 400.38C318.5 400.8 319.19 400.67 320.39 400.17C320.646 400.037 320.928 399.961 321.216 399.947C321.505 399.933 321.792 399.982 322.06 400.09C322.599 400.442 323.02 400.947 323.27 401.54C323.82 402.744 324.308 403.976 324.73 405.23C325.09 406.08 324.94 405.59 325.27 406.45C325.6 407.31 326.37 408.87 326.27 409.75C326.21 410.28 325.83 410.45 325.42 410.75C325.01 411.05 324.42 411.32 324.05 411.62C323.89 411.74 323.62 412.14 323.7 412.34C323.78 412.54 324.7 412.52 325.04 412.34C325.38 412.16 325.98 412.05 326.4 411.89C326.82 411.73 327.83 411.27 328.89 410.77Z" fill="#00BFB4"/>
<path opacity="0.4" d="M328.89 410.77C328.96 412.15 323.15 414.9 317.12 417.77C310.65 420.85 309.06 422.86 303.78 425.46C297.78 428.46 295.45 428.6 290.78 427.3C286.11 426 280.32 419.3 284.35 413.13C287.63 408.13 291.87 406.73 298.35 405.03C303.477 403.737 308.515 402.11 313.43 400.16C318.09 398.35 321.93 395.1 322.89 396.23C322.22 396.55 317.35 399.56 318.27 400.38C318.5 400.8 319.19 400.67 320.39 400.17C320.646 400.037 320.928 399.961 321.216 399.947C321.505 399.933 321.792 399.982 322.06 400.09C322.599 400.442 323.02 400.947 323.27 401.54C323.82 402.744 324.308 403.976 324.73 405.23C325.09 406.08 324.94 405.59 325.27 406.45C325.6 407.31 326.37 408.87 326.27 409.75C326.21 410.28 325.83 410.45 325.42 410.75C325.01 411.05 324.42 411.32 324.05 411.62C323.89 411.74 323.62 412.14 323.7 412.34C323.78 412.54 324.7 412.52 325.04 412.34C325.38 412.16 325.98 412.05 326.4 411.89C326.82 411.73 327.83 411.27 328.89 410.77Z" fill="black"/>
<path opacity="0.3" d="M305.85 424.47C304.98 424.91 299.5 427.47 297.79 425.93C295.92 424.27 300.32 421.64 300.32 421.64C300.32 421.64 300.99 417.51 296 411.43C295.14 412.1 291.54 412.07 291.59 409.95C291.64 407.83 297.67 405.23 297.76 405.19C291.58 406.84 287.52 408.27 284.34 413.14C280.34 419.31 286.09 426.01 290.77 427.31C295.45 428.61 297.77 428.44 303.77 425.47C304.38 425.17 305.32 424.78 305.85 424.47Z" fill="black"/>
<path d="M299.73 421.23C297.44 421.99 299.01 424.06 302.36 423.39C307.36 422.39 311.54 419.54 317.12 417.78C323.12 414.9 329.29 412.22 328.9 410.69C327.82 411.1 325.51 412.06 325.51 412.06C325.06 412.25 323.89 412.69 323.89 412.69C319.32 414.69 314.26 417.84 309.31 419.18C305 420.36 302 420.46 299.73 421.23Z" fill="#37474F"/>
<path d="M296.33 412.21C298.42 411 298.79 409.97 302.89 408.09C306.99 406.21 313.89 402.18 318.2 399.68C319.81 398.616 321.362 397.468 322.85 396.24C322.14 395.43 319.53 396.18 316.91 397.83C314.29 399.48 312.71 400.52 310.12 401.83C305.12 404.83 299.35 406.89 296.48 408.74C293.61 410.59 294.24 413.42 296.33 412.21Z" fill="#37474F"/>
<path d="M296 411.66C296.028 411.727 296.069 411.788 296.12 411.84C298.437 414.746 299.812 418.291 300.06 422C300.067 422.149 300.13 422.29 300.235 422.395C300.34 422.5 300.481 422.563 300.63 422.57C300.7 422.564 300.768 422.544 300.83 422.51C300.891 422.477 300.946 422.431 300.989 422.375C301.032 422.32 301.063 422.256 301.081 422.188C301.098 422.12 301.101 422.049 301.09 421.98C300.831 417.999 299.346 414.195 296.84 411.09C296.794 411.037 296.737 410.995 296.673 410.965C296.609 410.936 296.54 410.921 296.47 410.921C296.4 410.921 296.33 410.936 296.267 410.965C296.203 410.995 296.146 411.037 296.1 411.09C296.038 411.17 295.997 411.263 295.979 411.363C295.962 411.462 295.969 411.564 296 411.66Z" fill="#F0F0F0"/>
<path d="M300.08 408.7C300.108 408.76 300.141 408.817 300.18 408.87C302.805 412.359 304.468 416.476 305 420.81C305.012 420.959 305.08 421.097 305.189 421.199C305.298 421.301 305.441 421.358 305.59 421.36C305.659 421.352 305.726 421.329 305.786 421.294C305.846 421.259 305.899 421.212 305.94 421.155C305.981 421.099 306.01 421.035 306.026 420.967C306.041 420.899 306.043 420.829 306.03 420.76C305.481 416.156 303.698 411.785 300.87 408.11C300.829 408.054 300.776 408.008 300.715 407.974C300.654 407.941 300.586 407.921 300.517 407.916C300.447 407.911 300.377 407.922 300.312 407.947C300.247 407.972 300.189 408.01 300.14 408.06C300.067 408.148 300.022 408.257 300.011 408.371C300 408.485 300.024 408.6 300.08 408.7Z" fill="#F0F0F0"/>
<path d="M309 420.39C309.04 420.488 309.105 420.574 309.19 420.637C309.274 420.7 309.375 420.74 309.48 420.75C309.55 420.752 309.62 420.739 309.684 420.712C309.749 420.685 309.807 420.644 309.855 420.594C309.903 420.543 309.94 420.482 309.963 420.416C309.987 420.35 309.996 420.28 309.99 420.21C309.75 412.88 304.99 406.01 304.81 405.77C304.764 405.717 304.707 405.675 304.643 405.645C304.58 405.616 304.51 405.601 304.44 405.601C304.37 405.601 304.301 405.616 304.237 405.645C304.173 405.675 304.116 405.717 304.07 405.77C303.982 405.889 303.938 406.036 303.947 406.184C303.956 406.332 304.018 406.473 304.12 406.58C304.17 406.63 308.73 413.35 308.94 420.16C308.951 420.239 308.971 420.316 309 420.39Z" fill="#F0F0F0"/>
<path d="M312.76 418C312.799 418.097 312.863 418.181 312.946 418.244C313.028 418.308 313.127 418.348 313.23 418.36C313.3 418.365 313.371 418.354 313.437 418.329C313.502 418.304 313.562 418.265 313.611 418.214C313.661 418.164 313.699 418.104 313.723 418.037C313.747 417.971 313.756 417.9 313.75 417.83C313.594 412.762 311.658 407.911 308.28 404.13C308.234 404.079 308.178 404.038 308.115 404.01C308.052 403.981 307.984 403.967 307.915 403.967C307.846 403.967 307.778 403.981 307.715 404.01C307.652 404.038 307.596 404.079 307.55 404.13C307.469 404.254 307.433 404.403 307.449 404.551C307.466 404.699 307.533 404.836 307.64 404.94C310.736 408.498 312.521 413.007 312.7 417.72C312.706 417.816 312.727 417.91 312.76 418Z" fill="#F0F0F0"/>
<path d="M317.62 415.94C317.66 416.036 317.724 416.12 317.807 416.183C317.889 416.247 317.987 416.287 318.09 416.3C318.159 416.305 318.228 416.294 318.293 416.27C318.357 416.245 318.416 416.207 318.464 416.157C318.513 416.108 318.55 416.049 318.573 415.983C318.597 415.918 318.606 415.849 318.6 415.78C318.6 408.16 313.22 402.26 312.98 402.02C312.934 401.967 312.877 401.925 312.813 401.895C312.75 401.866 312.68 401.851 312.61 401.851C312.54 401.851 312.471 401.866 312.407 401.895C312.343 401.925 312.286 401.967 312.24 402.02C312.153 402.142 312.114 402.291 312.128 402.44C312.143 402.589 312.211 402.727 312.32 402.83C312.37 402.89 317.54 408.59 317.56 415.67C317.558 415.764 317.579 415.856 317.62 415.94Z" fill="#EBEBEB"/>
<path d="M289.74 277.24L326.11 281.54C326.11 281.54 336.17 277.03 342.43 274.32C364.12 264.91 367.48 263.18 374.49 263.27L362.66 288.13C362.66 288.13 348.58 294.13 335.61 298.98C328.85 301.52 328.93 301.98 321.47 300.05C315.92 298.63 313.05 297.88 304.99 295.69C295.11 293.01 288.44 291.43 288.44 291.43L289.74 277.24Z" fill="#C8856A"/>
<path d="M293.9 278.05C287.26 276.71 284.68 276.76 282.9 272.63C281.12 268.5 280.36 267.72 279.61 266.94C278.86 266.16 274 263.4 272 262.3C270.48 261.49 269.09 261.58 266.33 260.98C264.96 260.68 263.38 260.24 262.02 259.84C260.931 259.361 259.78 259.042 258.6 258.89C257.07 258.89 257.42 261.09 258.47 262.12C259.732 263.176 261.185 263.98 262.75 264.49C263.85 264.94 266.48 265.96 266.48 265.96C266.08 266.86 265.06 268.5 265.08 269.61C265.1 270.72 265.27 271.16 267.25 273.07C267.015 273.318 266.835 273.613 266.721 273.935C266.608 274.257 266.563 274.599 266.59 274.94C266.894 275.828 267.421 276.623 268.12 277.25C267.778 277.681 267.585 278.21 267.57 278.76C267.57 279.64 269.08 281.32 270.57 282.62C272.14 284.32 273.46 286.92 274.9 288.26C276.34 289.6 278.42 290 281.84 290.26C285.26 290.52 294.07 292.72 294.07 292.72C294.07 292.72 300.34 279.34 293.9 278.05Z" fill="#C8856A"/>
<path d="M277.25 269.12C275.421 268.763 273.761 267.81 272.53 266.41C271.36 264.99 270.16 263.34 269.62 263.56C268.71 263.93 267.77 266.42 269.46 268.9C271.15 271.38 273.64 273.73 274.06 274.44C274.508 275.845 274.717 277.316 274.68 278.79C274.845 280.374 275.491 281.869 276.532 283.074C277.573 284.279 278.957 285.136 280.5 285.53C278.652 285.474 276.897 284.708 275.6 283.39C273.1 281.08 273.53 277.44 273.27 275.91C273.01 274.38 272.96 274.07 271.06 272.09C269.16 270.11 267.11 267.98 267.92 264.87C268.73 261.76 270.05 262.49 270.71 263.11C271.37 263.73 274.11 268.41 277.25 269.12Z" fill="#AF6152"/>
<path d="M266.45 266L268.26 266.43L267.92 267.1C267.43 267.045 266.934 267.124 266.485 267.328C266.036 267.532 265.651 267.854 265.37 268.26C265.61 267.63 266.13 266.63 266.45 266Z" fill="#AF6152"/>
<path d="M267.22 273.07C267.86 273.72 269.94 275.61 270.36 276C270.78 276.39 271.62 275.83 271.75 274.68C271.913 273.743 271.717 272.779 271.2 271.98C271.859 272.727 272.216 273.694 272.2 274.69C272.09 276.17 271.3 276.69 270.7 276.78C270.1 276.87 268.59 274.45 267.22 273.07Z" fill="#AF6152"/>
<path d="M268.09 277.25C268.56 277.75 269.31 278.31 270.63 279.65C271.4 280.43 271.86 280.95 272.4 280.65C272.766 280.238 272.997 279.724 273.061 279.177C273.126 278.629 273.021 278.075 272.76 277.59C272.393 276.967 271.953 276.39 271.45 275.87L271.82 275.47C272.651 276.259 273.278 277.236 273.65 278.32C274.02 279.79 273.18 281.44 272.42 281.32C271.66 281.2 271.26 280.78 270.21 279.63C269.16 278.48 268.09 277.25 268.09 277.25Z" fill="#AF6152"/>
<path d="M272 281C272.27 281.35 272.46 282.33 271.82 282.65C271.62 282.74 271.404 282.786 271.185 282.786C270.966 282.786 270.75 282.74 270.55 282.65C270.738 282.85 270.983 282.986 271.252 283.039C271.521 283.093 271.8 283.062 272.05 282.95C272.83 282.56 272.84 281.58 272.66 280.84L272 281Z" fill="#AF6152"/>
<path d="M416.07 303.71C414.72 283.99 414.77 275.47 412.82 269.01C409.82 268.13 403.37 266.33 403.37 266.33C403.37 266.33 387.83 265.67 382.28 263.33L374.49 263.03C370.27 267.09 359.15 275.75 355.54 283.96C353.13 289.45 353.19 297.52 359.78 302.96C359.819 307.397 360.153 311.827 360.78 316.22C360.78 316.22 358.78 322.51 356.26 328.69C357.2 338.39 371.35 345.69 388.62 350.34C407.16 355.34 418.5 347.86 418.5 347.86C418.5 347.86 417.41 323.25 416.07 303.71Z" fill="#00BFB4"/>
<path opacity="0.6" d="M416.07 303.71C414.72 283.99 414.77 275.47 412.82 269.01C409.82 268.13 403.37 266.33 403.37 266.33C403.37 266.33 387.83 265.67 382.28 263.33L374.49 263.03C370.27 267.09 359.15 275.75 355.54 283.96C353.13 289.45 353.19 297.52 359.78 302.96C359.819 307.397 360.153 311.827 360.78 316.22C360.78 316.22 358.78 322.51 356.26 328.69C357.2 338.39 371.35 345.69 388.62 350.34C407.16 355.34 418.5 347.86 418.5 347.86C418.5 347.86 417.41 323.25 416.07 303.71Z" fill="white"/>
<path opacity="0.3" d="M375.37 306.47C375.37 306.47 380.04 312.75 389.87 312.06C400.01 311.35 402.33 303.06 402.33 303.06C402.33 303.06 402.33 314.06 390.18 314.89C387.14 315.218 384.074 314.581 381.416 313.07C378.758 311.559 376.643 309.25 375.37 306.47Z" fill="#00BFB4"/>
<path d="M387 361.14V362.28C387.002 362.847 386.854 363.405 386.571 363.896C386.289 364.388 385.881 364.796 385.39 365.08L354.61 382.8C354.12 383.082 353.565 383.23 353 383.23C352.435 383.23 351.88 383.082 351.39 382.8L294.91 350.19C294.418 349.907 294.009 349.499 293.724 349.007C293.44 348.516 293.29 347.958 293.29 347.39V346.61L353 381.08L387 361.14Z" fill="#EBEBEB"/>
<path d="M293.29 346.61L326.78 327.27C327.072 327.102 327.403 327.014 327.74 327.014C328.077 327.014 328.408 327.102 328.7 327.27L386.8 360.82C386.867 360.856 386.923 360.909 386.962 360.974C387.001 361.04 387.021 361.114 387.021 361.19C387.021 361.266 387.001 361.34 386.962 361.406C386.923 361.471 386.867 361.524 386.8 361.56L353 381.08L293.29 346.61Z" fill="#FAFAFA"/>
<path d="M353.31 378.24L371.37 367.82L318.55 337.33L300.4 347.69L353.31 378.24Z" fill="#E0E0E0"/>
<path d="M362.18 349.26L361.85 349.45L353 354.56L337.25 345.47L336.93 345.28L346.11 339.98L362.18 349.26Z" fill="#E0E0E0"/>
<path d="M361.85 349.45L353 354.56L337.25 345.47L346.11 340.36L361.85 349.45Z" fill="#E6E6E6"/>
<path d="M353 381.08V383.23C352.435 383.233 351.879 383.085 351.39 382.8L294.91 350.19C294.418 349.907 294.009 349.499 293.724 349.007C293.44 348.516 293.29 347.958 293.29 347.39V346.61L353 381.08Z" fill="#EBEBEB"/>
<g style="mix-blend-mode:multiply" opacity="0.5">
<path d="M353 381.08V383.23C352.435 383.233 351.879 383.085 351.39 382.8L294.91 350.19C294.418 349.907 294.009 349.499 293.724 349.007C293.44 348.516 293.29 347.958 293.29 347.39V346.61L353 381.08Z" fill="#E0E0E0"/>
</g>
<path d="M352.09 381.56C351.556 381.766 350.982 381.85 350.41 381.805C349.839 381.76 349.286 381.587 348.79 381.3L292.56 348.84C292.071 348.558 291.651 348.172 291.33 347.708C291.008 347.245 290.793 346.716 290.7 346.16L284.54 309.45C284.508 309.241 284.492 309.031 284.49 308.82C284.491 307.799 284.898 306.821 285.62 306.1L344.06 339.85C344.423 340.06 344.734 340.349 344.971 340.695C345.208 341.041 345.365 341.436 345.43 341.85L352.09 381.56Z" fill="#00BFB4"/>
<g opacity="0.7">
<path d="M352.09 381.56C351.556 381.766 350.982 381.85 350.41 381.805C349.839 381.76 349.286 381.587 348.79 381.3L292.56 348.84C292.071 348.558 291.651 348.172 291.33 347.708C291.008 347.245 290.793 346.716 290.7 346.16L284.54 309.45C284.508 309.241 284.492 309.031 284.49 308.82C284.491 307.799 284.898 306.821 285.62 306.1L344.06 339.85C344.423 340.06 344.734 340.349 344.971 340.695C345.208 341.041 345.365 341.436 345.43 341.85L352.09 381.56Z" fill="white"/>
</g>
<path d="M353 381.08L352.61 381.3C352.442 381.397 352.268 381.483 352.09 381.56L345.43 341.83C345.365 341.416 345.208 341.021 344.971 340.675C344.734 340.329 344.423 340.041 344.06 339.83L285.62 306.1C285.858 305.876 286.12 305.678 286.4 305.51L345 339.32C345.363 339.53 345.675 339.819 345.912 340.165C346.149 340.511 346.305 340.906 346.37 341.32L353 381.08Z" fill="#FAFAFA"/>
<path d="M320.42 347.67C320 345.21 317.47 341.94 314.75 340.37C312.03 338.8 310.16 339.53 310.57 341.98C310.98 344.43 313.52 347.71 316.24 349.28C318.96 350.85 320.83 350.12 320.42 347.67Z" fill="#00BFB4"/>
<path d="M433.32 325C432.72 321 426.88 284.3 425.14 279.34C423.26 273.98 421.21 271.47 412.89 269.03C405.13 274.34 406.66 291.83 407.66 295.85L413.72 324.72C413.72 324.72 405.08 328.83 398.11 332.05C392.11 334.79 387.97 337.92 380.99 338.61C374.01 339.3 372.69 338.92 366.71 341.52C364.624 342.491 362.618 343.624 360.71 344.91C358.6 347.13 356 348.83 353.71 350.91C352 352.05 353.55 352.91 354.89 352.98C358.6 353.11 361.6 350.24 364.94 349.07C364.539 350.257 364.32 351.498 364.29 352.75C364.29 353.75 364.02 354.96 364.88 355.75C365.523 356.158 366.224 356.465 366.96 356.66C366.961 357.032 367.104 357.39 367.36 357.66C367.864 358.048 368.498 358.227 369.13 358.16C369.465 358.135 369.799 358.092 370.13 358.03C370.169 358.348 370.292 358.651 370.485 358.907C370.678 359.163 370.935 359.364 371.23 359.49C372.606 359.953 374.082 360.032 375.5 359.72C375.71 359.64 377.31 358.82 377.78 358.58C378.383 358.375 378.931 358.032 379.38 357.58C379.73 357.06 378.78 355.84 377.96 355.69C377.053 355.587 376.135 355.628 375.24 355.81C375.62 355.077 375.903 354.297 376.08 353.49C376.85 352.32 382.17 353.63 386.94 352.9C390.53 352.35 392.69 349.69 394.31 348.99C405.07 344.32 419.31 341.49 426.31 339.41C435.06 336.78 434.44 332.36 433.32 325Z" fill="#C8856A"/>
<path d="M365 349C365.258 347.268 365.946 345.628 367 344.23C365.14 344.86 363.79 349.49 363.79 349.49L365 349Z" fill="#AF6152"/>
<path d="M367 356.58C366.866 355.584 366.866 354.576 367 353.58C367.087 352.599 367.234 351.623 367.44 350.66C367.611 349.68 367.897 348.724 368.29 347.81C368.667 346.881 369.298 346.078 370.11 345.49C369.765 345.831 369.484 346.23 369.28 346.67C369.048 347.088 368.854 347.527 368.7 347.98C368.395 348.895 368.158 349.831 367.99 350.78C367.79 351.73 367.61 352.69 367.43 353.64C367.225 354.61 367.081 355.592 367 356.58Z" fill="#AF6152"/>
<path d="M370.18 357.92C370.095 356.951 370.115 355.975 370.24 355.01C370.339 354.047 370.503 353.091 370.73 352.15C370.941 351.204 371.222 350.275 371.57 349.37C371.857 348.434 372.385 347.589 373.1 346.92C372.8 347.287 372.572 347.708 372.43 348.16C372.257 348.6 372.107 349.05 371.98 349.51C371.73 350.43 371.49 351.35 371.28 352.28C370.85 354.14 370.44 356 370.18 357.92Z" fill="#AF6152"/>
<path d="M378 355.63C377.595 355.632 377.193 355.682 376.8 355.78C376.41 355.86 376.14 356.05 375.65 356.2L375.85 355.89C375.869 356.085 375.838 356.281 375.76 356.46C375.697 356.624 375.601 356.773 375.48 356.9C375.258 357.149 374.971 357.329 374.65 357.42C374.847 357.193 375.018 356.945 375.16 356.68C375.213 356.561 375.254 356.437 375.28 356.31C375.292 356.2 375.292 356.09 375.28 355.98V355.75L375.51 355.67C375.875 355.534 376.26 355.459 376.65 355.45C377.108 355.379 377.577 355.441 378 355.63Z" fill="#AF6152"/>
<path d="M404.58 212.45C411.95 210.16 419.25 219.02 418.37 226.16C421.56 228.6 423.37 237.25 419.21 241.54C421.63 245.99 418.1 254.7 412.02 255.54C412.9 259.4 407.85 265.09 401.71 265.35C393.48 265.7 395.52 262.78 397.16 253.73C398 249.3 404.58 212.45 404.58 212.45Z" fill="#263238"/>
<path d="M378.48 277C371.33 275.85 374.7 271.36 379.8 266.16L391.08 263L400.28 262.05C400.22 265.19 402.11 265.85 403.92 266.54C399.05 271.59 387 278.34 378.48 277Z" fill="#C8856A"/>
<path d="M381.83 265.55C378.83 272.46 373.18 272.24 370.99 271.82C370.1 276.15 366.46 278.28 362.69 279.82C363.54 284.11 360.42 286.92 357.33 289.22C357.856 290.008 358.198 290.905 358.329 291.843C358.461 292.782 358.379 293.738 358.09 294.64C357.51 297.03 353.81 301.21 354.51 304.04C350.3 299.56 350.32 293.48 353.93 288.69C353.23 284.49 352.73 280.31 356.63 277.69C355.63 272.29 358.23 268.32 363.68 267.41C363.8 263.26 366.51 260.8 371.08 260.08C370.08 252.86 377.47 249.99 382.08 249.85C382.02 252.99 382.5 259.72 382.36 262.85L381.83 265.55Z" fill="#263238"/>
<path d="M374.39 207.27C383.44 202.96 398.14 204.82 400.34 211.27C404.27 210.65 407.34 213.01 409.91 217.97C411.489 221.217 412.358 224.763 412.46 228.371C412.562 231.98 411.894 235.569 410.5 238.9C408.314 244.691 404.864 249.921 400.4 254.21L400.14 243.56C399.238 243.499 398.348 243.324 397.49 243.04C392.77 241.41 377.24 234.81 373.61 228.48C373.61 228.48 366.48 232.3 366.47 232.29C359 225.25 362 213.16 374.39 207.27Z" fill="#37474F"/>
<path d="M367.67 223.51C367.19 225.28 365.67 229.17 365.92 241.29C366.16 252.84 369.63 256.54 372.27 258.06C374.27 259.22 378.57 259.65 381.85 259.34V269.19C381.85 269.19 381.17 270.91 388.26 271.49C399.02 272.38 400.26 266.73 400.26 266.73L400.54 249.23C400.54 249.23 403.43 251.08 406.76 248.29C408.76 246.63 410.4 241.63 407.91 238.98C405.42 236.33 402.74 237.07 400.54 240.8C400.315 241.108 400.007 241.346 399.651 241.485C399.295 241.623 398.907 241.657 398.533 241.583C398.159 241.508 397.814 241.328 397.538 241.063C397.263 240.799 397.069 240.461 396.98 240.09C395.98 235.7 397.35 231.15 391.33 228.57C386.431 226.707 382.236 223.362 379.33 219C375.29 222.13 370 223.87 367.67 223.51Z" fill="#C8856A"/>
<path d="M386.4 236.48C386.365 236.999 386.143 237.487 385.775 237.855C385.407 238.223 384.919 238.445 384.4 238.48C384.158 238.48 383.919 238.432 383.696 238.34C383.473 238.247 383.27 238.112 383.099 237.941C382.928 237.77 382.793 237.567 382.7 237.344C382.608 237.121 382.56 236.882 382.56 236.64C382.56 236.398 382.608 236.159 382.7 235.936C382.793 235.713 382.928 235.51 383.099 235.339C383.27 235.168 383.473 235.033 383.696 234.94C383.919 234.848 384.158 234.8 384.4 234.8C384.887 234.761 385.37 234.915 385.745 235.23C386.119 235.544 386.354 235.993 386.4 236.48Z" fill="#263238"/>
<path d="M372.77 235.92C372.77 236.408 372.576 236.876 372.231 237.221C371.886 237.566 371.418 237.76 370.93 237.76C370.397 237.719 369.897 237.488 369.519 237.111C369.142 236.733 368.911 236.233 368.87 235.7C368.87 234.7 369.92 234.09 370.93 234.09C371.171 234.089 371.41 234.135 371.633 234.226C371.857 234.318 372.059 234.452 372.23 234.622C372.401 234.793 372.537 234.995 372.63 235.217C372.722 235.44 372.77 235.679 372.77 235.92Z" fill="#263238"/>
<path d="M383.37 247.56L377.76 249C377.839 249.374 377.992 249.729 378.211 250.042C378.429 250.356 378.709 250.623 379.033 250.826C379.356 251.029 379.718 251.166 380.095 251.226C380.473 251.287 380.859 251.271 381.23 251.18C381.99 250.978 382.64 250.485 383.04 249.808C383.441 249.131 383.559 248.324 383.37 247.56Z" fill="#AF6152"/>
<path d="M383 248.7C382.253 248.609 381.5 248.816 380.905 249.277C380.31 249.737 379.92 250.414 379.82 251.16C380.288 251.285 380.782 251.285 381.25 251.16C381.799 251.009 382.293 250.705 382.676 250.284C383.058 249.862 383.313 249.341 383.41 248.78C383.276 248.743 383.139 248.716 383 248.7Z" fill="#FFA8A7"/>
<path d="M368.18 232.59L371.98 231.28C371.906 231.029 371.782 230.795 371.616 230.592C371.449 230.39 371.243 230.223 371.011 230.103C370.778 229.982 370.523 229.91 370.262 229.891C370.001 229.871 369.738 229.905 369.49 229.99C368.981 230.174 368.562 230.546 368.318 231.03C368.075 231.513 368.025 232.071 368.18 232.59Z" fill="#263238"/>
<path d="M384.37 231.31L387.74 233.5C387.895 233.289 388.005 233.048 388.063 232.792C388.122 232.537 388.127 232.272 388.079 232.015C388.032 231.757 387.932 231.512 387.785 231.295C387.639 231.077 387.45 230.892 387.23 230.75C386.773 230.458 386.22 230.353 385.688 230.457C385.155 230.561 384.683 230.867 384.37 231.31Z" fill="#263238"/>
<path d="M378.82 233.66L377.57 245.59L371.33 243.5C373.29 240.16 375.77 236 378.82 233.66Z" fill="#AF6152"/>
<path d="M381.85 259.34C386.42 258.49 394.96 256.42 396.45 249.86C396.45 249.86 396.85 253.37 393.23 256.91C389.45 260.62 381.85 262 381.85 262V259.34Z" fill="#AF6152"/>
<path d="M388.74 189.47L392 183.34L389.38 175.76V171.12L397.38 175.76V180.4L393.92 186.4C393.867 186.492 393.786 186.565 393.69 186.61L388.74 189.47Z" fill="#00BFB4"/>
<path opacity="0.2" d="M388.74 189.47L392 183.34L389.38 175.76V171.12L397.38 175.76V180.4L393.92 186.4C393.867 186.492 393.786 186.565 393.69 186.61L388.74 189.47Z" fill="black"/>
<path d="M370.76 125.63C370.805 124.793 371.047 123.978 371.466 123.252C371.885 122.526 372.468 121.909 373.17 121.45L375.17 120.32C375.916 119.945 376.74 119.75 377.575 119.75C378.41 119.75 379.234 119.945 379.98 120.32L410 137.71C410.7 138.168 411.283 138.784 411.702 139.508C412.12 140.232 412.363 141.045 412.41 141.88V184.27C412.363 185.105 412.12 185.918 411.702 186.642C411.283 187.366 410.7 187.982 410 188.44L408 189.57C407.253 189.949 406.428 190.147 405.59 190.147C404.752 190.147 403.927 189.949 403.18 189.57L392.31 183.32L388.87 189.32C388.819 189.403 388.746 189.47 388.659 189.513C388.571 189.557 388.474 189.575 388.377 189.565C388.28 189.556 388.188 189.519 388.11 189.46C388.033 189.401 387.974 189.321 387.94 189.23L384.3 178.72L373.12 172.21C372.419 171.753 371.835 171.138 371.416 170.413C370.997 169.689 370.755 168.876 370.71 168.04L370.76 125.63Z" fill="#00BFB4"/>
<path opacity="0.2" d="M412.42 184.27C412.373 185.105 412.13 185.918 411.712 186.642C411.293 187.366 410.71 187.982 410.01 188.44L408.01 189.57C407.33 189.91 406.585 190.103 405.825 190.135C405.065 190.168 404.307 190.04 403.6 189.76C404.74 190.19 405.6 189.55 405.6 188.18V145.79C405.569 144.954 405.328 144.139 404.9 143.42L411.67 139.51C412.108 140.225 412.352 141.042 412.38 141.88L412.42 184.27Z" fill="black"/>
<path opacity="0.3" d="M370.84 124.94C371.12 123.94 372.05 123.59 373.16 124.23L403.23 141.63C403.945 142.066 404.531 142.684 404.93 143.42L411.7 139.51C411.302 138.776 410.72 138.159 410.01 137.72L380 120.32C379.252 119.945 378.427 119.75 377.59 119.75C376.753 119.75 375.928 119.945 375.18 120.32L373.18 121.46C372.575 121.852 372.056 122.362 371.653 122.96C371.251 123.558 370.974 124.232 370.84 124.94Z" fill="white"/>
<path d="M390.11 166.25V155.285V144.32L386.1 142V164.46V165L387 165.5L390.11 167.5V166.25Z" fill="#FAFAFA"/>
<path d="M397.729 157.735L388 152.677L378.271 147.619L378.271 152L394.291 160.467L398.273 162.568L398.478 161.023L398.838 158.311L397.729 157.735Z" fill="#FAFAFA"/>
</svg>
