<svg width="100" height="100" viewBox="0 0 100 100" fill="none" xmlns="http://www.w3.org/2000/svg">
<path d="M38.7297 73.0999C52.9105 73.0999 64.4062 61.6042 64.4062 47.4234C64.4062 33.2426 52.9105 21.7468 38.7297 21.7468C24.5489 21.7468 13.0531 33.2426 13.0531 47.4234C13.0531 61.6042 24.5489 73.0999 38.7297 73.0999Z" fill="#001716"/>
<path d="M61.2703 99.4C75.4511 99.4 86.9469 87.9042 86.9469 73.7234C86.9469 59.5427 75.4511 48.0469 61.2703 48.0469C47.0895 48.0469 35.5938 59.5427 35.5938 73.7234C35.5938 87.9042 47.0895 99.4 61.2703 99.4Z" fill="#00BFB4"/>
<path d="M32.7953 82.1797L31.4141 83.5219L31.1203 84.8891L31.9672 85.9312L35.1906 86.3547L34.5391 84.2375L32.7156 83.0656L32.7953 82.1797Z" fill="white"/>
<path d="M32.4688 86.1719C32.4688 86.1719 31.8813 85.7704 31.5656 85.1594C31.25 84.5485 31.6203 83.3376 32.1563 82.9547C32.6922 82.5704 32.8219 82.1907 33.6609 82.3094C34.5 82.4282 34.7641 82.6922 35.0156 82.3204C35.2672 81.9501 35.7969 81.511 35.7969 81.511L34.6141 79.0157L33.7766 76.7297L32.3797 76.9219L27.5094 80.2219L22.5766 83.6813L21.2797 85.0844L21.5734 86.5297L22.7297 86.7422L24.9906 85.4407L27.3344 85.9188L31.6391 86.7001L32.4688 86.1719Z" fill="#00BFB4"/>
<path d="M28.3703 81.3311C28.3703 81.3311 29.0672 81.3671 29.5859 81.9312C30.1062 82.4952 30.2547 82.7187 30.0281 83.5718C29.8016 84.4233 29.4031 85.8577 29.4031 85.8577L30.1328 86.1655C30.1328 86.1655 30.6062 84.4468 31.05 83.7437C31.4922 83.0405 31.5812 82.603 32.7953 82.1812C34.0094 81.7593 35.6281 81.3296 35.6281 81.3296L35.2734 80.1296C35.2734 80.1296 34.4656 80.8108 33.2469 81.0046C32.0281 81.1983 30.9828 81.2999 30.5109 80.939C30.0375 80.5796 29.5062 79.6421 29.5062 79.6421L27.8297 80.7812L28.3703 81.3311Z" fill="#001716"/>
<path d="M29.8844 78.4766L35.0266 76.5891L40.4312 82.0579L42.5797 83.4891L44.1422 82.3172L44.4672 79.2579L59.1812 78.2157L58.0734 80.2344L56.8375 82.6438L55.2094 89.4141L51.6937 90.3251L50.3922 90.4563L49.2844 93.3204L45.5734 95.7297L40.8219 92.4094L34.4406 84.7266L29.8844 78.4766ZM44.9562 33.3907L42.4484 29.5829L41.375 23.3829L41.2766 21.136L45.6234 20.9407L49.3344 24.3094L52.3125 26.8485L53.3859 29.2422L54.2656 30.7063L60.8578 29.925L75.9781 23.9844L82.1625 20.7297L84.1812 20.3391L86.0031 21.6079C86.0031 21.6079 86.525 22.6829 85.3531 23.2688C84.1812 23.8547 82.2594 24.5375 82.2594 24.5375L80.1125 24.8625L77.7031 26.1L73.6672 28.7688L68.8812 31.7313L62.2406 34.011L60.1578 35.7688L50.6516 37.9813L45.8672 37.2001L44.175 34.8563L44.9562 33.3907Z" fill="#EDB29F"/>
<path d="M45.6391 62.136L48.5031 63.3719L56.8375 62.3954L59.3109 63.0469L59.6359 69.2313L59.05 76.4579L59.1484 79.225L57 80.7563C57 80.7563 52.3438 81.9282 49.35 81.6016C46.3563 81.275 44.1578 80.3157 44.1578 80.3157L44.2063 76.1329L43.6531 69.4266L44.5969 64.1532L45.6391 62.136Z" fill="#32313C"/>
<path d="M35.7109 40.6189C35.7109 40.6189 36.3937 40.6673 38.2016 42.572C40.0094 44.4767 40.2016 45.1595 40.2016 45.1595L42.7906 43.6454L43.5234 44.0861L44.3531 46.5267L47.0391 50.7751L48.3578 55.6579L46.9406 60.1017L45.1344 62.6892C45.1344 62.6892 45.7203 64.7392 48.7484 64.7392C51.7766 64.7392 60.9547 62.0548 60.9547 62.0548L63.0547 60.3939L61.5406 55.3157L60.3203 48.4314L59.6359 37.347L60.8734 36.4845L61.2953 34.3689C61.2953 34.3689 62.0453 32.1876 61.3938 31.0814C60.7437 29.9735 59.8969 30.136 59.8969 30.136L53.3219 30.722L52.0516 30.9501L51.5641 32.5782C51.5641 32.5782 52.2141 33.0657 52.3766 33.5876C52.5406 34.1079 52.6719 34.7595 52.2859 35.0548C51.9 35.3485 51.7891 35.6235 51.7891 35.6235L51.55 36.3595L50.6312 36.5626C50.6312 36.5626 50.1344 35.772 49.9141 35.7345C49.6953 35.6985 48.3891 36.011 48.0953 35.9548C47.8 35.9001 46.4953 35.8454 45.9078 35.3298C45.3203 34.8142 44.8406 34.522 44.8406 34.522L42.3188 35.7689L39.975 36.6142L37.1437 39.8048L35.7109 40.6189Z" fill="#00BFB4"/>
<path d="M44.2469 84.5282L42.7 84.3095C42.7 84.3095 42.8969 82.9313 43.3875 80.1798C43.8094 77.8235 43.6781 74.9532 43.6485 74.4017C42.8318 71.8455 42.6585 69.1273 43.144 66.4881C43.6294 63.8489 44.7585 61.3703 46.4313 59.272L47.6516 60.2501C45.5583 62.8492 44.4229 66.0894 44.436 69.4267C44.436 70.9985 44.6813 72.5407 45.1625 74.011L45.2016 74.2032C45.211 74.3438 45.425 77.6563 44.9266 80.4532C44.4422 83.161 44.2485 84.5204 44.2469 84.5282Z" fill="#231F20"/>
<path d="M46.3547 21.2344C46.3547 21.2344 45.6703 22.55 44.6469 23.3329C43.8156 23.9688 42.1391 24.8485 43.0844 28.3141C43.6703 30.4625 45.1344 30.6094 44.9875 32.5625C44.9625 32.9063 44.9563 33.3907 44.9563 33.3907C44.9563 33.3907 43.5719 33.7813 43.0844 33.4657C42.5969 33.15 42.4 32.586 42.2047 32.2938C42.0094 32.0016 41.0094 32.4391 41.0578 32.8297C41.1063 33.2204 41.5453 34.6125 41.8391 34.711C42.1328 34.8094 41.9609 35.9297 41.9609 35.9297L39.4453 36.6875L38.3969 38.7875L37.225 36.5172L39.225 32.0735L39.7391 30.7797L38.9828 27.386L39.6172 23.675L41.7656 21.0875L45.6234 20.9407L46.3547 21.2344Z" fill="#30384C"/>
<path d="M37.011 39.336C36.4547 38.6063 36.45 37.2454 36.9953 34.4767C37.3063 32.8985 38.1985 31.9626 38.786 31.3454C38.9375 31.186 39.1453 30.9673 39.186 30.8845C39.1922 30.6501 38.886 29.1735 38.5813 27.9954C38.2936 27.3067 38.149 26.5667 38.1563 25.8204C38.1575 24.269 38.7741 22.7814 39.8709 21.6841C40.9676 20.5868 42.4549 19.9694 44.0063 19.9673C45.1625 19.9673 46.2797 20.3032 47.236 20.9392C47.8985 21.5595 52.7703 26.2563 53.3766 27.0642C53.761 27.5782 54.9328 29.1423 53.4016 30.6735L53.1203 30.9548C52.5422 31.5251 51.9969 32.0642 52.0172 32.3642C52.0547 32.9063 52.2953 33.9642 52.386 34.3267L50.8703 34.7048C50.8547 34.647 50.511 33.261 50.4578 32.4673C50.3906 31.4548 51.1453 30.7079 52.0203 29.8423L52.2969 29.5688C52.7016 29.1642 52.7657 28.8563 52.125 28.0017C51.7282 27.4704 48.3172 24.1313 46.261 22.1532C45.6735 21.7767 44.8547 21.5298 44.0063 21.5298C43.2983 21.531 42.6015 21.7072 41.9781 22.0428C41.3547 22.3784 40.824 22.8629 40.4331 23.4533C40.0423 24.0436 39.8035 24.7215 39.738 25.4264C39.6726 26.1314 39.7824 26.8416 40.0578 27.4938C40.261 28.2454 40.7922 30.3923 40.7219 31.1251C40.6688 31.6329 40.3219 32.0001 39.9172 32.422C39.3985 32.9688 38.7516 33.647 38.5266 34.7798C37.9485 37.7329 38.1985 38.3048 38.2531 38.3892L37.011 39.336Z" fill="#231F20"/>
<path d="M42.3187 35.7687L41.6031 37.5905L42.5141 39.3812L43.8156 35.4749L42.3187 35.7687ZM47.6734 48.089L45.7687 46.3312C45.7687 46.3312 46.3547 42.6687 47.3312 41.6437C48.3078 40.6187 52.3625 38.6171 53.5344 37.7374C54.7062 36.8577 58.4156 35.5405 58.4156 35.5405L60.7594 34.564L59.6359 37.3468L61.0031 41.9374L60.0766 48.1374L61.4437 56.2937C61.4437 56.2937 61.7359 56.0968 59.3437 53.314C56.9516 50.5311 53.4844 49.4077 51.6781 48.7233C49.8703 48.0405 47.6734 48.089 47.6734 48.089Z" fill="#001716"/>
<path d="M52.3656 31.7999C52.3719 31.7921 52.4234 31.7265 52.4047 31.5562L50.8516 31.7124C50.8404 31.5339 50.8671 31.3551 50.9298 31.1876C50.9926 31.0201 51.0899 30.8678 51.2156 30.7405C51.7469 30.1624 52.7672 29.9015 54.2781 29.9249C56.9063 29.9952 62.3375 29.0187 63.5563 28.6437C64.1891 28.4468 66.6859 27.2999 68.8891 26.2858C70.9797 25.3249 72.9531 24.4171 73.8578 24.0687C75.3813 23.4827 78.9438 21.4843 80.4672 20.6312L81.1391 20.253C81.8781 19.8562 83.375 19.5249 83.7078 19.5249C84.1891 19.5249 86.1141 20.6108 86.3219 21.4358C86.4438 21.9233 86.3375 22.7671 86.2875 23.1077L84.7422 22.8765C84.7953 22.5233 84.8234 22.1077 84.8141 21.903C84.5859 21.6749 83.9281 21.253 83.6156 21.1015C83.2719 21.164 82.3094 21.3983 81.8813 21.6296L81.2297 21.9921C79.6797 22.8624 76.0484 24.9015 74.4188 25.528C73.5609 25.8577 71.5188 26.7983 69.5422 27.7062C67.0766 28.839 64.7484 29.9093 64.0172 30.1343C62.6938 30.5421 57.0797 31.5765 54.2516 31.4874C52.6813 31.4608 52.3688 31.7968 52.3656 31.7999Z" fill="#231F20"/>
<path d="M51.15 91.2483C50.7516 91.2483 50.4469 91.2389 50.3656 91.2374L50.4188 89.6749C51.1438 89.703 52.4922 89.6905 53.0078 89.5655C53.5203 89.4436 53.8359 89.203 54.5969 88.0936C55.0125 87.4874 55.5828 84.1108 55.8578 82.4874C56.2156 80.378 56.2766 80.0202 56.8531 79.9796C57.2469 79.7921 58.2984 79.1046 58.475 78.8265C58.5625 78.5686 58.4438 77.4046 58.3969 76.9077C58.3578 76.5983 58.3375 76.2868 58.3359 75.9749L58.3891 75.4061C58.5203 74.0061 58.8734 70.2921 58.9516 67.7749C59.0453 64.8843 58.5031 62.8343 58.4984 62.814L58.3047 62.0921L59.0172 61.8655C59.7989 61.6072 60.5657 61.3056 61.3141 60.9624C61.8406 60.7186 62.1 60.4624 62.2172 60.3061C61.7594 58.6655 59.6313 51.0077 59.2328 49.1858C58.9563 47.9296 59.2828 46.9218 59.6 45.9468C59.8734 45.103 60.1578 44.228 60.1578 43.0265C60.1578 40.503 58.5063 37.9093 58.4906 37.8827L58.0063 37.128L59.9594 36.2265L60.2516 34.4733L60.6203 34.2968C60.6203 34.2968 64.4172 32.4968 65.5859 31.9124C66.3313 31.5405 67.2141 31.3655 67.9922 31.2155C68.5266 31.1093 69.0328 31.0108 69.3125 30.8796C69.7578 30.6702 70.5688 30.0733 71.7984 29.1702C72.6031 28.5812 73.5922 27.8546 74.8094 26.9936C77.8641 24.8312 78.6563 24.5812 80.1563 24.2202C81.8078 23.8218 81.9641 23.8218 82.0469 23.8218L82.125 25.3796C82.05 25.3905 81.75 25.4437 80.6688 25.7046C79.275 26.039 78.65 26.189 75.7125 28.2671C74.7095 28.9792 73.7131 29.7006 72.7234 30.4312C71.375 31.4202 70.5594 32.0187 69.9781 32.2921C69.5219 32.5077 68.9234 32.6249 68.2922 32.7483C67.6125 32.8812 66.8391 33.0327 66.2844 33.3108C65.3313 33.7858 62.6438 35.0671 61.6578 35.5343L61.3641 37.2968L60.2484 37.8124C60.8156 38.889 61.7203 40.9374 61.7203 43.0265C61.7203 44.4765 61.3828 45.514 61.0859 46.4296C60.7891 47.3468 60.5734 48.0077 60.7578 48.8499C61.1875 50.8077 63.7797 60.0905 63.8063 60.1843L63.8625 60.3858L63.8109 60.5874C63.7641 60.7655 63.4641 61.6905 61.9703 62.3811C61.3794 62.6531 60.7773 62.9002 60.1656 63.1218C60.3391 64.0218 60.5828 65.7061 60.5156 67.8249C60.4328 70.3921 60.0781 74.1405 59.9438 75.553L59.8969 76.0936C59.8906 76.2093 59.9203 76.453 59.95 76.7515C60.0828 78.078 60.1531 79.0608 59.8203 79.6218C59.5328 80.1155 58.4344 80.9358 57.6484 81.3233C57.5844 81.6577 57.4875 82.2296 57.3984 82.7483C56.9047 85.6702 56.45 88.1546 55.8859 88.9764C55.0484 90.1983 54.4594 90.8249 53.3719 91.0858C52.8094 91.2218 51.8406 91.2483 51.15 91.2483Z" fill="#231F20"/>
<path d="M32.833 41.2747C34.1159 40.141 33.679 37.5508 31.8572 35.4893C30.0354 33.4279 27.5186 32.6759 26.2357 33.8097C24.9528 34.9434 25.3897 37.5337 27.2115 39.5951C29.0333 41.6565 31.5501 42.4085 32.833 41.2747Z" fill="#EFFFFF"/>
<path d="M31.3141 42.5858C30.8985 42.5858 30.4578 42.5186 29.9985 42.3827C28.8 42.0233 27.6016 41.2171 26.625 40.1124C25.6485 39.0077 24.9969 37.7202 24.7875 36.4858C24.5578 35.1171 24.8891 33.9593 25.7188 33.2249C27.3485 31.7811 30.3047 32.553 32.4438 34.9718C33.4203 36.0765 34.0719 37.364 34.2797 38.5983C34.511 39.9671 34.1797 41.1249 33.35 41.8593C32.8047 42.3405 32.1063 42.5858 31.3141 42.5858ZM27.7516 34.064C27.3547 34.064 27.0094 34.1702 26.7531 34.3968C26.2 34.8858 26.25 35.753 26.3297 36.2249C26.4875 37.1624 27.0219 38.2015 27.7985 39.078C28.5703 39.953 29.536 40.6124 30.4469 40.8843C30.9047 41.0233 31.7594 41.1765 32.3156 40.689C32.8688 40.1983 32.8188 39.3311 32.7391 38.8608C32.5813 37.9233 32.0469 36.8827 31.2703 36.0061C30.2 34.7936 28.7969 34.064 27.7516 34.064Z" fill="#231F20"/>
<path d="M41.5703 44.2813L37.1437 39.8048L33.464 41.8876L32.1469 43.597L30.7797 44.3782L28.1906 40.6673L26.8234 36.1751L25.1156 30.3157L24.1875 29.486C24.1875 29.486 24.2359 29.3391 23.5031 28.997C22.7703 28.6548 20.4281 28.5095 20.2328 29.3407C20.0375 30.172 19.7437 30.8532 20.7687 31.8298C21.7937 32.8063 22.7219 33.7345 22.7219 33.7345L23.7484 39.4954L25.9453 46.6251L27.1484 48.3985L29.6078 50.4813L33.8547 48.6751L38.2015 46.6251L41.5703 44.2813Z" fill="#EDB29F"/>
<path d="M18.3328 26.5923L19.4938 25.5454L23.0578 29.5017L21.8969 30.5485L18.3328 26.5923Z" fill="#231F20"/>
<path d="M47.6515 60.2546L46.4375 59.2703C47.3594 58.1344 47.8596 56.7144 47.8531 55.2515C47.8531 53.2796 47.025 51.4062 45.6406 50.239C44.225 49.0593 43.1015 46.7531 42.7812 44.5296C41.85 45.025 40.4297 45.8265 39.1656 46.75C38.339 47.3546 34.4859 49.3656 32.0875 50.0625C30.2547 50.5921 28.7984 50.7437 27.7531 50.4937C26.7797 50.2656 26.4562 48.9421 26.3828 48.5437C26.3812 48.5437 26.0047 47.0328 25.0828 45.5171C24.2328 44.1187 23.4625 40.5499 22.7547 36.9L22.6078 36.1484C22.4448 35.3115 22.2117 34.4899 21.9109 33.6921L19.6765 32.5234L19.3797 29.5281L20.3656 27.9343L21.6937 28.7578L20.9875 29.8984L21.1469 31.5281L23.1265 32.564L23.2375 32.8078C23.2594 32.8546 23.7672 33.9859 24.139 35.8421L24.289 36.6031C24.6797 38.6234 25.5969 43.3546 26.4172 44.7046C27.0769 45.7991 27.5792 46.981 27.9094 48.2156C27.975 48.5531 28.125 48.9343 28.2187 49.0218C28.6453 49.1 29.6922 49.1296 31.6531 48.5593C33.8156 47.9328 37.525 46.0156 38.2453 45.489C40.4609 43.8687 43.0328 42.6484 43.1406 42.5984L44.2547 42.0718V43.3046C44.2547 45.4046 45.3047 47.9234 46.6453 49.0421C48.3797 50.5015 49.4156 52.8234 49.4156 55.2515C49.415 57.0715 48.7926 58.8367 47.6515 60.2546Z" fill="#231F20"/>
<path d="M27.8656 77.5329L30.2422 79.3548L34.8969 77.1423L33.6281 75.3845L30.6656 73.9517L28.3859 73.7563L27.3453 75.6767L27.8656 77.5329Z" fill="white"/>
<path d="M28.2812 77.4344C28.2812 77.4344 28.0125 76.775 28.0859 76.0906C28.1594 75.4063 29.1359 74.6031 29.7937 74.5781C30.4516 74.5531 30.7703 74.3094 31.4062 74.8719C32.0422 75.4344 32.1141 75.7984 32.5281 75.6281C32.9422 75.4578 33.6281 75.3844 33.6281 75.3844L34.0187 72.65L34.5797 70.2812L33.3094 69.6719L27.4266 69.7359L21.4047 69.8984L19.5484 70.3547L18.9953 71.7219L19.8422 72.5344L22.4453 72.6984L24.1391 74.3906L27.2953 77.4187L28.2812 77.4344Z" fill="#00BFB4"/>
<path d="M27.5313 71.136C27.5313 71.136 28.0938 71.5516 28.2156 72.3079C28.3375 73.0641 28.3375 73.3329 27.6781 73.9188C27.0188 74.5047 25.8969 75.4813 25.8969 75.4813L26.3344 76.1407C26.3344 76.1407 27.6781 74.9688 28.4359 74.6266C29.1938 74.2844 29.5094 73.9688 30.7547 74.286C32 74.6032 33.5875 75.1407 33.5875 75.1407L33.9531 73.9438C33.9531 73.9438 32.9031 74.0657 31.7813 73.5532C30.6594 73.0407 29.7297 72.5532 29.5344 71.9907C29.3391 71.4282 29.4125 70.3547 29.4125 70.3547L27.3859 70.3797L27.5313 71.136Z" fill="#001716"/>
<path d="M30.539 45.3812L28.6328 42.7359C27.4375 41.0796 26.1984 36.8453 25.3765 34.0421C25.0984 33.089 24.8734 32.3156 24.7219 31.9015C24.4103 31.0503 23.9286 30.2715 23.3062 29.6124L24.3844 28.4812C24.4312 28.5265 25.55 29.6031 26.1906 31.3671C26.3469 31.8015 26.5859 32.6078 26.8781 33.6046C27.6187 36.139 28.8609 40.3828 29.8984 41.8234L30.9765 43.3171C31.2422 43.1171 31.5672 42.8343 31.8719 42.4734C32.5469 41.6718 33.5078 41.1859 34.3562 40.7546C34.6453 40.6078 34.9265 40.4671 35.1812 40.3171C35.6375 40.0515 35.8469 39.8093 36.1125 39.5015C36.3344 39.2468 36.5844 38.9593 36.9797 38.6421C37.4828 38.239 38.4828 37.1546 39.0812 36.5062C39.425 36.1312 39.6922 35.8484 39.7859 35.7671C40.0031 35.5765 40.3406 35.4593 41.3797 35.1234L41.4812 35.089C41.1437 34.7517 40.8372 34.3846 40.5656 33.9921C40.2797 33.5734 40.1812 33.1093 40.2797 32.6515C40.4515 31.8484 41.1515 31.3796 41.2906 31.2937L41.7203 31.0281L43.8062 32.4468C43.9656 32.4625 44.1234 32.464 44.2703 32.4703C44.7937 32.4875 45.3859 32.5078 45.6547 33.0437C45.9812 33.6984 45.5203 34.8124 44.6484 35.4781C44.175 35.8374 43.1953 36.1734 41.864 36.6078C41.4172 36.7546 40.8578 36.9359 40.7281 37.0046C40.7312 37.0187 40.514 37.2578 40.2297 37.5671C39.5219 38.3328 38.5515 39.3859 37.9562 39.8624C37.6594 40.0984 37.4734 40.3156 37.2937 40.525C36.9922 40.8734 36.6484 41.2703 35.9703 41.6656C35.689 41.8296 35.3812 41.9874 35.0625 42.1499C34.3125 42.5296 33.5375 42.9218 33.0656 43.4796C32.5237 44.1223 31.8706 44.6621 31.1375 45.0734L30.539 45.3812ZM41.8078 32.9749V32.9796C42.2922 33.7453 42.9312 34.3203 43.1484 34.5046C43.3422 34.4359 43.5277 34.3458 43.7015 34.2359C43.7849 34.1722 43.8614 34.0999 43.9297 34.0203C43.7523 34.0122 43.5755 33.995 43.4 33.9687L43.0828 33.8437L41.8078 32.9749ZM45.5984 96.0874C44.8106 96.0878 44.0343 95.8983 43.3353 95.5349C42.6362 95.1715 42.0351 94.645 41.5828 93.9999C40.2713 92.7672 39.0179 91.4742 37.8265 90.1249C36.1281 88.2031 30.3 80.7109 28.6328 78.5624C28.2484 78.7468 27.7812 78.8406 27.3515 78.6078C27.1047 78.4703 26.6922 78.0828 25.3047 76.7171C24.5031 75.9296 23.5953 75.0359 23.2078 74.7218C22.6359 74.2593 22.3141 74.2109 22.3109 74.2093L19.4984 74.0093C19.3734 73.9515 18.2703 73.4124 18.0781 72.2562C17.9609 71.5562 18.0875 70.5562 18.6359 69.9078C18.9922 69.4859 19.4719 69.264 20.0219 69.264L34.3625 69.3046C34.8047 69.4515 35.6078 70.0515 35.4781 71.2671C35.4187 71.8218 35.2719 72.1999 35.1547 72.5031C35.0531 72.764 34.9859 72.939 34.9781 73.189C34.9578 73.7921 34.7844 74.1968 34.6578 74.4953C34.6109 74.6046 34.564 74.714 34.5562 74.7687C34.5348 74.9766 34.5181 75.185 34.5062 75.3937L41.6219 81.7734C43.0563 82.5222 44.23 83.6884 44.9879 85.1181C45.7459 86.5478 46.0524 88.1737 45.8672 89.7812L44.3125 89.6093C44.4637 88.2998 44.2099 86.9754 43.5852 85.8145C42.9605 84.6537 41.995 83.7123 40.8187 83.1171L40.6531 83.0031L32.914 76.0624L32.9265 75.6953C32.9265 75.6953 32.9547 75.0234 33.0062 74.5859C33.0375 74.3093 33.1344 74.0812 33.2219 73.8828C33.3203 73.6484 33.4062 73.4484 33.4156 73.1374C33.4312 72.6218 33.5734 72.2578 33.6969 71.9374C33.8 71.6749 33.889 71.4499 33.925 71.1015C33.9395 71.0088 33.9293 70.9139 33.8953 70.8265H20.0203C19.9359 70.8265 19.8875 70.8499 19.8281 70.9187C19.6516 71.1281 19.5562 71.6218 19.6203 71.9984C19.6578 72.2296 19.8906 72.4265 20.0484 72.5296L22.4047 72.6515C22.5437 72.714 23.2047 72.7109 24.1906 73.5078C24.6359 73.8671 25.5328 74.7499 26.4015 75.6015C26.9437 76.1374 27.6547 76.8359 27.989 77.1343C28.0937 77.0796 28.2234 76.9921 28.3078 76.9218L28.9312 76.3953L29.4297 77.0406C29.5062 77.1374 37.0828 86.9234 38.9984 89.0921C40.9031 91.2515 42.6875 92.8937 42.7047 92.9109L42.8234 93.0499C43.4484 93.9718 44.4859 94.5249 45.5984 94.5249C47.5609 94.5249 48.8 92.6203 49.2656 90.9906C50.2469 88.1203 51.7281 83.5531 51.8281 82.5796C51.9578 81.3171 51.925 80.8843 51.925 80.8796L53.4797 80.7171C53.4875 80.8062 53.5297 81.3124 53.3812 82.7406C53.2297 84.2031 51.0094 90.7203 50.7562 91.4593C50.1531 93.5734 48.4297 96.0874 45.5984 96.0874Z" fill="#231F20"/>
<path d="M31.2594 87.4749C31.0361 87.4728 30.8157 87.4239 30.6125 87.3311C30.2641 87.178 29.5313 87.0155 28.6047 86.8108L27.7922 86.628C26.9141 86.428 25.6172 86.6687 24.6735 86.8437C24.3395 86.9114 24.0027 86.9646 23.6641 87.003C23.474 87.0266 23.2873 87.0722 23.1078 87.139C22.6063 87.3015 21.9203 87.5265 21.0656 86.9796C19.9578 86.2718 20.2844 84.8093 20.6531 84.0577L20.7485 83.8608L29.4953 78.2749L30.3391 79.5905L21.9797 84.9296C21.8625 85.2624 21.8313 85.614 21.9078 85.664C22.1266 85.8046 22.1985 85.789 22.6266 85.653C22.8719 85.5733 23.175 85.4733 23.5391 85.4468C23.7438 85.4296 24.0391 85.3718 24.3875 85.3062C25.4656 85.1077 26.9469 84.8312 28.136 85.103L28.9422 85.2843C29.9797 85.514 30.6813 85.6702 31.1641 85.8687L31.425 85.0874L35.9266 85.578L35.7547 87.1312L32.4735 86.7718C32.3224 87.0284 32.0952 87.2315 31.8235 87.353C31.6461 87.433 31.4539 87.4745 31.2594 87.4749Z" fill="#231F20"/>
<path d="M50.0016 81.6016L47.4297 73.0078L51.2703 81.5359L50.0016 81.6016Z" fill="#001716"/>
<path d="M69.886 11.9968C69.626 11.9981 69.3689 11.9422 69.1329 11.8331C68.8969 11.724 68.6878 11.5644 68.5203 11.3655C68.2094 11.003 68.061 10.5389 68.0985 10.0624C68.136 9.58582 68.3594 9.15301 68.7235 8.84363L69.3172 8.33738L71.6375 11.0624L71.0438 11.5686C70.7214 11.845 70.3107 11.9969 69.886 11.9968ZM70.5735 9.07488C70.4402 9.07488 70.3092 9.04081 70.1929 8.9759C70.0765 8.911 69.9787 8.81742 69.9087 8.70406C69.8387 8.5907 69.7989 8.46132 69.793 8.32823C69.7871 8.19513 69.8153 8.06274 69.875 7.94363L73.3328 1.0327C73.4255 0.847255 73.588 0.706199 73.7846 0.640561C73.9812 0.574923 74.1958 0.590081 74.3813 0.682699C74.5667 0.775318 74.7078 0.937811 74.7734 1.13443C74.8391 1.33105 74.8239 1.54569 74.7313 1.73114L71.2719 8.6452C71.207 8.77498 71.1074 8.88418 70.984 8.96061C70.8607 9.03703 70.7186 9.07768 70.5735 9.07801V9.07488ZM71.8813 10.6124C71.6987 10.6125 71.5217 10.5487 71.3813 10.4319C71.2409 10.3152 71.1458 10.1529 71.1125 9.97333C71.0793 9.79376 71.11 9.6082 71.1993 9.44892C71.2887 9.28964 71.431 9.16669 71.6016 9.10145L78.836 6.32801C79.0288 6.25739 79.2416 6.2655 79.4284 6.35058C79.6153 6.43566 79.7611 6.59088 79.8344 6.78266C79.9077 6.97444 79.9026 7.18736 79.8201 7.37539C79.7377 7.56341 79.5845 7.71141 79.3938 7.78738L72.1594 10.5608C72.0706 10.5948 71.9764 10.6123 71.8813 10.6124Z" fill="#231F20"/>
<path d="M68.8406 8.74844L70.8219 7.0625L73.1281 9.775L71.1453 11.4594L68.8406 8.74844Z" fill="#231F20"/>
<path d="M70.8016 10.1218C70.642 10.1215 70.4863 10.0724 70.3555 9.98096C70.2247 9.88955 70.1251 9.76028 70.0699 9.61053C70.0148 9.46078 70.0068 9.29773 70.0471 9.14333C70.0874 8.98892 70.174 8.85056 70.2953 8.74685L76.5188 3.45153C76.5969 3.38505 76.6874 3.33462 76.7851 3.30311C76.8828 3.27161 76.9857 3.25965 77.088 3.26792C77.1903 3.27619 77.2899 3.30453 77.3813 3.35131C77.4726 3.3981 77.5538 3.46242 77.6203 3.54059C77.6868 3.61877 77.7372 3.70928 77.7687 3.80695C77.8002 3.90462 77.8122 4.00753 77.8039 4.10982C77.7957 4.21211 77.7673 4.31177 77.7205 4.40311C77.6737 4.49445 77.6094 4.57568 77.5313 4.64216L71.3078 9.93591C71.1665 10.056 70.987 10.1219 70.8016 10.1218Z" fill="#231F20"/>
<path d="M77.5781 8.56853C77.4296 8.56858 77.2841 8.52628 77.1587 8.44657C77.0333 8.36687 76.9333 8.25308 76.8703 8.11853L75.5203 5.25135L72.85 3.25291C72.6986 3.12366 72.6022 2.94159 72.5802 2.74374C72.5583 2.54589 72.6126 2.34713 72.732 2.18788C72.8515 2.02864 73.0271 1.92087 73.2232 1.88651C73.4192 1.85215 73.621 1.89377 73.7875 2.00291L76.6125 4.11853C76.7153 4.19445 76.7975 4.2949 76.8516 4.41072L78.2844 7.45447C78.3409 7.57358 78.3663 7.70508 78.3582 7.83668C78.3502 7.96828 78.3088 8.09568 78.2381 8.20697C78.1674 8.31826 78.0696 8.4098 77.954 8.47303C77.8383 8.53626 77.7084 8.56912 77.5766 8.56853H77.5781ZM75.2375 9.43572C75.0906 9.43559 74.9467 9.39403 74.8223 9.31581C74.6979 9.2376 74.5981 9.1259 74.5344 8.99353L73.5937 7.03885L71.7547 5.37322C71.6081 5.23228 71.5223 5.03975 71.5154 4.83653C71.5085 4.63331 71.5811 4.43542 71.7178 4.28489C71.8545 4.13436 72.0445 4.04305 72.2475 4.03037C72.4504 4.01769 72.6503 4.08463 72.8047 4.21697L74.7562 5.98416C74.8313 6.05152 74.8918 6.13338 74.9344 6.22478L75.9437 8.31541C76.0011 8.43445 76.0273 8.56609 76.0199 8.69802C76.0126 8.82995 75.9719 8.95786 75.9016 9.06978C75.8314 9.1817 75.7339 9.27397 75.6183 9.33797C75.5027 9.40197 75.3728 9.4356 75.2406 9.43572H75.2375Z" fill="#231F20"/>
</svg>
