<svg width="100" height="100" viewBox="0 0 100 100" fill="none" xmlns="http://www.w3.org/2000/svg">
<g clipPath="url(#clip0_235_6293)">
<path d="M59.0328 5.81396C59.4735 6.44953 59.7847 7.16568 59.9485 7.9215C60.1124 8.67733 60.1258 9.45804 59.988 10.2191C59.8502 10.9801 59.5638 11.7065 59.1452 12.3568C58.7266 13.0071 58.184 13.5686 57.5484 14.0093C56.9127 14.4498 56.1964 14.7608 55.4404 14.9244C54.6845 15.0881 53.9037 15.1012 53.1427 14.9631C52.3816 14.8249 51.6553 14.5382 51.0051 14.1194C50.3549 13.7005 49.7935 13.1576 49.3531 12.5218C48.4636 11.2383 48.1203 9.6541 48.3987 8.11754C48.6771 6.58099 49.5543 5.2179 50.8375 4.32802C51.4732 3.88743 52.1894 3.57637 52.9453 3.41259C53.7012 3.24882 54.4819 3.23555 55.2429 3.37353C56.004 3.51152 56.7303 3.79806 57.3806 4.21679C58.0309 4.63552 58.5923 5.17824 59.0328 5.81396Z" fill="#001716"/>
<path d="M65.7628 76.0885C76.4533 69.9042 80.1063 56.2243 73.9219 45.5338C67.7375 34.8433 54.0577 31.1903 43.3671 37.3747C32.6766 43.5591 29.0237 57.2389 35.208 67.9294C41.3924 78.62 55.0722 82.2729 65.7628 76.0885Z" fill="#001716"/>
<path d="M83.9168 85.5964C94.6073 79.412 98.2603 65.7322 92.0759 55.0416C85.8915 44.3511 72.2117 40.6981 61.5211 46.8825C50.8306 53.0669 47.1776 66.7467 53.362 77.4372C59.5464 88.1278 73.2262 91.7807 83.9168 85.5964Z" fill="#00BFB4"/>
<path d="M57.7359 13.9735L57.15 11.7282L62.1797 9.92041L60.3078 14.6407L58.0953 21.4767L58.1594 26.2298L59.5266 29.1595L62.1062 31.4407L64.2797 32.0235L66.2812 31.0876L68.5765 28.1829L69.8781 27.0767L69.9437 25.1235L68.7062 23.9517L67.1437 22.9095L66.2328 21.4767L63.889 19.4595L63.1734 16.5938L63.564 15.9438L68.4469 19.5892L73.0031 24.211L76.3234 27.922L77.8219 31.5688L78.9281 35.0845L79.1719 37.6313L77.9266 40.0485L77.3406 42.2688L74.5656 39.4454L61.0562 39.9985L61.5453 36.711L58.8109 35.0188L56.2062 32.5454L52.6906 29.1595L53.9281 22.3235L56.0109 18.2876L56.6625 15.7485L57.7359 13.9735Z" fill="#EDB29F"/>
<path d="M68.2594 33.4063C68.2594 33.4063 68.2828 34.0172 69.4312 34.1407C70.5781 34.261 72.214 34.3594 72.5312 34.1875C72.8484 34.0172 73.5562 33.8469 73.5562 33.8469C73.5562 33.8469 73.5094 35.5063 74.5094 37.5094C75.5094 39.5094 77.3406 42.2688 77.3406 42.2688L74.5656 53.3782L61.4797 52.7922L60.2437 45.3047L61.2844 38.4688C61.2844 38.4688 62.0578 38.3626 62.8156 36.7766C63.5719 35.1891 63.6687 34.311 64.0594 33.8469C64.45 33.3829 65.6359 32.4875 65.6359 32.4875L67.1609 33.2126L68.2594 33.4079V33.4063Z" fill="#00BFB4"/>
<path d="M72.45 77.0765C72.45 77.0765 70.8875 77.4343 69.8453 76.8155C68.8047 76.1968 67.6 76.0015 67.6 76.0015L66.6562 79.7452L66.6875 82.414L65.6469 82.9358L64.8656 83.5218L63.2703 84.9202L63.4656 88.8593L64.5406 89.0874L67.3062 91.3015L70.4 91.5608L71.5719 91.0077L70.2047 86.8421L71.3765 82.1546L72.45 77.0765Z" fill="#FAFBFF"/>
<path d="M68.1859 74.5047L63.4984 69.2954L72.5484 65.8782L73.3937 74.0157L75.6734 74.4719L72.8078 80.3313L66.6562 79.7454L68.1859 74.5047Z" fill="#EDB29F"/>
<path d="M66.6719 89.2656C66.6719 89.2656 66.5984 90.0969 67.2578 90.6828C67.9172 91.2687 68.5766 91.4875 68.8938 91.4391C69.2109 91.3906 71.5297 90.6578 71.5297 90.6578L73.4375 93.3437L75.7563 96.175L76.9281 97.5922L75.2672 98.9094L71.1422 97.8844L67.4297 93.4906L65.8922 92.2203L64.8422 92.0016L63.0359 95.4187L61.8156 95.2719L60.3266 93.6859L60.6188 90.7797L62.6938 87.7766L62.3766 85.6047L62.1578 83.4328L63.9141 82.6016L65.0391 83.8703C65.0391 83.8703 65.2578 83.725 64.6953 84.2141C64.1344 84.7016 63.7922 84.725 63.7438 85.6531C63.6953 86.5812 63.6953 87.3625 64.0375 87.7047C64.3781 88.0453 64.55 88.1422 65.3547 87.9484C66.1609 87.7531 66.7719 87.6312 66.8938 87.4844C67.0156 87.3375 67.2594 88.2406 67.2594 88.2406L66.6734 89.2672L66.6719 89.2656Z" fill="#00BFB4"/>
<path d="M61.2844 52.2063L74.5656 53.3782L75.3469 56.2422L77.5125 64.2672L76.2594 71.2172L75.1844 76.1L72.8719 76.1313L74.175 70.5985L73.3625 67.7985C73.3625 67.7985 73.1656 67.8297 69.8141 68.3188C66.4609 68.8079 65.4187 71.0219 65.4187 71.0219L67.2422 72.9094L68.1859 74.5032L67.5672 75.611L64.8016 74.4391L64.7359 70.4032L61.8062 66.3985L60.0797 61.6297L60.325 55.1844L61.2844 52.2063Z" fill="#32313C"/>
<path d="M70.8547 83.5218C70.6359 83.5218 70.6406 83.4281 70.4859 83.2484C70.3511 83.0911 70.2842 82.8867 70.3 82.6801C70.3158 82.4735 70.4131 82.2817 70.5703 82.1468C70.8047 81.9468 71.2563 81.3249 71.5813 80.8593C72.1063 80.114 74.3 76.3234 74.4531 75.6109C74.6484 74.6984 76.7453 64.1156 76.7453 64.114C77.4063 59.7437 73.9484 55.7234 73.9141 55.6828C73.7935 55.546 73.7249 55.3712 73.7203 55.189C73.7141 54.9234 73.5703 48.6765 75.2359 45.9703C76.6891 43.6109 77.1469 39.9874 77.1516 39.9531C77.1623 39.8644 77.1882 39.7783 77.2281 39.6984C77.2281 39.6984 78.0422 38.0703 78.4875 37.2562C78.7406 36.7906 78.6938 36.5281 78.6922 36.5187C78.6672 36.4406 78.6672 36.4031 78.6672 36.3218C78.6672 36.2999 78.6141 33.7843 76.3078 30.0249C73.9219 26.1265 67.2406 19.7468 66.0891 18.9656C65.4391 18.5281 64.4891 17.864 63.7469 17.3421C63.8109 17.8312 64.0031 18.4046 64.475 18.9437C65.1719 19.7343 65.5938 19.9703 65.9313 20.1593C66.2672 20.3468 66.6469 20.5609 66.9313 21.1281C67.3 21.8656 67.6313 22.4437 68.2578 22.6093C69.5906 22.9671 70.1797 23.9093 71.2938 26.1406C71.7875 27.1281 72.0516 28.0703 72.2875 28.9046C72.6016 30.0203 72.8734 30.9859 73.6 31.8437C74.6016 33.0281 74.9984 33.3359 75.0813 33.3953C75.2406 33.4672 75.3713 33.5905 75.4523 33.7454C75.5333 33.9004 75.56 34.078 75.5281 34.2499C75.4912 34.4519 75.3758 34.6311 75.2072 34.7482C75.0385 34.8654 74.8303 34.9109 74.6281 34.8749C74.1688 34.7984 73.6125 34.7546 73.4703 34.7765C73.2656 34.8296 72.7 35.0796 72.3844 35.2328L71.9563 35.4921C71.8682 35.5494 71.7696 35.5884 71.6662 35.6067C71.5628 35.625 71.4567 35.6222 71.3544 35.5986C71.2521 35.575 71.1556 35.531 71.0706 35.4693C70.9857 35.4075 70.9141 35.3293 70.86 35.2392C70.806 35.1492 70.7707 35.0491 70.7562 34.9451C70.7418 34.8411 70.7484 34.7352 70.7758 34.6339C70.8031 34.5325 70.8506 34.4376 70.9155 34.355C70.9803 34.2724 71.0611 34.2037 71.1531 34.1531L71.6422 33.8593C71.8172 33.7718 72.3828 33.4999 72.8297 33.3437C72.6867 33.1823 72.5455 33.0193 72.4063 32.8546C71.4609 31.7359 71.1156 30.5109 70.7828 29.3265C70.5563 28.5234 70.3234 27.6937 69.8969 26.839C68.7969 24.6421 68.4719 24.2843 67.8547 24.1203C66.5 23.7578 65.9172 22.5953 65.5344 21.8265C65.4688 21.6953 65.4484 21.6796 65.1688 21.5234C64.7734 21.3015 64.175 20.9671 63.3031 19.9749C61.5953 18.0343 62.3031 15.7656 62.3328 15.6718C62.3706 15.5554 62.4353 15.4495 62.5215 15.3626C62.6078 15.2757 62.7132 15.2104 62.8294 15.1717C62.9456 15.1331 63.0692 15.1223 63.1903 15.1403C63.3114 15.1582 63.4266 15.2043 63.5266 15.2749C63.5281 15.2749 65.7641 16.8609 66.9641 17.6718C68.2109 18.5156 75.1031 25.0624 77.6422 29.2062C79.9672 33.0031 80.2047 35.6781 80.2266 36.2218C80.2813 36.5124 80.3203 37.1578 79.8578 38.0031C79.4938 38.6718 78.8766 39.8999 78.6844 40.2812C78.5813 41.0124 78.0453 44.3843 76.5656 46.789C75.4438 48.614 75.2563 53.0124 75.2781 54.8812C76.0688 55.8656 78.9719 59.8406 78.2844 64.3843C78.2781 64.4187 76.1766 75.0249 75.9813 75.9374C75.7438 77.0468 73.2781 81.1593 72.8609 81.7562C72.3563 82.4796 71.4016 83.2984 71.3625 83.3343C71.2212 83.4557 71.041 83.5222 70.8547 83.5218Z" fill="#231F20"/>
<path d="M73.8953 99.6468C72.9844 99.6468 72.0766 99.4796 71.4859 99.0749C70.8703 98.6484 65.2047 92.9656 64.9703 92.264C64.8391 91.8702 64.5188 90.4718 65.8844 88.9827C66.4985 88.314 66.4781 88.0827 66.4469 87.6968C66.4296 87.5297 66.4238 87.3616 66.4297 87.1937C66.4281 87.0452 66.3719 86.6827 66.3 86.1781C66.0109 84.1624 65.475 80.4077 66.1609 77.8203C66.475 76.6343 66.6969 75.8828 66.8485 75.3656C67.0766 74.5843 67.1188 74.4312 67.1141 74.1531C66.9141 73.8187 66.0453 72.8937 65.3391 72.1406C63.5656 70.2562 61.3594 67.9093 60.5625 65.9812C59.3359 63.0109 58.7735 58.6937 59.2813 56.1546C59.5781 54.6687 59.8563 54.2781 60.2156 53.8874C60.3422 53.7499 60.4344 53.6499 60.5719 53.2921C60.7594 52.7999 60.5406 51.9718 60.2828 51.014C60.061 50.1812 59.8078 49.2359 59.7406 48.2031C59.611 46.2031 60.0328 42.2421 60.2125 40.5499L60.2781 39.9249C60.35 39.1953 60.561 37.8671 60.6844 37.1203C59.5594 36.4718 57.4547 35.1984 56.9453 34.4593L56.6375 34.0062C56.1844 33.3296 55.6172 32.4906 55.1094 31.9812C54.8766 31.7499 54.4578 31.4687 54.05 31.1953C53.2406 30.6546 52.6031 30.2265 52.4406 29.6328C52.2453 28.9093 52.15 27.1953 52.7344 25.6796C53.2969 24.2265 55.3531 18.5984 55.7547 17.3359C55.8594 17.0031 55.8891 16.8218 55.8953 16.7343C55.7502 16.554 55.6812 16.3241 55.7031 16.0937C55.7266 15.8249 55.8516 15.6218 56.325 14.8828C56.5328 14.5593 56.9188 13.9546 56.9797 13.7828C56.9516 13.689 56.6953 12.9078 56.5875 12.5734C56.4156 12.0484 56.3688 11.9046 56.3688 11.7265C56.3688 10.5031 62.061 9.11401 62.1188 9.11401C62.325 9.11401 62.5563 9.20776 62.7016 9.35464C62.8569 9.50325 62.9497 9.70556 62.9609 9.92026C62.9609 10.4625 61.0078 16.1078 60.3235 16.9531C60.011 17.3375 59.8391 18.339 59.6375 19.4984C59.5438 20.0406 59.4406 20.639 59.3063 21.2859C59.025 22.6562 58.925 24.4968 58.8578 25.7156C58.8188 26.4499 58.7969 26.8296 58.7578 27.0734C59.3344 27.464 60.261 28.1359 60.786 28.7421C61.3344 29.3765 62.1672 30.3281 62.5235 30.7328C63.7266 30.9984 65.5625 31.4515 66.1078 31.8656C66.7719 32.3687 66.9125 32.6468 66.9641 32.8531C67.0104 33.0375 66.9878 33.2325 66.9007 33.4014C66.8135 33.5704 66.6678 33.7018 66.4907 33.771C66.3136 33.8402 66.1173 33.8424 65.9387 33.7773C65.76 33.7121 65.6113 33.5841 65.5203 33.4171C65.4102 33.3049 65.2904 33.2024 65.1625 33.1109C64.8719 32.9218 63.261 32.4874 61.9422 32.2046C61.7779 32.1697 61.629 32.0832 61.5172 31.9578C61.5172 31.9578 60.3219 30.5937 59.6047 29.764C59.0797 29.1609 57.85 28.3312 57.4203 28.0624C57.2689 27.9677 57.1544 27.8239 57.0962 27.655C57.0379 27.4861 57.0392 27.3023 57.1 27.1343L57.2297 26.7765C57.25 26.6578 57.2672 26.214 57.2985 25.6328C57.3672 24.3671 57.4703 22.4562 57.7781 20.9671C57.9078 20.3421 58.0063 19.7593 58.0985 19.2328C58.3563 17.7468 58.5422 16.6718 59.1047 15.9734C59.4438 15.5421 60.4875 12.6921 61.0485 10.9968C60.048 11.3385 59.0589 11.7127 58.0828 12.1187C58.4406 13.2109 58.5766 13.7312 58.5047 14.1171C58.4422 14.4499 58.1922 14.8624 57.6406 15.7249C57.5391 15.8812 57.4438 16.0296 57.3672 16.1531C57.5266 16.5531 57.4797 17.0609 57.2422 17.8078C56.8047 19.1968 54.7078 24.9093 54.1938 26.2406C53.7297 27.4421 53.8313 28.7906 53.95 29.2218C54.0219 29.2968 54.5625 29.6578 54.9188 29.8968C55.3875 30.2109 55.875 30.5374 56.2141 30.8765C56.8281 31.4921 57.4141 32.3624 57.9328 33.1328L58.2344 33.5749C58.4938 33.9531 60.3531 35.1499 61.9266 36.0296C62.0676 36.1089 62.1807 36.2298 62.2504 36.3758C62.32 36.5218 62.3428 36.6858 62.3156 36.8453C62.311 36.8656 61.9281 39.1062 61.8344 40.0734L61.7672 40.7156C61.5906 42.3687 61.1781 46.2374 61.2985 48.1031C61.3563 48.9812 61.5797 49.8093 61.7922 50.6109C62.1063 51.7828 62.4016 52.8874 62.0297 53.8531C61.7844 54.4906 61.5422 54.7531 61.3656 54.9468C61.2016 55.1234 61.0485 55.2906 60.8141 56.4593C60.4235 58.4156 60.7672 62.3828 62.0063 65.3843C62.6938 67.0484 64.8813 69.3734 66.4766 71.0718C68.1266 72.8265 68.6485 73.4077 68.6735 73.9843C68.6985 74.6077 68.6172 74.8843 68.3469 75.8046C68.1985 76.314 67.9813 77.0546 67.6719 78.2202C67.0656 80.5015 67.5922 84.1859 67.8453 85.9577C67.9547 86.7281 68 87.0515 67.9891 87.2702C67.9844 87.3734 67.9953 87.4702 68.0031 87.5671C68.0609 88.2499 68.0297 88.9546 67.0344 90.039C66.3344 90.8031 66.3781 91.4406 66.4313 91.6859C67.0422 92.464 71.5766 97.2374 72.3734 97.7874C73.025 98.2374 75.0516 98.1515 75.7844 97.7468C76.075 97.5874 76.0735 97.5812 76.0297 97.2874C76.0219 97.2312 76.0141 97.1765 76.0109 97.1249C75.7141 96.7031 74.4594 95.4609 73.7656 94.7749C73.2719 94.2827 72.8234 93.8406 72.5609 93.5562C71.9188 92.864 70.7156 91.1781 69.8985 87.6702C69.2938 85.0671 71.3578 77.8656 72.6406 73.8046C72.9953 72.6812 73 70.1687 72.7594 68.9609C72.5875 68.1077 71.4469 65.9843 70.7688 64.8452C70.7163 64.757 70.6818 64.6593 70.6671 64.5577C70.6525 64.4562 70.6579 64.3527 70.6833 64.2532C70.7344 64.0524 70.8632 63.88 71.0414 63.7742C71.2196 63.6683 71.4326 63.6375 71.6334 63.6887C71.8343 63.7398 72.0066 63.8686 72.1125 64.0468C72.3063 64.3718 74.011 67.2609 74.2906 68.6531C74.5719 70.0749 74.5688 72.8874 74.1375 74.2515C72.0906 80.7312 71.0516 85.7296 71.4203 87.3156C72.1828 90.589 73.2735 92.0281 73.7063 92.4937C73.9594 92.7687 74.3906 93.1937 74.8656 93.6656C77.2094 95.9859 77.5609 96.414 77.5609 96.9312C77.6375 97.4718 77.7766 98.4312 76.5406 99.114C75.9578 99.4343 74.925 99.6468 73.8953 99.6468Z" fill="#231F20"/>
<path d="M66.7203 34.2343C65.9563 34.2343 65.8047 34.0843 65.6563 33.9343C65.0547 33.3328 65.1938 31.3281 65.6266 30.6625C65.6469 30.6296 67.9484 27.3703 68.7359 26.9359C69.2297 26.6656 70.2641 26.1234 70.2641 26.1234L70.9906 27.5078C70.9891 27.5078 69.975 28.039 69.4906 28.3046C69.1109 28.5859 67.3203 30.9234 66.9359 31.5125C66.8406 31.6937 66.7984 32.2781 66.8219 32.6718C67.6722 32.6181 68.5195 32.5242 69.3609 32.3906C69.5628 32.3652 69.7667 32.4195 69.9291 32.5421C70.0916 32.6647 70.1997 32.8458 70.2307 33.0469C70.2616 33.248 70.2129 33.4533 70.0948 33.619C69.9767 33.7848 69.7986 33.8979 69.5984 33.9343C68.1578 34.1562 67.2781 34.2343 66.7203 34.2343ZM62.1328 96.3468C62.0927 96.3468 62.0525 96.3453 62.0125 96.3421C61.1375 96.2781 60.5875 95.5609 60.4047 95.3265C59.9484 94.7328 59.4953 93.525 59.9297 91.1296C60.1531 89.8937 60.6047 89.1453 60.9703 88.5453C61.2109 88.1468 61.3859 87.8578 61.4203 87.5406C61.4641 87.1124 61.4719 86.5953 61.4797 86.0656C61.4953 85.014 61.5125 83.9265 61.7859 83.1609C62.2484 81.8609 63.5203 81.5093 64.5594 81.7125C64.8891 81.7812 65.15 81.9203 65.3516 82.0968L65.9703 81.2578C66.0934 81.091 66.2777 80.9799 66.4827 80.949C66.6876 80.9181 66.8965 80.9698 67.0633 81.0929C67.2301 81.216 67.3412 81.4003 67.3721 81.6053C67.403 81.8102 67.3512 82.0191 67.2281 82.1859L65.8531 84.0515C65.7552 84.184 65.6178 84.2821 65.4607 84.3318C65.3036 84.3815 65.1348 84.3803 64.9784 84.3283C64.8221 84.2763 64.6862 84.1762 64.5901 84.0423C64.4941 83.9084 64.4429 83.7475 64.4438 83.5828C64.4406 83.5203 64.4203 83.2796 64.2438 83.2437C64.0094 83.1968 63.4516 83.1406 63.2578 83.6859C63.0719 84.2078 63.0547 85.2078 63.0422 86.089C63.0328 86.6703 63.0219 87.2374 62.9734 87.7031C62.9031 88.3671 62.5984 88.8687 62.3063 89.3546C61.9781 89.8968 61.6391 90.4546 61.4672 91.4078C61.0844 93.5171 61.5453 94.2468 61.6422 94.3718C61.9281 94.7421 62.0859 94.7812 62.1266 94.7843C62.2047 94.7843 62.3031 94.7374 62.4688 94.5796C63.0875 93.9828 64.4094 91.6234 65.0969 90.2781C65.1417 90.1836 65.205 90.0991 65.2831 90.0296C65.3611 89.9601 65.4524 89.9069 65.5513 89.8733C65.6503 89.8396 65.755 89.8262 65.8593 89.8338C65.9636 89.8413 66.0653 89.8698 66.1583 89.9174C66.2514 89.9649 66.334 90.0307 66.4012 90.1108C66.4684 90.1909 66.5188 90.2836 66.5495 90.3836C66.5802 90.4835 66.5906 90.5886 66.5799 90.6926C66.5692 90.7966 66.5378 90.8974 66.4875 90.989C66.2953 91.3687 64.5625 94.7312 63.5516 95.7046C63.0156 96.2234 62.5016 96.3468 62.1328 96.3468ZM67.5672 76.3921C67.4625 76.3921 67.3588 76.3708 67.2625 76.3296L64.4953 75.1578C64.3561 75.0988 64.2369 75.0007 64.1523 74.8753C64.0677 74.75 64.0213 74.6027 64.0188 74.4515L63.9547 70.4156C63.953 70.313 63.9716 70.2111 64.0094 70.1156C64.0471 70.0202 64.1033 69.9332 64.1746 69.8595C64.246 69.7858 64.3312 69.7268 64.4254 69.6861C64.5196 69.6453 64.6208 69.6235 64.7234 69.6218C65.1766 69.6765 65.5094 69.9593 65.5172 70.3906L65.5734 73.9187L67.8734 74.8921C68.0407 74.9614 68.1787 75.0868 68.2636 75.2467C68.3486 75.4066 68.3753 75.591 68.339 75.7685C68.3028 75.9459 68.206 76.1051 68.0651 76.2189C67.9243 76.3327 67.7483 76.394 67.5672 76.3921ZM71.7344 46.5421C71.5937 46.5422 71.4555 46.5044 71.3344 46.4328C69.0106 45.0576 66.9774 43.2425 65.3484 41.089C65.2823 41.0076 65.2333 40.9138 65.2042 40.813C65.1752 40.7123 65.1667 40.6067 65.1793 40.5026C65.1919 40.3985 65.2253 40.298 65.2776 40.2071C65.3299 40.1162 65.3999 40.0367 65.4835 39.9735C65.5671 39.9102 65.6626 39.8644 65.7643 39.8389C65.866 39.8133 65.9718 39.8084 66.0754 39.8246C66.179 39.8408 66.2783 39.8777 66.3674 39.933C66.4564 39.9884 66.5334 40.0611 66.5938 40.1468C68.102 42.137 69.9827 43.8149 72.1313 45.0875C72.2773 45.1755 72.3906 45.3089 72.4539 45.4673C72.5172 45.6256 72.527 45.8003 72.4819 45.9648C72.4368 46.1293 72.3392 46.2745 72.204 46.3784C72.0688 46.4824 71.9034 46.5393 71.7328 46.5406L71.7344 46.5421ZM66.5906 60.7343C66.4506 60.7345 66.313 60.6973 66.1922 60.6265C63.867 59.2527 61.833 57.4374 60.2047 55.2828C60.0799 55.1169 60.0259 54.9083 60.0546 54.7027C60.0833 54.4971 60.1923 54.3112 60.3578 54.1859C60.5237 54.062 60.7319 54.0085 60.937 54.0372C61.1421 54.0659 61.3276 54.1743 61.4531 54.339C62.957 56.333 64.8379 58.0122 66.9891 59.2812C67.1363 59.3685 67.2507 59.5018 67.3148 59.6605C67.3789 59.8192 67.3891 59.9946 67.3438 60.1597C67.2986 60.3247 67.2004 60.4704 67.0643 60.5742C66.9282 60.678 66.7618 60.7343 66.5906 60.7343ZM74.2406 53.2812C74.1004 53.2809 73.9629 53.2432 73.8422 53.1718C71.5193 51.7956 69.4862 49.9806 67.8563 47.8281C67.7943 47.7463 67.749 47.6531 67.7231 47.5539C67.6971 47.4546 67.691 47.3512 67.705 47.2496C67.719 47.1479 67.7528 47.0501 67.8047 46.9615C67.8565 46.873 67.9253 46.7955 68.007 46.7336C68.0888 46.6716 68.182 46.6263 68.2812 46.6004C68.3805 46.5744 68.4839 46.5683 68.5855 46.5823C68.6872 46.5963 68.7851 46.6301 68.8736 46.682C68.9621 46.7338 69.0396 46.8026 69.1016 46.8843C69.9141 47.9593 70.8391 48.9468 71.8547 49.825C72.7188 50.5718 73.6563 51.2468 74.6391 51.825C74.787 51.912 74.9022 52.0453 74.9668 52.2043C75.0315 52.3633 75.0419 52.5392 74.9966 52.7048C74.9512 52.8703 74.8526 53.0163 74.716 53.1203C74.5793 53.2242 74.4123 53.2817 74.2406 53.2812ZM54.0719 15.9343C53.6684 15.9342 53.2657 15.8976 52.8688 15.825C52.006 15.6712 51.1822 15.3479 50.4452 14.8737C49.7082 14.3996 49.0725 13.7839 48.575 13.0625C47.569 11.6075 47.1812 9.81286 47.4967 8.07232C47.8122 6.33177 48.8051 4.78743 50.2578 3.77809C51.7129 2.77364 53.5068 2.3869 55.2465 2.70262C56.9861 3.01834 58.5297 4.01077 59.5391 5.46246C60.0405 6.18143 60.3942 6.99275 60.5798 7.84941C60.7654 8.70608 60.7792 9.59106 60.6203 10.4531C60.4664 11.3156 60.143 12.139 59.6688 12.8758C59.1946 13.6125 58.5791 14.2479 57.8578 14.7453C56.7281 15.5265 55.4156 15.9328 54.0719 15.9328V15.9343ZM54.0469 4.15309C53.0156 4.15309 52.0125 4.46402 51.15 5.06402C50.5972 5.44433 50.1253 5.93062 49.7619 6.49469C49.3985 7.05876 49.1507 7.68937 49.0328 8.34996C48.7891 9.69371 49.0828 11.05 49.8609 12.1718C50.2414 12.7244 50.7278 13.1959 51.2918 13.5591C51.8559 13.9222 52.4864 14.1698 53.1469 14.2875C53.8065 14.4102 54.484 14.4002 55.1397 14.258C55.7953 14.1158 56.4161 13.8443 56.9656 13.4593C57.5185 13.0789 57.9904 12.5925 58.354 12.0285C58.7177 11.4645 58.9659 10.834 59.0844 10.1734C59.2062 9.5135 59.1957 8.83598 59.0535 8.18017C58.9114 7.52436 58.6404 6.90332 58.2563 6.35309C57.8759 5.79979 57.3894 5.32758 56.8251 4.96386C56.2607 4.60014 55.6297 4.35217 54.9688 4.23434C54.6646 4.17878 54.3561 4.15262 54.0469 4.15309Z" fill="#231F20"/>
<path d="M48.6406 10.8798C48.5156 10.8798 48.3906 10.8735 48.2734 10.8642C48.1712 10.8544 48.0719 10.8245 47.9813 10.7763C47.8906 10.7282 47.8103 10.6626 47.745 10.5833C47.6797 10.5041 47.6307 10.4128 47.6007 10.3146C47.5707 10.2164 47.5604 10.1132 47.5703 10.011C47.5947 9.80685 47.6967 9.61989 47.8553 9.48897C48.0139 9.35804 48.2168 9.2932 48.4219 9.30791C49.2594 9.38603 50.8734 8.97822 52.8844 7.58134C54.775 6.27197 55.975 4.99853 56.1781 4.08916C56.2006 3.98892 56.2426 3.89409 56.3017 3.81008C56.3608 3.72608 56.4359 3.65454 56.5227 3.59955C56.6094 3.54456 56.7062 3.5072 56.8074 3.48959C56.9086 3.47199 57.0123 3.4745 57.1125 3.49697C57.2127 3.51944 57.3076 3.56143 57.3916 3.62054C57.4756 3.67966 57.5471 3.75475 57.6021 3.84151C57.6571 3.92827 57.6944 4.02502 57.7121 4.12622C57.7297 4.22743 57.7271 4.33111 57.7047 4.43134C57.4016 5.77509 56.0797 7.26728 53.775 8.86572C51.9078 10.1595 50.0625 10.8813 48.6406 10.8813V10.8798ZM51.7594 15.2813C51.6422 15.2811 51.5266 15.2546 51.4211 15.2037C51.3156 15.1529 51.2228 15.079 51.1496 14.9876C51.0765 14.8961 51.0248 14.7894 50.9983 14.6753C50.9719 14.5611 50.9714 14.4425 50.9969 14.3282C51.3156 12.9063 52.8375 11.1048 54.9656 9.62509C57.1297 8.13134 58.6375 7.55009 60.0437 7.68134C60.4719 7.72197 60.6687 8.10322 60.6281 8.53291C60.5859 8.96572 60.3156 9.26103 59.8937 9.23603C58.925 9.14384 57.6656 9.65791 55.8578 10.911C53.8281 12.3173 52.7062 13.847 52.5219 14.672C52.4826 14.8449 52.3857 14.9993 52.2472 15.1101C52.1087 15.2208 51.9367 15.2812 51.7594 15.2813Z" fill="#231F20"/>
<path d="M56.7562 14.9093C56.2187 14.9093 55.514 14.7249 54.625 14.1453C53.5422 13.4374 52.4234 12.2953 51.4765 10.9265C49.5953 8.21245 48.5859 4.96089 50.2922 3.77651C50.7578 3.45464 51.7953 2.97182 53.5281 4.10464C54.6109 4.81245 55.7312 5.95463 56.6781 7.32182C57.625 8.69057 58.3031 10.139 58.5843 11.4015C59.0343 13.4218 58.3234 14.2624 57.8578 14.5843C57.6328 14.7421 57.2703 14.9093 56.7562 14.9093ZM51.3969 4.89682C51.3219 4.8922 51.2474 4.91016 51.1828 4.94839C50.7187 5.27026 50.9656 7.44839 52.7609 10.0359C53.5828 11.2249 54.5734 12.2453 55.4797 12.8359C56.2453 13.3359 56.7906 13.4296 56.9687 13.2999C57.1515 13.1749 57.2594 12.6312 57.0594 11.7421C56.825 10.6874 56.2156 9.40151 55.3922 8.21245C54.5703 7.02495 53.5797 6.00307 52.6734 5.41089C52.1093 5.0437 51.664 4.89682 51.3969 4.89682Z" fill="#231F20"/>
<path d="M68.95 68.0093L65.1906 61.2718L64.7516 62.9812L67.6328 68.5468L68.95 68.0093ZM66.4281 37.428L72.0266 38.4046L71.8313 40.1624L66.1672 38.7952L66.4281 37.428ZM5.69531 1.13428H8.82031V29.9108H5.69531V1.13428Z" fill="#001716"/>
<path d="M8.82187 30.6905H5.69687C5.48967 30.6905 5.29095 30.6082 5.14444 30.4617C4.99793 30.3152 4.91562 30.1165 4.91562 29.9093V1.13428C4.91562 0.927077 4.99793 0.728363 5.14444 0.58185C5.29095 0.435337 5.48967 0.353027 5.69687 0.353027H8.82187C9.02907 0.353027 9.22778 0.435337 9.3743 0.58185C9.52081 0.728363 9.60312 0.927077 9.60312 1.13428V29.9093C9.60312 30.1165 9.52081 30.3152 9.3743 30.4617C9.22778 30.6082 9.02907 30.6905 8.82187 30.6905ZM6.47812 29.128H8.04062V1.91553H6.47812V29.128Z" fill="#231F20"/>
<path d="M17.6266 8.00317V4.87817H35.1875V8.00317H17.6266Z" fill="#001716"/>
<path d="M35.1875 8.78442H17.625C17.4178 8.78442 17.2191 8.70211 17.0726 8.5556C16.9261 8.40909 16.8438 8.21038 16.8438 8.00317V4.87817C16.8438 4.67097 16.9261 4.47226 17.0726 4.32575C17.2191 4.17923 17.4178 4.09692 17.625 4.09692H35.1875C35.3947 4.09692 35.5934 4.17923 35.7399 4.32575C35.8864 4.47226 35.9688 4.67097 35.9688 4.87817V8.00317C35.9688 8.21038 35.8864 8.40909 35.7399 8.5556C35.5934 8.70211 35.3947 8.78442 35.1875 8.78442ZM18.4062 7.22192H34.4062V5.65942H18.4062V7.22192Z" fill="#231F20"/>
<path d="M17.5531 7.23755H8.8125C8.6053 7.23755 8.40659 7.15524 8.26007 7.00873C8.11356 6.86221 8.03125 6.6635 8.03125 6.4563C8.03125 6.2491 8.11356 6.05038 8.26007 5.90387C8.40659 5.75736 8.6053 5.67505 8.8125 5.67505H17.5516C17.7588 5.67505 17.9575 5.75736 18.104 5.90387C18.2505 6.05038 18.3328 6.2491 18.3328 6.4563C18.3328 6.6635 18.2505 6.86221 18.104 7.00873C17.9575 7.15524 17.7588 7.23755 17.5516 7.23755H17.5531Z" fill="#231F20"/>
<path d="M22.0453 24.8313C21.8381 24.8313 21.6394 24.749 21.4929 24.6025C21.3464 24.456 21.2641 24.2573 21.2641 24.0501C21.2641 17.4735 16.9656 8.43132 16.9203 8.33913C16.831 8.15203 16.8197 7.93711 16.8888 7.74166C16.958 7.54622 17.102 7.38624 17.2891 7.29694C17.4762 7.20764 17.6911 7.19632 17.8865 7.26547C18.082 7.33463 18.2419 7.47859 18.3312 7.66569C18.5141 8.04694 22.8266 17.1173 22.8266 24.0501C22.8266 24.2573 22.7442 24.456 22.5977 24.6025C22.4512 24.749 22.2525 24.8313 22.0453 24.8313ZM30.6469 24.8313C30.4397 24.8313 30.241 24.749 30.0944 24.6025C29.9479 24.456 29.8656 24.2573 29.8656 24.0501C29.8656 17.1173 34.1781 8.04694 34.3609 7.66569C34.4053 7.57315 34.4674 7.49025 34.5437 7.42171C34.6201 7.35317 34.7092 7.30035 34.806 7.26625C34.9028 7.23216 35.0053 7.21746 35.1078 7.22299C35.2102 7.22852 35.3106 7.25418 35.4031 7.2985C35.4957 7.34283 35.5786 7.40494 35.6471 7.4813C35.7156 7.55766 35.7685 7.64677 35.8026 7.74355C35.8367 7.84033 35.8514 7.94287 35.8458 8.04533C35.8403 8.14779 35.8146 8.24815 35.7703 8.34069C35.7266 8.43132 31.4281 17.4735 31.4281 24.0501C31.4281 24.2573 31.3458 24.456 31.1993 24.6025C31.0528 24.749 30.8541 24.8313 30.6469 24.8313Z" fill="#231F20"/>
<path d="M19.1875 12.0968C19.0309 12.0973 18.8778 12.0507 18.7481 11.963C18.6184 11.8753 18.5182 11.7505 18.4603 11.6051C18.4025 11.4596 18.3898 11.3 18.4239 11.1472C18.458 10.9944 18.5374 10.8554 18.6516 10.7483L22.0828 7.51395C22.1574 7.44357 22.2451 7.38857 22.341 7.35209C22.4368 7.31561 22.5389 7.29836 22.6414 7.30134C22.7439 7.30431 22.8448 7.32745 22.9384 7.36942C23.032 7.4114 23.1163 7.47139 23.1867 7.54598C23.2571 7.62057 23.3121 7.70828 23.3486 7.80413C23.3851 7.89997 23.4023 8.00206 23.3993 8.10457C23.3964 8.20707 23.3732 8.30799 23.3312 8.40156C23.2893 8.49512 23.2293 8.5795 23.1547 8.64989L19.7234 11.8827C19.5791 12.0205 19.3871 12.0972 19.1875 12.0968ZM20.2875 15.5218C20.1322 15.5217 19.9803 15.4754 19.8514 15.3887C19.7225 15.302 19.6224 15.1788 19.5639 15.0349C19.5054 14.891 19.4911 14.7329 19.5228 14.5808C19.5546 14.4287 19.631 14.2896 19.7422 14.1811L26.6609 7.45926C26.7342 7.38654 26.8212 7.32908 26.9169 7.29019C27.0126 7.2513 27.115 7.23176 27.2182 7.2327C27.3215 7.23364 27.4235 7.25504 27.5185 7.29566C27.6134 7.33628 27.6993 7.39532 27.7713 7.46936C27.8433 7.5434 27.8999 7.63097 27.9378 7.72702C27.9757 7.82306 27.9942 7.92567 27.9922 8.02891C27.9903 8.13215 27.9678 8.23397 27.9262 8.32849C27.8847 8.42301 27.8248 8.50835 27.75 8.57957L20.8313 15.2999C20.6859 15.442 20.4908 15.5217 20.2875 15.5218ZM21.475 18.6952C21.3198 18.6952 21.1682 18.649 21.0394 18.5624C20.9106 18.4759 20.8105 18.353 20.7519 18.2093C20.6932 18.0657 20.6786 17.9078 20.71 17.7559C20.7414 17.6039 20.8173 17.4648 20.9281 17.3561L30.7609 7.7202C30.9091 7.57516 31.1088 7.49491 31.3161 7.49711C31.5234 7.4993 31.7214 7.58377 31.8664 7.73192C32.0114 7.88006 32.0917 8.07976 32.0895 8.28708C32.0873 8.49439 32.0028 8.69235 31.8547 8.83739L22.0219 18.4733C21.8756 18.6159 21.6793 18.6956 21.475 18.6952ZM22.0297 22.2108C21.8742 22.212 21.7219 22.1666 21.5924 22.0804C21.463 21.9942 21.3623 21.8712 21.3035 21.7272C21.2446 21.5833 21.2302 21.425 21.2622 21.2728C21.2942 21.1206 21.371 20.9814 21.4828 20.8733L33.6719 8.87801C33.7446 8.80427 33.8313 8.74574 33.9269 8.70582C34.0225 8.6659 34.1251 8.64539 34.2287 8.64549C34.3323 8.64558 34.4348 8.66627 34.5303 8.70637C34.6259 8.74646 34.7125 8.80515 34.7851 8.87902C34.8577 8.95289 34.9149 9.04046 34.9534 9.13665C34.9918 9.23283 35.0108 9.33571 35.0091 9.43929C35.0075 9.54287 34.9852 9.64508 34.9437 9.73998C34.9021 9.83488 34.8422 9.92058 34.7672 9.99207L22.5766 21.9874C22.4306 22.1307 22.2342 22.211 22.0297 22.2108ZM24.25 24.4327C24.0948 24.4324 23.9432 24.3858 23.8145 24.299C23.6859 24.2121 23.586 24.0889 23.5277 23.9451C23.4693 23.8013 23.4552 23.6433 23.487 23.4914C23.5188 23.3394 23.5951 23.2004 23.7063 23.0921L31.3063 15.6858C31.4548 15.5412 31.6547 15.4615 31.8621 15.4643C32.0694 15.4671 32.2671 15.5521 32.4117 15.7007C32.5563 15.8492 32.636 16.0492 32.6333 16.2565C32.6305 16.4638 32.5454 16.6615 32.3969 16.8061L24.7953 24.2124C24.6499 24.3542 24.4531 24.4334 24.25 24.4327ZM28.2375 24.8061C28.0801 24.8068 27.9262 24.7598 27.7961 24.6713C27.6659 24.5828 27.5656 24.457 27.5082 24.3104C27.4509 24.1638 27.4393 24.0033 27.4749 23.85C27.5106 23.6967 27.5917 23.5578 27.7078 23.4515L30.2641 21.0921C30.3395 21.0225 30.4278 20.9685 30.5241 20.9331C30.6204 20.8977 30.7227 20.8816 30.8252 20.8857C30.9277 20.8899 31.0284 20.9141 31.1216 20.9572C31.2147 21.0002 31.2984 21.0612 31.368 21.1366C31.4375 21.212 31.4916 21.3004 31.527 21.3967C31.5624 21.493 31.5785 21.5953 31.5743 21.6978C31.5702 21.8003 31.5459 21.901 31.5029 21.9941C31.4598 22.0872 31.3988 22.171 31.3234 22.2405L28.7672 24.5999C28.623 24.7331 28.4338 24.8068 28.2375 24.8061Z" fill="#231F20"/>
<path d="M33.4875 12.0969C33.2879 12.0974 33.0959 12.0207 32.9516 11.8828L29.5219 8.64845C29.4473 8.57818 29.3873 8.4939 29.3453 8.40042C29.3032 8.30695 29.28 8.20612 29.277 8.10369C29.2739 8.00125 29.2911 7.89922 29.3275 7.80342C29.3639 7.70761 29.4188 7.61992 29.4891 7.54533C29.5593 7.47074 29.6436 7.41073 29.7371 7.36871C29.8306 7.3267 29.9314 7.30351 30.0338 7.30046C30.1363 7.29741 30.2383 7.31457 30.3341 7.35096C30.4299 7.38734 30.5176 7.44224 30.5922 7.51252L34.0234 10.7469C34.1382 10.8539 34.218 10.993 34.2525 11.1461C34.2869 11.2992 34.2744 11.4591 34.2165 11.6049C34.1586 11.7507 34.058 11.8757 33.928 11.9635C33.7979 12.0513 33.6444 12.0978 33.4875 12.0969ZM32.3891 15.5219C32.1852 15.5222 31.9894 15.4425 31.8437 15.3L24.9266 8.5797C24.778 8.43508 24.693 8.23736 24.6902 8.03004C24.6874 7.82273 24.7671 7.6228 24.9117 7.47424C25.0563 7.32567 25.2541 7.24065 25.4614 7.23786C25.6687 7.23508 25.8686 7.31477 26.0172 7.45939L32.9328 14.1813C33.0439 14.2896 33.1203 14.4286 33.1521 14.5806C33.1839 14.7325 33.1697 14.8904 33.1114 15.0343C33.053 15.1781 32.9532 15.3013 32.8245 15.3882C32.6959 15.475 32.5443 15.5216 32.3891 15.5219ZM31.2 18.6953C30.9957 18.6957 30.7994 18.6161 30.6531 18.4735L20.825 8.83752C20.7501 8.76617 20.6901 8.68065 20.6484 8.58593C20.6068 8.4912 20.5844 8.38916 20.5826 8.28571C20.5807 8.18226 20.5995 8.07948 20.6376 7.98333C20.6758 7.88717 20.7327 7.79956 20.8051 7.72558C20.8774 7.65159 20.9637 7.59272 21.059 7.55236C21.1542 7.512 21.2566 7.49097 21.36 7.49048C21.4635 7.48999 21.566 7.51006 21.6617 7.54951C21.7573 7.58897 21.8442 7.64703 21.9172 7.72033L31.7453 17.3563C31.856 17.4648 31.9319 17.6038 31.9633 17.7556C31.9948 17.9074 31.9803 18.0652 31.9219 18.2087C31.8634 18.3523 31.7635 18.4752 31.635 18.5619C31.5064 18.6486 31.355 18.695 31.2 18.6953ZM30.6469 22.211C30.4423 22.2111 30.2459 22.1308 30.1 21.9875L17.9062 9.9922C17.8313 9.92071 17.7713 9.83501 17.7297 9.74011C17.6882 9.64521 17.666 9.543 17.6643 9.43942C17.6626 9.33584 17.6816 9.23297 17.7201 9.13678C17.7585 9.04059 17.8157 8.95302 17.8884 8.87915C17.961 8.80528 18.0476 8.74659 18.1431 8.7065C18.2386 8.6664 18.3412 8.64571 18.4447 8.64562C18.5483 8.64552 18.6509 8.66603 18.7465 8.70595C18.8421 8.74587 18.9288 8.8044 19.0016 8.87814L31.1937 20.8735C31.304 20.9822 31.3794 21.1212 31.4105 21.2729C31.4416 21.4246 31.4269 21.5821 31.3683 21.7254C31.3097 21.8687 31.2098 21.9914 31.0814 22.0778C30.9529 22.1643 30.8017 22.2106 30.6469 22.211ZM28.4266 24.4328C28.2224 24.4343 28.0258 24.3551 27.8797 24.2125L20.2797 16.8063C20.2015 16.7359 20.1383 16.6505 20.094 16.5551C20.0496 16.4598 20.0249 16.3565 20.0215 16.2513C20.018 16.1462 20.0358 16.0415 20.0737 15.9434C20.1117 15.8453 20.1691 15.756 20.2425 15.6806C20.3158 15.6052 20.4037 15.5455 20.5007 15.5049C20.5977 15.4643 20.7019 15.4437 20.8071 15.4443C20.9123 15.445 21.0162 15.4668 21.1127 15.5086C21.2092 15.5504 21.2963 15.6113 21.3687 15.6875L28.9703 23.0922C29.0814 23.2006 29.1578 23.3396 29.1896 23.4915C29.2214 23.6434 29.2072 23.8014 29.1489 23.9452C29.0905 24.0891 28.9907 24.2123 28.862 24.2991C28.7334 24.3859 28.5818 24.4325 28.4266 24.4328ZM24.4375 24.8063C24.2412 24.8069 24.052 24.7332 23.9078 24.6L21.3531 22.2406C21.2731 22.1724 21.2077 22.0886 21.1608 21.9945C21.1139 21.9003 21.0865 21.7976 21.0803 21.6926C21.074 21.5876 21.089 21.4824 21.1244 21.3834C21.1598 21.2843 21.2149 21.1934 21.2863 21.1162C21.3576 21.0389 21.4439 20.9768 21.5398 20.9337C21.6358 20.8906 21.7394 20.8673 21.8446 20.8652C21.9498 20.8631 22.0543 20.8822 22.1519 20.9215C22.2495 20.9608 22.3381 21.0194 22.4125 21.0938L24.9672 23.4531C25.082 23.56 25.1619 23.6989 25.1967 23.8518C25.2315 24.0047 25.2194 24.1646 25.1621 24.3105C25.1048 24.4565 25.0049 24.5818 24.8754 24.6703C24.7459 24.7587 24.5927 24.8061 24.4359 24.8063H24.4375Z" fill="#231F20"/>
</g>
<defs>
<clipPath id="clip0_235_6293">
<rect width="100" height="100" fill="white"/>
</clipPath>
</defs>
</svg>
