<svg width="100" height="100" viewBox="0 0 100 100" fill="none" xmlns="http://www.w3.org/2000/svg">
<path d="M67.7325 79.2195C79.6724 76.0613 86.7913 63.8219 83.6331 51.8821C80.4749 39.9422 68.2355 32.8233 56.2956 35.9815C44.3558 39.1397 37.2369 51.3791 40.3951 63.3189C43.5533 75.2588 55.7927 82.3777 67.7325 79.2195Z" fill="#001716"/>
<path d="M52.7153 65.2752C64.6551 62.1169 71.7741 49.8776 68.6159 37.9377C65.4576 25.9979 53.2183 18.879 41.2784 22.0372C29.3386 25.1954 22.2197 37.4348 25.3779 49.3746C28.5361 61.3144 40.7755 68.4334 52.7153 65.2752Z" fill="#00BFB4"/>
<path d="M50.0156 83.2438L52.4094 83.0234L54.4344 86.5641L52.311 88.2969L50.3578 86.0016L49.8453 83.2922L50.0156 83.2438Z" fill="#F2F3F4"/>
<path d="M44.4985 52.3188L50.4875 53.7517L59.1469 55.6063L65.136 61.4329L71.5813 69.311L73.6485 73.722L73.861 75.1704L70.736 79.2064L64.486 81.9407L54.2391 87.4189L51.6282 82.8532L54.7532 81.1439L64.1282 74.2595L61.9469 72.5657L54.525 68.8548L51.5297 69.572L47.8188 71.4595L46.9079 73.9329L44.2547 70.3032L39.225 70.0923L37.7922 69.8314L41.2438 62.2142L43.5219 54.0767L44.4985 52.3188Z" fill="#32313C"/>
<path d="M56.4781 23.3798L58.0078 22.0126H63.086L67.611 24.0313L67.7735 26.3751L65.95 29.1751L69.9875 26.7985L74.4141 22.697L75.0969 21.2642L77.8641 23.2829L74.2344 28.9954L73.4047 30.8017L74.0391 31.486L77.9453 31.7782L79.4594 29.972L80.6797 25.186L85.5141 25.4954L84.2125 30.6392L81.6078 36.8892L72.3797 37.7845L71.4516 39.0532L61.1485 37.3938L58.8219 32.2017L56.9328 28.4907L56.4781 23.3798Z" fill="#EDB29F"/>
<path d="M47.8188 54.0765L44.0422 63.7765L46.8422 61.4983L49.5766 53.5562L47.8188 54.0765Z" fill="#001716"/>
<path d="M63.2 36.8078L63.2969 29.9234L57.3906 29.4343L52.9453 30.7531L50.0328 34.4156L47.7203 45.8406L44.2047 53.214C44.2047 53.214 43.9125 53.1156 46.9891 53.8484C50.0656 54.5812 48.9422 54.5328 51.8719 56.0453C54.8016 57.5609 55.7297 57.8031 57.4375 57.5609C59.1453 57.3187 59.8313 56.2906 59.8313 56.2906L59.4406 55.2156L64.6156 46.525L66.9594 38.9562L68.4735 38.4187L71.4516 39.0531L72.3797 37.7843C72.3797 37.7843 73.3563 34.8062 73.2094 33.7796C73.0625 32.7531 73.5516 31.7296 73.5516 31.7296L71.8906 32.6078L68.8156 34.3171L64.1281 35.1968L63.2 36.8078ZM51.0094 83.0156C51.0094 83.0156 51.6281 83.9921 51.5953 84.5781C51.5625 85.164 50.6828 85.425 51.0422 86.075C51.4 86.7265 52.3438 87.8 52.3438 87.8L52.375 93.2687L53.386 94.8312L52.4735 96.1672L50.0656 96.1015L47.3953 89.3953L46.2235 83.9593L47.2328 83.1125L49.4469 82.8203L51.0094 83.0156Z" fill="#00BFB4"/>
<path d="M73.6484 73.7219L73.4703 71.9157L75.6828 71.5891L78.8406 71.5579L80.1437 72.761L79.2313 73.9016L75.7812 75.7563L73.4375 76.375L73.6484 73.7219Z" fill="#E6E7E8"/>
<path d="M54.2656 91.3812L51.3094 91.8859L50.8719 89.5172L53.0922 87.9312L55.5656 86.0422L62.5328 83.6984L66.0485 81.3547C66.0485 81.3547 69.4328 79.5328 70.2797 78.9469C71.1266 78.3609 74.3813 76.6031 74.3813 76.6031C74.3813 76.6031 79.9797 73.3469 80.436 73.8031C80.8922 74.2594 79.0688 75.4953 79.0688 75.4953L74.8703 79.8734L73.0797 81.6156C73.0797 81.6156 70.5406 82.8531 70.2797 82.8531C70.0188 82.8531 67.675 82.6578 67.675 82.6578L58.4313 88.5812L54.2656 91.3812Z" fill="#001716"/>
<path d="M79.3125 72.0125C79.4844 72.1843 80.0203 72.4515 79.4844 73.0374C78.9485 73.6234 76.5313 75.064 75.8469 75.2843C75.1625 75.5046 72.6235 76.7984 72.1844 77.0656C71.7453 77.3328 70.5485 78.5812 70.5485 78.5812L70.5735 79.0187L79.2141 74.7718L80.7766 73.5015L79.825 72.1843L79.3125 72.0125Z" fill="#00BFB4"/>
<path d="M80.4688 26.3094L84.6672 27.0579L85.2859 23.1516L86.1328 19.1485L86.3609 16.9016L83.7563 15.8938L82.3891 15.1438L80.4688 16.8704L80.5344 19.636L80.4031 22.7938L80.8922 25.1047L80.4688 26.3094Z" fill="#E6E7E8"/>
<path d="M84.8 26.2343C84.8 26.2343 83.6937 26.6718 82.9266 26.5859C82.1609 26.5 80.6672 25.8203 80.6672 25.8203L81.2953 23.739C81.2953 23.739 82.0859 24.1687 83.2016 24.2546C84.3187 24.3406 84.9422 24.3328 84.9422 24.3328L84.8 26.2343Z" fill="#546187"/>
<path d="M11.75 97.1766C11.5428 97.177 11.3439 97.0951 11.1971 96.9489C11.0503 96.8027 10.9676 96.6041 10.9672 96.3969C10.9668 96.1897 11.0487 95.9908 11.1949 95.844C11.3411 95.6972 11.5397 95.6145 11.7469 95.6141L66.5515 95.4C67.039 95.3532 67.3328 95.7469 67.3359 96.1782C67.3363 96.2808 67.3165 96.3824 67.2776 96.4774C67.2387 96.5723 67.1815 96.6587 67.1093 96.7315C67.037 96.8044 66.9511 96.8622 66.8565 96.9019C66.7619 96.9415 66.6604 96.9621 66.5578 96.9625L11.7531 97.1766H11.75Z" fill="#231F20"/>
<path d="M74.739 80.3046C74.7075 80.305 74.6766 80.2956 74.6505 80.2777C74.6245 80.2598 74.6047 80.2343 74.5937 80.2046C74.3264 79.5245 73.8948 78.9211 73.3375 78.4484C73.3064 78.4215 73.2872 78.3835 73.284 78.3425C73.2808 78.3016 73.2938 78.2611 73.3203 78.2296C73.347 78.1984 73.3849 78.1789 73.4258 78.1754C73.4668 78.1719 73.5074 78.1846 73.539 78.2109C74.139 78.7187 74.6047 79.3703 74.8828 80.0921C74.8908 80.1112 74.895 80.1316 74.8949 80.1523C74.8948 80.173 74.8906 80.1934 74.8824 80.2124C74.8742 80.2314 74.8623 80.2485 74.8473 80.2627C74.8324 80.277 74.8147 80.288 74.7953 80.2953C74.7773 80.302 74.7582 80.3052 74.739 80.3046ZM70.3937 82.8671C70.3623 82.8676 70.3316 82.8584 70.3056 82.8408C70.2796 82.8232 70.2596 82.798 70.2484 82.7687C69.9811 82.0885 69.5495 81.4852 68.9922 81.0125C68.9609 80.9858 68.9414 80.9479 68.9379 80.9069C68.9344 80.866 68.9472 80.8253 68.9734 80.7937C68.9866 80.778 69.0028 80.7651 69.0211 80.7556C69.0393 80.7462 69.0592 80.7404 69.0797 80.7387C69.1002 80.7369 69.1208 80.7392 69.1403 80.7455C69.1599 80.7517 69.178 80.7617 69.1937 80.775C69.7937 81.2828 70.2594 81.9343 70.5375 82.6562C70.5453 82.6752 70.5492 82.6955 70.549 82.716C70.5488 82.7365 70.5445 82.7567 70.5364 82.7755C70.5282 82.7943 70.5163 82.8113 70.5015 82.8254C70.4867 82.8395 70.4692 82.8505 70.45 82.8578C70.4321 82.865 70.413 82.8672 70.3937 82.8671ZM57.2734 89.7359C57.242 89.7364 57.2112 89.7272 57.1853 89.7096C57.1593 89.692 57.1393 89.6668 57.1281 89.6375C56.8617 88.9572 56.4306 88.3537 55.8734 87.8812C55.8577 87.868 55.8448 87.8518 55.8353 87.8336C55.8259 87.8153 55.8201 87.7954 55.8184 87.7749C55.8166 87.7545 55.8189 87.7339 55.8252 87.7143C55.8314 87.6947 55.8414 87.6766 55.8547 87.6609C55.8813 87.6296 55.9192 87.6101 55.9602 87.6066C56.0011 87.6031 56.0418 87.6159 56.0734 87.6421C56.4906 87.9953 57.0625 88.6062 57.4187 89.5234C57.4267 89.5425 57.4308 89.5631 57.4306 89.5838C57.4304 89.6046 57.4261 89.625 57.4177 89.644C57.4094 89.663 57.3973 89.6801 57.3822 89.6943C57.367 89.7085 57.3492 89.7195 57.3297 89.7265C57.3117 89.7332 57.2926 89.7364 57.2734 89.7359Z" fill="#00BFB4"/>
<path d="M72.2344 39.8359C72.1909 39.8361 72.1475 39.8325 72.1047 39.825C71.0578 39.65 68.2016 39.1875 67.5953 39.15C67.3885 39.1371 67.1953 39.0426 67.0582 38.8873C66.921 38.732 66.8512 38.5286 66.864 38.3218C66.8906 37.8921 67.2203 37.5406 67.6922 37.5906C68.2859 37.6265 70.364 37.9562 71.5515 38.15L71.6031 37.6937C71.6245 37.5109 71.7098 37.3416 71.8439 37.2156C71.9779 37.0895 72.1522 37.0148 72.3359 37.0046C72.7734 36.9781 74.9875 36.8609 75.6734 36.964C76.1812 37.0218 79.7422 36.6281 80.7437 36.389C81.2812 36.2609 81.2922 36.2578 81.9 35.0203L82.1797 34.4578C82.8547 33.1046 83.6953 28.2218 83.9609 26.4546C83.9656 26.3984 84.1953 24.1656 84.5344 22.9437C84.7297 22.2406 85.0937 21.2296 85.3969 20.3937C85.6 19.839 85.7719 19.3671 85.8359 19.1343C85.9156 18.8437 85.8422 18.3187 85.7953 18.125C85.7778 18.0508 85.771 17.9745 85.775 17.8984C85.7792 17.7974 85.7782 17.6962 85.7719 17.5953C85.5942 17.6839 85.3904 17.705 85.1984 17.6546C84.9156 17.5718 84.6734 17.3609 84.6156 17.0765C84.5122 17.163 84.3882 17.2213 84.2557 17.2457C84.1231 17.2701 83.9865 17.2597 83.8591 17.2157C83.7317 17.1716 83.6178 17.0954 83.5286 16.9944C83.4394 16.8933 83.3779 16.7709 83.35 16.639C83.3238 16.526 83.2834 16.4168 83.2297 16.314C83.2219 16.3406 83.175 16.3562 83.164 16.364C83.0048 16.444 82.823 16.4672 82.6488 16.4297C82.4746 16.3922 82.3184 16.2962 82.2062 16.1578L81.7844 15.6375C81.5956 15.735 81.3764 15.7556 81.1728 15.695C80.9692 15.6344 80.7969 15.4973 80.6922 15.3125C80.4891 14.9312 80.6015 14.4593 80.9828 14.2578C81.5531 13.9562 82.4265 13.9531 82.9953 14.6515L83.0953 14.7734C83.4485 14.7181 83.8095 14.7967 84.1078 14.9937C84.1785 15.0437 84.2444 15.1002 84.3047 15.1625C84.4734 15.1042 84.654 15.0885 84.8303 15.1165C85.0066 15.1446 85.1733 15.2157 85.3156 15.3234C85.5203 15.4687 85.675 15.6453 85.7953 15.8281C86.0435 15.7878 86.2981 15.8244 86.525 15.9328C87.2875 16.2843 87.3578 17.3359 87.339 17.8781C87.3984 18.1703 87.5172 18.9203 87.3422 19.5515C87.2703 19.8062 87.0844 20.3218 86.8672 20.9265C86.5765 21.7265 86.2265 22.6921 86.039 23.3625C85.7344 24.4562 85.5125 26.6281 85.5109 26.65C85.4047 27.3625 84.4844 33.339 83.5765 35.1546L83.3031 35.7078C82.6437 37.0515 82.3703 37.6093 81.1062 37.9109C80.1265 38.1437 76.239 38.6312 75.4344 38.5078C75.125 38.4609 74.0281 38.4859 73.0797 38.5312L73.0109 39.1437C72.989 39.3346 72.8976 39.5107 72.754 39.6384C72.6105 39.7661 72.4265 39.8364 72.2344 39.8359Z" fill="#231F20"/>
<path d="M53.1656 82.1204C53.1656 82.1204 54.7531 85.661 54.9719 85.9048C55.1906 86.1485 57.2672 85.5142 57.2672 85.5142L55.3391 81.022L53.1656 82.1204Z" fill="#282728"/>
<path d="M53.9922 82.6484C53.9922 82.6484 54.9687 84.8234 55.1031 84.9734C55.2375 85.1249 56.5141 84.7343 56.5141 84.7343L55.3281 81.9734L53.9922 82.6484Z" fill="#A7A9AC"/>
<path d="M58.6828 78.2655C58.6828 78.2655 61.3937 82.689 61.6984 82.9686C62.0046 83.2499 64.0468 81.9218 64.0468 81.9218L60.6968 76.2905L58.6812 78.2671L58.6828 78.2655Z" fill="#282728"/>
<path d="M59.7188 78.7937C59.7188 78.7937 61.3859 81.5109 61.5734 81.6844C61.7609 81.8562 63.0156 81.0391 63.0156 81.0391L60.9578 77.5781L59.7188 78.7937Z" fill="#A7A9AC"/>
<path d="M70.475 79.6624C70.3064 79.6623 70.1424 79.6077 70.0074 79.5067C69.8724 79.4056 69.7737 79.2637 69.7261 79.1019C69.6784 78.9402 69.6844 78.7674 69.7431 78.6093C69.8017 78.4513 69.91 78.3164 70.0516 78.2249C73.175 76.2093 73.011 74.9093 72.8797 73.864C72.7547 72.864 72.4313 71.8859 69.1516 67.1859C66.0219 62.7031 58.7047 56.2577 58.6313 56.1937C58.4755 56.054 58.3816 55.8582 58.3701 55.6493C58.3587 55.4403 58.4307 55.2354 58.5703 55.0796C58.5953 55.0546 60.9922 52.3921 63.1641 47.2921C63.5391 46.4171 64.0938 44.7296 64.6328 43.0952C65.4391 40.6452 65.9532 39.1171 66.2891 38.5546C66.8328 37.6499 67.8235 37.1609 68.4157 36.8671C68.5266 36.8124 68.6172 36.7702 68.6735 36.7343C68.9813 36.4265 69.4391 36.4577 69.7453 36.764C70.0516 37.0702 70.0157 37.5921 69.7094 37.8968C69.5641 38.0421 69.3828 38.1312 69.1078 38.2687C68.6703 38.4843 67.936 38.8468 67.6297 39.3577C67.3578 39.8109 66.6688 41.9046 66.1157 43.5843C65.5688 45.2468 65.0032 46.9687 64.6032 47.9062C62.9 51.8937 61.0922 54.4374 60.2313 55.5265C62.0469 57.1593 67.6797 62.3499 70.4344 66.2921C73.8094 71.1312 74.2578 72.289 74.425 73.6249C74.586 74.9109 74.8469 76.9906 70.9 79.5374C70.7736 79.6197 70.6259 79.6632 70.475 79.6624Z" fill="#231F20"/>
<path d="M52.0625 92.8438C51.6578 92.8438 51.2594 92.7641 50.9125 92.5579C50.4781 92.3016 50.1688 91.8172 50.0203 91.1594C49.8719 90.5016 49.8734 89.6047 50.2219 89.0844C50.5281 88.6251 52.0047 87.6376 53.2531 86.8547C53.5703 86.3688 54.5109 85.1907 56.3578 84.8219C58.2641 84.4391 65.5359 80.7032 66.1984 80.1188C66.2754 80.0509 66.365 79.9988 66.462 79.9655C66.5591 79.9322 66.6618 79.9183 66.7642 79.9247C66.8667 79.9311 66.9668 79.9576 67.059 80.0027C67.1512 80.0478 67.2336 80.1106 67.3016 80.1876C67.3695 80.2645 67.4216 80.3541 67.4549 80.4511C67.4882 80.5482 67.502 80.6509 67.4956 80.7534C67.4893 80.8558 67.4628 80.956 67.4177 81.0482C67.3726 81.1403 67.3098 81.2228 67.2328 81.2907C66.2406 82.1657 58.7062 85.9438 56.6641 86.3532C55.125 86.661 54.5266 87.761 54.5203 87.7719C54.4565 87.8983 54.3592 88.0048 54.2391 88.0797C53.0906 88.7985 51.7172 89.7313 51.5 89.9797C51.4187 90.1922 51.5125 91.0516 51.7156 91.2172C51.9984 91.386 52.8422 91.2188 53.3484 90.8891C53.4547 90.8204 68.2078 82.0297 68.7125 81.8001C68.8284 81.7435 68.9575 81.7197 69.0859 81.7313C69.7922 81.7782 70.6391 81.8188 70.8391 81.8047C71.1766 81.7001 73.4578 80.4422 73.9172 80.0422C73.9798 79.99 74.0374 79.9319 74.0891 79.8688C74.0899 79.7246 74.1307 79.5835 74.2068 79.4611C74.2829 79.3386 74.3914 79.2396 74.5203 79.1751L74.5172 79.1766C74.5062 79.1766 74.9531 78.8219 75.9734 77.2516C76.8547 75.8954 77.9469 75.2422 78.8219 74.7157C79.2781 74.4422 79.6719 74.2079 79.8875 73.95C80.1016 73.7 80.1516 73.6376 79.5328 73.086C79.1828 72.7891 77.5453 72.3547 76.725 72.3547C76.1516 72.3547 74.4641 72.7016 73.5344 72.9188C73.4346 72.9435 73.3309 72.9481 73.2293 72.9321C73.1278 72.9161 73.0304 72.88 72.9431 72.8258C72.8557 72.7716 72.7801 72.7005 72.7206 72.6167C72.6612 72.5328 72.6191 72.4379 72.5969 72.3376C72.5732 72.2378 72.5695 72.1344 72.586 72.0332C72.6024 71.9321 72.6387 71.8351 72.6927 71.748C72.7467 71.6609 72.8174 71.5853 72.9007 71.5256C72.984 71.4659 73.0783 71.4232 73.1781 71.4C73.4422 71.3375 75.7828 70.7922 76.725 70.7922C77.6156 70.7922 79.7875 71.2126 80.5219 71.8704C81.0062 72.3079 82.3219 73.486 81.0844 74.9579C80.6984 75.4126 80.1781 75.725 79.6266 76.0563C78.8484 76.5219 77.9672 77.0501 77.2828 78.1032C76.4906 79.3219 75.9578 79.9501 75.6141 80.2751C75.5359 80.5454 75.3469 80.8704 74.9422 81.2204C74.4688 81.6344 71.6344 83.3188 70.9422 83.3641C70.6141 83.3797 69.6766 83.3329 69.2125 83.3047C67.6141 84.2235 54.7531 91.8391 54.2031 92.1985C53.725 92.511 52.8828 92.8438 52.0625 92.8438Z" fill="#231F20"/>
<path d="M52.1531 97.0061C51.6328 97.0061 50.9031 96.9436 50.1109 96.6796C48.0984 96.0077 44.9843 84.9452 44.9578 84.8358C44.7703 84.0233 45.025 83.2186 45.639 82.6827C46.4078 82.0108 47.5656 81.8702 48.7453 82.3171C49.7047 82.6796 50.4547 82.4733 51.1187 82.2858L51.3297 82.2265C52.089 82.0249 53.7875 81.5733 56.2781 78.8577C59.0312 75.8515 63.2672 73.789 63.4453 73.7015C63.6318 73.6111 63.8465 73.5986 64.0422 73.6665C64.238 73.7345 64.3987 73.8775 64.489 74.064C64.5794 74.2504 64.5919 74.4652 64.524 74.6609C64.456 74.8567 64.313 75.0174 64.1265 75.1077C64.0859 75.128 59.9781 77.1343 57.4281 79.914C54.6312 82.9671 52.55 83.5202 51.7656 83.728L51.5359 83.7905C50.7781 84.0015 49.6297 84.3218 48.1922 83.7796C47.4562 83.4983 46.9203 83.639 46.6672 83.8593C46.5794 83.9345 46.5151 84.0335 46.4822 84.1444C46.4492 84.2552 46.4489 84.3732 46.4812 84.4843C46.9187 86.3858 49.6906 94.514 50.6781 95.2311C51.2812 95.428 51.8562 95.4577 52.239 95.4452C52.3906 94.9608 52.4656 94.4765 52.3968 94.3202C51.3968 93.6796 51.5015 91.9936 51.5328 91.664C51.5398 91.5609 51.5679 91.4604 51.6151 91.3686C51.6623 91.2767 51.7278 91.1955 51.8075 91.1298C51.8872 91.0642 51.9795 91.0155 52.0787 90.9867C52.1779 90.9579 52.2819 90.9496 52.3843 90.9624C52.5905 90.9818 52.7804 91.0822 52.9126 91.2416C53.0447 91.401 53.1082 91.6063 53.089 91.8124C53.0422 92.3452 53.1609 92.978 53.3312 93.0921C54.5109 93.8765 53.7734 95.889 53.5187 96.4874C53.468 96.6075 53.3879 96.713 53.2858 96.794C53.1837 96.8751 53.0628 96.9293 52.9343 96.9515C52.6758 96.9908 52.4146 97.0091 52.1531 97.0061Z" fill="#231F20"/>
<path d="M20.5079 86.2376C20.5079 86.2376 16.7969 88.9079 16.6329 89.5907C16.4719 90.2751 16.2766 91.0892 16.961 91.0235C17.6453 90.9579 20.8672 90.4704 21.6797 91.5439C22.4922 92.6189 23.0797 94.2782 22.9485 94.5392C22.8188 94.8001 35.8719 83.6329 36.6203 83.1782C37.3703 82.722 38.0203 82.9501 38.5094 82.3657C38.9985 81.7814 41.9594 79.3376 42.0563 79.0439C42.1532 78.7501 45.0844 76.3095 45.7688 75.6751C46.4532 75.0407 47.575 74.4048 47.0375 73.3314C46.5 72.2579 45.3282 71.036 44.2547 70.3032C43.1813 69.5704 41.5688 68.7907 40.1047 69.572C38.6407 70.3532 36.2453 71.9642 36.0032 72.061C35.761 72.1579 35.2688 71.9157 34.4407 72.7454C33.6125 73.5751 31.7532 74.7954 31.511 75.1376C31.2688 75.4798 31.2172 76.3579 31.2172 76.3579L20.5079 86.2376Z" fill="#001716"/>
<path d="M16.2766 92.1954L18.9454 90.5032L21.2891 91.4141L22.8188 93.3344V96.036L17.4157 96.6219L14.7375 96.2797L15.0063 94.1485L15.8532 92.8469L16.2766 92.1954Z" fill="#00BFB4"/>
<path d="M22.8156 95.3218C22.675 95.3218 22.5828 95.25 22.4656 95.1578C22.3528 95.0682 22.2668 94.9496 22.2166 94.8146C22.1665 94.6797 22.1542 94.5336 22.1812 94.3921C22.1312 94.0328 21.6875 92.8484 21.0562 92.0171C20.9468 91.8718 20.3484 91.425 17.3031 91.7718L17.0343 91.8031C16.4703 91.8562 16.1406 91.589 15.9968 91.4234C15.525 90.8812 15.7093 90.1046 15.8718 89.4203C15.9296 89.1703 16.1046 88.4484 20.0125 85.6328L30.4656 75.989C30.5125 75.5953 30.6203 75.0406 30.875 74.6828C31.0515 74.4375 31.4187 74.1531 32.1718 73.589C32.7562 73.1453 33.4843 72.5953 33.8875 72.1937C34.625 71.4562 35.214 71.3343 35.7421 71.3125C35.8046 71.2859 36.164 71.0562 36.6375 70.7562C37.5531 70.175 38.8078 69.3781 39.7375 68.8812C40.7187 68.3609 42.3687 68.0734 44.6937 69.6578C45.9468 70.5125 47.1687 71.8484 47.7375 72.9812C48.4609 74.4281 47.2765 75.4203 46.6421 75.9531C46.5218 76.0515 46.4046 76.15 46.2984 76.2468C46.0828 76.45 45.6421 76.8296 45.1375 77.2703C44.3906 77.9156 43.0218 79.0984 42.7437 79.4203C42.6031 79.6937 42.2328 80.0437 40.7687 81.3375C40.1125 81.9171 39.2968 82.639 39.1078 82.8656C38.6625 83.3984 38.1343 83.5171 37.7109 83.6093C37.4609 83.6656 37.2421 83.714 37.0265 83.8468C36.6125 84.1156 32.7078 87.4078 29.5703 90.0515C24.4343 94.3796 23.3171 95.3218 22.8156 95.3218ZM19.2531 90.0765C20.5625 90.0765 21.7218 90.3046 22.3015 91.0734C22.5984 91.464 23.1078 92.3265 23.4328 93.1625C24.5921 92.2046 26.6671 90.4546 28.5625 88.8578C33.05 85.075 35.8031 82.7609 36.2156 82.5109C36.6531 82.2453 37.0531 82.1562 37.3718 82.0859C37.7156 82.0078 37.814 81.9765 37.9093 81.864C38.1546 81.5672 38.7625 81.0265 39.7343 80.1671C40.3093 79.6593 41.1656 78.9015 41.3718 78.6671C41.5312 78.3625 41.9968 77.9171 44.114 76.0875C44.6031 75.6656 45.0265 75.2968 45.239 75.1031C45.3609 74.989 45.4968 74.8718 45.6375 74.7546C46.439 74.0828 46.4656 73.9343 46.3406 73.6812C45.8875 72.7796 44.85 71.6562 43.8156 70.95C42.4671 70.0281 41.3437 69.7937 40.4718 70.2625C39.5953 70.7296 38.3703 71.5062 37.475 72.075C36.6343 72.6078 36.439 72.7281 36.2921 72.7859C36.1078 72.8609 35.9406 72.8672 35.8062 72.8734C35.6062 72.8812 35.4 72.889 34.9937 73.2984C34.5125 73.7781 33.7687 74.3406 33.1125 74.8343C32.7421 75.114 32.2343 75.4984 32.1281 75.6156C32.0547 75.8723 32.0107 76.1365 31.9968 76.4031C31.9852 76.6053 31.8956 76.7952 31.7468 76.9328L21.0375 86.8125C21.0144 86.8344 20.9898 86.8548 20.964 86.8734C19.4093 87.9906 17.589 89.4593 17.3609 89.8625C17.35 89.9312 17.3218 90.0656 17.2984 90.2015C17.9515 90.1296 18.6218 90.0765 19.2531 90.0765Z" fill="#231F20"/>
<path d="M22.7703 97.1094H22.7656L14.7343 97.0625C14.6256 97.0617 14.5183 97.0384 14.419 96.994C14.3198 96.9497 14.2308 96.8852 14.1578 96.8047C14.0858 96.724 14.0312 96.6293 13.9974 96.5267C13.9635 96.424 13.9511 96.3155 13.9609 96.2078C13.9672 96.1297 14.1453 94.2656 14.539 93.1609C14.9734 91.9469 16.6703 90.6672 16.8625 90.525C17.0293 90.4017 17.2382 90.3497 17.4433 90.3805C17.6484 90.4112 17.8329 90.5222 17.9562 90.689C18.0795 90.8558 18.1315 91.0648 18.1007 91.2699C18.0699 91.475 17.959 91.6595 17.7922 91.7828C17.1703 92.2422 16.2078 93.1375 16.0109 93.6859C15.839 94.1656 15.7078 94.9031 15.6203 95.5047L22.1953 95.5453C22.2797 95.2422 22.3625 94.8953 22.3828 94.6547C22.3609 94.414 21.8859 93.3922 21.364 92.5015C21.3121 92.413 21.2782 92.3151 21.2641 92.2134C21.25 92.1118 21.2561 92.0083 21.282 91.909C21.3079 91.8097 21.3531 91.7164 21.415 91.6346C21.477 91.5528 21.5544 91.4839 21.6429 91.432C21.7315 91.3801 21.8294 91.3461 21.931 91.332C22.0327 91.318 22.1362 91.3241 22.2355 91.35C22.3348 91.3758 22.428 91.4211 22.5099 91.483C22.5917 91.5449 22.6606 91.6224 22.7125 91.7109C23.3031 92.7203 23.9953 94.0734 23.939 94.7812C23.8843 95.4687 23.5484 96.4687 23.5109 96.5812C23.4583 96.7359 23.3586 96.8701 23.2257 96.9651C23.0929 97.0601 22.9336 97.1096 22.7703 97.1094Z" fill="#231F20"/>
<path d="M74.4297 22.4031L77.3766 23.7062L79.5891 21.4921L79.9797 19.2453L81.3469 15.7625L81.7063 14.225L79.3297 13.6468L77.2625 12.6375L75.8141 13.8421L74.3484 15.9578L74.7063 18.5953L75.2109 20.1328L74.4297 22.4031Z" fill="#E6E7E8"/>
<path d="M78.0157 13.5329C78.0157 13.5329 76.9016 14.5329 76.6375 15.4079C76.0688 17.3016 75.0563 17.1907 75.0563 17.1907L74.561 16.7125L75.5907 13.9188L76.7844 13L77.7782 12.4485L78.0157 13.5329Z" fill="#546187"/>
<path d="M67.35 13.9407C67.35 13.9407 54.4594 9.6751 54.2969 9.57822L47.7859 5.63916L46.4844 5.76885L50.1953 9.83916L58.2359 12.9954L73.6984 17.5532L74.4141 16.9345L73.5031 15.6329L67.35 13.9407Z" fill="#D3CABE"/>
<path d="M75.2109 20.1329C75.2109 20.1329 76.3828 19.9376 77.1172 20.1813C77.8515 20.4251 79.1672 21.4032 79.1672 21.4032L78.1172 23.3063C78.1172 23.3063 77.4328 22.7204 76.3594 22.4032C75.2859 22.086 74.675 21.9641 74.675 21.9641L75.2109 20.1329Z" fill="#546187"/>
<path d="M55.3875 36.4172C55.3875 36.4172 53.4344 38.6141 54.1172 43.6922C54.8 48.7704 57.5859 51.0657 57.5859 51.0657C57.5859 51.0657 54.8984 46.4266 55.3875 42.8141C55.8766 39.2016 56.5109 36.8079 56.5109 36.8079L55.3859 36.4172H55.3875Z" fill="#001716"/>
<path d="M54.6391 39.6875C54.6391 39.6875 52.686 41.8859 53.3688 46.9641C54.0516 52.0422 56.836 54.3375 56.836 54.3375C56.836 54.3375 54.15 49.6984 54.6391 46.0844C55.1282 42.4703 55.761 40.0797 55.761 40.0797L54.6391 39.6875Z" fill="#001716"/>
<path d="M66.8625 76.5047C66.811 76.5048 66.7597 76.4996 66.7093 76.4891C66.6125 76.4703 66.0687 76.3453 64.9125 75.7938C64.0031 75.3563 63.4203 74.7531 62.9937 74.311C62.8406 74.15 62.7 74.0031 62.5593 73.8875C62.114 73.5297 57.9078 71.3828 55.339 70.3453C53.8328 69.736 53.4375 69.861 52.6468 70.1141C52.2593 70.2391 51.7765 70.3922 51.1062 70.4922C49.6843 70.6985 47.8156 72.3985 47.2156 73.0375C47.0734 73.1884 46.8772 73.2766 46.67 73.2827C46.4629 73.2889 46.2617 73.2125 46.1109 73.0703C45.9601 72.9282 45.8719 72.732 45.8657 72.5248C45.8595 72.3176 45.9359 72.1165 46.0781 71.9656C46.3375 71.6906 48.6718 69.2672 50.8796 68.9438C51.4234 68.8656 51.8031 68.7438 52.1718 68.625C53.2421 68.2813 54.0296 68.1313 55.925 68.8953C58.3062 69.8578 62.8656 72.1203 63.5484 72.6781C63.7328 72.8281 63.9171 73.0172 64.1203 73.2281C64.5 73.6235 64.9328 74.0719 65.589 74.3844C66.5734 74.8563 67.0203 74.9594 67.0234 74.9594C67.4421 75.0531 67.7109 75.4656 67.6218 75.886C67.5853 76.0605 67.49 76.2172 67.3517 76.3298C67.2135 76.4425 67.0408 76.5042 66.8625 76.5047Z" fill="#231F20"/>
<path d="M63.2812 14.5907L65.0063 13.3547L72.7219 15.6L72.3313 17L63.2812 14.5907Z" fill="#3D4760"/>
<path d="M63.8016 12.7358L62.6297 14.3312L64.4531 14.9483L65.4953 13.5171L63.8016 12.7358Z" fill="#00BFB4"/>
<path d="M36.7344 72.4532C36.6006 72.4532 36.469 72.4188 36.3523 72.3534C36.2355 72.2879 36.1376 72.1936 36.0678 72.0794C35.998 71.9652 35.9587 71.835 35.9537 71.7013C35.9486 71.5676 35.9781 71.4348 36.0391 71.3157C36.0578 71.2798 37.8985 67.6782 39.3219 65.0938C40.236 63.4313 40.5031 61.9766 40.7391 60.6938C40.8563 60.0516 40.9688 59.4438 41.1485 58.861C42.3672 54.8876 43.6953 51.8579 45.0938 49.8548C46.9188 47.2376 48.1406 39.1032 48.1531 39.0204C48.1438 33.2641 52.9188 28.4891 58.7891 28.4891C61.8922 28.936 65.2766 29.3563 65.7985 29.3016C65.8735 29.2548 66.175 28.8876 66.3969 28.6204C66.8344 28.0938 67.375 27.4376 68.1375 26.9298C69.4391 26.061 73.45 22.4032 73.8 21.9423C73.9531 21.7313 74.2266 20.8423 74.411 20.0673L73.5422 18.3938C73.4674 18.2497 73.4395 18.0858 73.4625 17.9251C73.5406 17.361 73.9766 14.4954 74.8219 13.536C75.6406 12.6095 76.8516 11.9735 76.9 11.9454C76.9921 11.8972 77.0929 11.8679 77.1965 11.8593C77.3001 11.8508 77.4044 11.863 77.5031 11.8954C77.8516 12.0063 78.2578 12.186 78.5391 12.4626C78.8844 12.4376 79.3703 12.4766 79.7094 12.8954C79.7969 12.8923 79.9094 12.8891 79.9875 12.8845C80.3125 12.8673 80.7063 12.8391 81.0438 13.0548H81.1531C81.4188 13.0626 81.8672 13.0704 82.1953 13.4204C82.2986 13.532 82.3779 13.6637 82.4281 13.8072C82.4784 13.9507 82.4986 14.1031 82.4875 14.2548C82.4719 14.6704 82.211 15.3673 81.7547 16.5641C81.4641 17.3329 81.0985 18.2891 81.0469 18.6438C80.875 19.8126 80.5344 21.5001 79.5766 22.6704C78.8297 23.5829 77.2875 25.4688 77 26.0407C76.9688 26.1048 72.6219 33.2563 71.886 33.7469C71.8594 33.7626 69.2625 35.4407 68.2297 35.4407C67.811 35.4407 65.5656 35.7641 64.2469 35.9688L63.8875 36.0626L64.1188 37.5157C64.1376 37.6333 64.1291 37.7537 64.0939 37.8676C64.0587 37.9814 63.9977 38.0855 63.9156 38.1719C63.8332 38.257 63.7331 38.3229 63.6224 38.365C63.5117 38.4071 63.3931 38.4244 63.275 38.4157C62.7875 38.3704 58.4906 37.9626 57.5719 37.7063C56.6203 37.4423 55.025 36.5126 54.8453 36.4063C54.7526 36.3566 54.6708 36.2887 54.6049 36.2066C54.539 36.1245 54.4904 36.03 54.462 35.9286C54.4336 35.8273 54.4259 35.7212 54.4395 35.6169C54.4531 35.5125 54.4876 35.4119 54.541 35.3212C54.5944 35.2306 54.6656 35.1516 54.7503 35.0891C54.835 35.0266 54.9314 34.9818 55.0338 34.9575C55.1362 34.9332 55.2425 34.9299 55.3462 34.9476C55.45 34.9654 55.5491 35.004 55.6375 35.061C56.075 35.3173 57.3516 36.0235 57.9891 36.2016C58.4813 36.3376 60.6656 36.586 62.4156 36.7626L62.2328 35.611C62.2029 35.4196 62.2452 35.2239 62.3515 35.062C62.4577 34.9 62.6204 34.7833 62.8078 34.7344L63.9313 34.4407C64.5985 34.3329 67.5688 33.8782 68.2281 33.8782C68.6281 33.8313 70.3719 32.8782 71.0188 32.447C71.4828 31.9641 75.2578 26.0329 75.6031 25.3423C75.9406 24.6704 77.1 23.2313 78.361 21.6876C79.1625 20.7094 79.4172 18.9829 79.5 18.4157C79.5719 17.9298 79.861 17.147 80.2953 16.0094C80.4578 15.5798 80.6781 15.0032 80.811 14.6032C80.6274 14.5828 80.4502 14.5242 80.2906 14.4313H80.2875C80.225 14.4313 80.1578 14.4407 80.0875 14.4454C79.711 14.4688 79.0391 14.511 78.6078 14.0266C77.811 14.0985 77.5297 13.7969 77.4031 13.5501C77.3766 13.5345 77.3495 13.5199 77.3219 13.5063C76.9766 13.7188 76.4031 14.1063 75.9938 14.572C75.6578 14.9516 75.2547 16.5407 75.0453 17.8985L75.9297 19.6016C76.0141 19.7641 76.0391 19.9501 76 20.1282C75.8938 20.6126 75.5141 22.2423 75.0625 22.8626C74.5688 23.5423 70.3219 27.3516 69.0047 28.2298C68.4328 28.611 67.9922 29.1454 67.6016 29.6173C67.1188 30.2001 66.7 30.7048 66.0985 30.8344C65.3875 30.9829 61.1406 30.4032 58.6766 30.0454C53.7813 30.0532 49.7078 34.1266 49.7078 39.1344C49.6469 39.5985 48.411 47.8313 46.3766 50.7485C45.0703 52.6188 43.8141 55.5032 42.6406 59.3188C42.4844 59.8313 42.3844 60.3813 42.2766 60.9751C42.0313 62.3063 41.7266 63.9626 40.6922 65.8469C39.2813 68.4094 37.45 71.9923 37.4313 72.0266C37.3659 72.1549 37.2664 72.2626 37.1437 72.3379C37.021 72.4131 36.8783 72.453 36.7344 72.4532Z" fill="#231F20"/>
<path d="M46.9891 3.75L73.3562 15.3234L74.3484 15.9578C74.3484 15.9578 70.4266 15.4203 69.7422 14.9812C69.0578 14.5422 56.6562 11.5141 54.3625 10.1969C52.0687 8.87969 46.8422 5.55781 46.8422 5.55781L45.7687 4.04375L46.9875 3.75156L46.9891 3.75Z" fill="#FFF3E3"/>
<path d="M76.9844 32.6939C76.9172 32.6939 76.85 32.6939 76.7813 32.6876C75.5844 32.6251 72.7375 32.5595 72.7344 32.5595L72.7719 30.997C72.7719 30.997 75.6531 31.0626 76.8656 31.1282C77.7516 31.1657 78.3313 30.6767 78.4656 30.3079C78.7781 29.4485 80.2719 24.4439 80.3047 23.7923C80.3047 23.4954 80.186 23.2579 79.9594 22.8314C79.8523 22.6371 79.7523 22.439 79.6594 22.2376C79.2938 21.4314 79.1531 20.1829 79.1375 20.0454C79.1267 19.9433 79.1361 19.8401 79.1652 19.7416C79.1943 19.6432 79.2425 19.5514 79.3071 19.4716C79.3716 19.3918 79.4513 19.3255 79.5415 19.2765C79.6317 19.2275 79.7307 19.1968 79.8328 19.186C80.2391 19.1485 80.6453 19.4501 80.6922 19.8798C80.725 20.1892 80.8594 21.1017 81.0828 21.5923C81.1656 21.7751 81.2531 21.9392 81.3375 22.0954C81.5985 22.586 81.8688 23.0907 81.8688 23.8032C81.8688 24.7407 80.0766 30.447 79.9328 30.8423C79.5891 31.7829 78.4797 32.6939 76.9844 32.6939ZM74.2375 18.4001C74.1983 18.4001 74.1591 18.3969 74.1203 18.3907C72.9156 18.2126 72.4453 17.9845 72.2453 17.836C71.261 17.4532 62.9766 15.3126 60.2391 14.6673C57.661 14.0626 52.4375 11.9907 50.4313 10.2501C49.7469 9.65636 49.0203 9.10167 48.3297 8.57198C47.1313 7.65792 46.0016 6.79386 45.2985 5.89073C44.7094 5.13448 44.7328 4.50636 44.8563 4.11261C45.136 3.22042 46.1094 2.89386 46.2188 2.85948C46.397 2.80461 46.5889 2.81401 46.761 2.88605L74.886 14.947C75.2828 15.1189 75.4641 15.5767 75.2953 15.9735C75.2122 16.1629 75.0581 16.312 74.8661 16.3889C74.6741 16.4658 74.4596 16.4642 74.2688 16.3845L46.4688 4.46261C46.4063 4.50636 46.3578 4.55167 46.3469 4.57979C46.3469 4.57979 46.3438 4.68917 46.5313 4.93292C47.1094 5.67511 48.1625 6.47823 49.2766 7.32979C49.9953 7.87823 50.7453 8.45323 51.4578 9.06886C53.1922 10.5782 58.1985 12.5845 60.5953 13.147C60.7156 13.1751 72.6735 16.0751 73.225 16.6267C73.2828 16.6376 73.8578 16.7735 74.35 16.8454C74.5437 16.8756 74.719 16.9776 74.8411 17.131C74.9631 17.2845 75.023 17.4782 75.0088 17.6738C74.9947 17.8693 74.9075 18.0524 74.7646 18.1867C74.6217 18.3209 74.4336 18.3966 74.2375 18.3985V18.4001Z" fill="#231F20"/>
<path d="M57.1937 21.1673L57.5515 19.2142L60.1562 17.5532L63.1828 17.3579L66.1453 18.5954L67.9031 22.2407L67.2844 23.2829L63.8015 22.5657L57.1937 21.1673Z" fill="#546187"/>
<path d="M56.9656 23.6078C56.9656 23.6078 57.5844 22.4046 59.2781 22.664C60.9703 22.925 64.8109 23.4125 65.3313 24.0968C65.8531 24.7796 67.35 24.2921 67.35 24.2921L64.0297 22.6968L58.3 21.589L56.0547 21.2312L56.1844 22.7937L56.9656 23.6078Z" fill="#3D4760"/>
<path d="M82.9015 20.45L81.95 19.9859L82.414 18.4734L88.5171 20.2062L87.614 22.525L82.9015 20.45Z" fill="#00BFB4"/>
<path d="M66.4219 24.1125C66.4219 24.1125 65.4219 25.4313 65.6906 26.3829C65.9594 27.3344 66.9344 27.286 66.9344 27.286L67.936 25.1141L66.4219 24.1125Z" fill="#E6E7E8"/>
<path d="M87.6141 23.3063C87.5362 23.3067 87.4587 23.2951 87.3844 23.2719L84.3078 22.3188C84.0328 22.236 83.1828 21.7469 81.7797 20.8688C81.604 20.7588 81.4792 20.5834 81.4327 20.3814C81.3863 20.1794 81.422 19.9671 81.532 19.7914C81.6421 19.6157 81.8174 19.4909 82.0194 19.4445C82.2215 19.398 82.4337 19.4338 82.6094 19.5438C83.4922 20.0969 84.5766 20.7469 84.7938 20.836L87.1219 21.5563L87.5109 20.4375C87.5873 20.253 87.7313 20.1046 87.9135 20.0227C88.0957 19.9409 88.3023 19.9318 88.491 19.9973C88.6797 20.0627 88.8362 20.1979 88.9285 20.375C89.0208 20.5521 89.0419 20.7579 88.9875 20.95L88.3531 22.7813C88.2998 22.9348 88.2 23.0678 88.0675 23.1619C87.9351 23.256 87.7766 23.3065 87.6141 23.3063ZM57.7109 29.8797C57.4815 29.8797 57.2611 29.79 57.0969 29.6297C56.8188 29.3516 56.6234 28.8672 56.2625 26.8719C56.1469 26.2282 56.1641 24.5532 56.1781 23.8657C55.7766 23.336 55.0203 22.2172 55.2031 21.5453C55.2422 21.325 55.3125 20.9313 55.6984 20.6641C55.8807 20.5426 56.0899 20.4675 56.3078 20.4453C56.4953 19.7891 56.9484 18.5922 57.8953 17.875C58.7703 17.211 60.5156 16.1422 62.4297 16.4578L63.0016 16.5422C64.3375 16.736 65.9984 16.9782 67.0078 18.1938C68.2297 19.6672 68.4 21.4875 68.4234 22.0094C68.4547 22.7391 68.55 23.6875 68.55 23.6922C68.5706 23.8871 68.5168 24.0826 68.3995 24.2396C68.2822 24.3966 68.1099 24.5036 67.9172 24.5391L66.875 24.7344C66.7641 24.7544 66.6503 24.7504 66.5411 24.7225C66.4319 24.6946 66.3301 24.6436 66.2423 24.573C66.1546 24.5023 66.0831 24.4136 66.0327 24.3128C65.9822 24.2121 65.954 24.1017 65.95 23.9891C65.8606 23.9225 65.7648 23.865 65.6641 23.8172C65.2016 23.6375 60.6484 22.6922 57.7297 22.1297C57.4351 22.0682 57.1372 22.0239 56.8375 21.9969C57.0297 22.3594 57.4031 22.9141 57.5469 23.086C57.6688 23.2328 57.75 23.4375 57.7469 23.6282C57.7219 24.5297 57.7156 26.1297 57.8 26.5938C58.0813 28.1469 58.225 28.5219 58.2719 28.6125C58.5766 28.9172 58.5422 29.3672 58.2359 29.6735C58.1664 29.7409 58.0843 29.7938 57.9941 29.8293C57.904 29.8647 57.8078 29.8818 57.7109 29.8797ZM57.9078 20.5719L58.0266 20.5938C58.3391 20.6563 65.6797 22.0782 66.3641 22.4203C66.5781 22.5297 66.7578 22.6391 66.9031 22.7532C66.8869 22.5283 66.8733 22.3033 66.8625 22.0782C66.85 21.7969 66.7375 20.3188 65.8047 19.1922C65.1797 18.4375 63.9594 18.261 62.7781 18.0891L62.1797 17.9985C60.7938 17.7797 59.3813 18.7094 58.8375 19.1203C58.3922 19.4594 58.0859 20.0782 57.9078 20.5719Z" fill="#231F20"/>
<path d="M64.3016 30.925C64.0712 30.9294 63.8443 30.8687 63.6469 30.75C63.5227 30.6751 63.4155 30.5751 63.3321 30.4565C63.2487 30.3379 63.191 30.2032 63.1625 30.0609C63.1341 29.9056 63.1535 29.7452 63.2181 29.601C63.2826 29.4569 63.3894 29.3357 63.5243 29.2534C63.6592 29.1712 63.8158 29.1318 63.9735 29.1404C64.1313 29.149 64.2827 29.2052 64.4078 29.3016C65.0469 28.8547 66.6047 26.8063 66.8422 26.1422C67.0172 25.6594 67.0266 24.4578 66.9938 23.8125C66.9883 23.71 67.0031 23.6074 67.0372 23.5106C67.0714 23.4139 67.1243 23.3247 67.193 23.2484C67.2616 23.1721 67.3446 23.11 67.4373 23.0658C67.5299 23.0216 67.6303 22.996 67.7328 22.9906C68.1781 22.9328 68.5313 23.3 68.5531 23.7297C68.5641 23.9328 68.6485 25.7375 68.3141 26.6734C68.0469 27.4141 65.9422 30.5141 64.8719 30.8344C64.6688 30.8953 64.4797 30.925 64.3016 30.925Z" fill="#231F20"/>
<path d="M78.825 18.8094C78.7805 18.8096 78.737 18.7965 78.7 18.7719C77.8414 18.2128 76.83 17.9349 75.8062 17.9766C75.6625 17.9891 75.5687 17.8813 75.5625 17.7501C75.5612 17.6879 75.5844 17.6276 75.6271 17.5823C75.6697 17.5371 75.7284 17.5103 75.7906 17.5079C76.5375 17.4907 77.2406 17.5985 77.9156 17.8532C78.275 17.9891 78.6234 18.1657 78.9515 18.3782C79.0037 18.4118 79.0404 18.4647 79.0536 18.5254C79.0667 18.586 79.0553 18.6494 79.0219 18.7016C79.0009 18.7349 78.9718 18.7624 78.9374 18.7815C78.903 18.8006 78.8644 18.8092 78.825 18.8094Z" fill="#546187"/>
<path d="M18.1266 71.053C19.5928 71.053 20.7813 69.8645 20.7813 68.3983C20.7813 66.9322 19.5928 65.7437 18.1266 65.7437C16.6605 65.7437 15.4719 66.9322 15.4719 68.3983C15.4719 69.8645 16.6605 71.053 18.1266 71.053Z" fill="#F1F2F2"/>
<path d="M18.1282 71.8343C17.2348 71.8073 16.3871 71.4335 15.7648 70.7921C15.1424 70.1507 14.7943 69.2921 14.7943 68.3983C14.7943 67.5046 15.1424 66.646 15.7648 66.0046C16.3871 65.3632 17.2348 64.9893 18.1282 64.9624C20.0219 64.9624 21.5641 66.503 21.5641 68.3983C21.5641 70.2937 20.0219 71.8343 18.1266 71.8343H18.1282ZM18.1282 66.5249C17.0938 66.5249 16.2532 67.3655 16.2532 68.3983C16.2532 69.4312 17.0938 70.2718 18.1282 70.2718C18.6118 70.252 19.0691 70.046 19.4043 69.6968C19.7395 69.3476 19.9266 68.8824 19.9266 68.3983C19.9266 67.9143 19.7395 67.449 19.4043 67.0999C19.0691 66.7507 18.6118 66.5447 18.1282 66.5249Z" fill="#231F20"/>
<path d="M35.9296 81.153C35.8927 81.1532 35.8569 81.1403 35.8285 81.1165C35.8002 81.0928 35.7812 81.0598 35.775 81.0233C35.6276 80.1366 35.2171 79.3146 34.5968 78.664C34.0874 78.1398 33.4553 77.751 32.7578 77.5327C32.7182 77.5205 32.6851 77.493 32.6658 77.4564C32.6464 77.4198 32.6424 77.377 32.6546 77.3374C32.6812 77.2577 32.764 77.2124 32.8515 77.2343C33.3718 77.3983 34.1375 77.7405 34.8218 78.4468C35.7078 79.3624 35.9937 80.4218 36.0843 80.9718C36.0911 81.0126 36.0814 81.0544 36.0574 81.0881C36.0334 81.1218 35.997 81.1446 35.9562 81.1515L35.9296 81.153ZM24.5359 91.439C24.4989 91.4391 24.4631 91.4262 24.4348 91.4024C24.4065 91.3787 24.3875 91.3457 24.3812 91.3093C24.2338 90.4225 23.8234 89.6005 23.2031 88.9499C22.693 88.4269 22.0611 88.0387 21.364 87.8202C21.2812 87.7937 21.2359 87.7046 21.2609 87.6233C21.2859 87.5421 21.3765 87.4983 21.4578 87.5202C22.2078 87.7561 22.8875 88.1765 23.4281 88.7327C24.314 89.6483 24.6 90.7077 24.6906 91.2577C24.6974 91.2985 24.6877 91.3404 24.6637 91.374C24.6396 91.4077 24.6032 91.4305 24.5625 91.4374L24.5359 91.439ZM40.7156 77.2952C40.6784 77.2958 40.6422 77.283 40.6135 77.2592C40.5849 77.2354 40.5657 77.2022 40.5593 77.1655C40.412 76.2788 40.0015 75.4567 39.3812 74.8061C38.8716 74.2825 38.2396 73.8943 37.5421 73.6765C37.5225 73.6702 37.5043 73.6602 37.4886 73.6469C37.4728 73.6337 37.4599 73.6174 37.4504 73.5991C37.441 73.5808 37.4353 73.5609 37.4336 73.5403C37.4319 73.5198 37.4343 73.4992 37.4406 73.4796C37.4671 73.3983 37.5453 73.3546 37.6375 73.3765C38.1578 73.5405 38.9218 73.8843 39.6062 74.5905C40.4937 75.5061 40.7781 76.564 40.8687 77.114C40.8755 77.1548 40.8658 77.1966 40.8418 77.2303C40.8178 77.264 40.7814 77.2868 40.7406 77.2936L40.7156 77.2952ZM23.2734 86.7186C23.2513 86.7188 23.2295 86.7143 23.2093 86.7054C23.1891 86.6965 23.171 86.6835 23.1562 86.6671C23.1293 86.6358 23.1157 86.5952 23.1183 86.5541C23.1209 86.5129 23.1396 86.4744 23.1703 86.4468L31.5046 79.0905C31.52 79.0767 31.5379 79.066 31.5574 79.0591C31.5769 79.0522 31.5976 79.0493 31.6182 79.0504C31.6388 79.0516 31.659 79.0569 31.6776 79.0659C31.6962 79.0749 31.7128 79.0875 31.7265 79.103C31.7537 79.1346 31.7674 79.1756 31.7644 79.2172C31.7615 79.2587 31.7423 79.2975 31.7109 79.3249L23.3781 86.6812C23.3488 86.7058 23.3117 86.7191 23.2734 86.7186ZM33.9609 76.6186C33.9289 76.6184 33.8977 76.6083 33.8716 76.5897C33.8455 76.5711 33.8257 76.545 33.8149 76.5148C33.8042 76.4846 33.803 76.4518 33.8115 76.421C33.82 76.3901 33.8378 76.3625 33.8625 76.3421L36.7828 73.9593C36.8148 73.9334 36.8557 73.9211 36.8966 73.9252C36.9376 73.9293 36.9753 73.9494 37.0015 73.9811C37.0276 74.0129 37.0401 74.0537 37.0363 74.0947C37.0325 74.1356 37.0127 74.1734 36.9812 74.1999L34.0593 76.5827C34.0314 76.6064 33.9959 76.6191 33.9593 76.6186H33.9609ZM35.2062 77.3593C35.1742 77.359 35.143 77.3489 35.1169 77.3303C35.0908 77.3118 35.071 77.2856 35.0603 77.2554C35.0495 77.2252 35.0483 77.1925 35.0568 77.1616C35.0653 77.1307 35.0831 77.1032 35.1078 77.0827L38.0296 74.7015C38.0454 74.6884 38.0636 74.6787 38.0831 74.6727C38.1027 74.6668 38.1232 74.6647 38.1436 74.6668C38.1639 74.6688 38.1837 74.6749 38.2016 74.6846C38.2196 74.6943 38.2355 74.7075 38.2484 74.7233C38.2745 74.7551 38.287 74.7959 38.2832 74.8369C38.2794 74.8778 38.2596 74.9156 38.2281 74.9421L35.3062 77.3249C35.2781 77.348 35.2426 77.3602 35.2062 77.3593ZM36.1859 78.478C36.1539 78.4778 36.1227 78.4677 36.0966 78.4491C36.0705 78.4305 36.0507 78.4044 36.0399 78.3742C36.0292 78.344 36.028 78.3112 36.0365 78.2803C36.045 78.2494 36.0628 78.2219 36.0875 78.2015L39.0093 75.8186C39.0413 75.7927 39.0822 75.7805 39.1232 75.7846C39.1642 75.7887 39.2019 75.8088 39.2281 75.8405C39.2542 75.8723 39.2667 75.9131 39.2629 75.9541C39.2591 75.995 39.2393 76.0328 39.2078 76.0593L36.2859 78.4436C36.2578 78.4667 36.2223 78.4789 36.1859 78.478ZM36.9421 80.3343C36.9101 80.334 36.8789 80.3239 36.8528 80.3053C36.8267 80.2868 36.8069 80.2606 36.7962 80.2304C36.7854 80.2002 36.7842 80.1675 36.7927 80.1366C36.8012 80.1057 36.819 80.0782 36.8437 80.0577L39.7656 77.6765C39.7976 77.6506 39.8385 77.6383 39.8795 77.6424C39.9204 77.6465 39.9581 77.6666 39.9843 77.6983C40.0104 77.7301 40.0229 77.7709 40.0191 77.8119C40.0153 77.8528 39.9955 77.8906 39.964 77.9171L37.0421 80.2999C37.014 80.323 36.9785 80.3352 36.9421 80.3343ZM24.5921 87.7452C24.57 87.7452 24.548 87.7404 24.5278 87.7313C24.5076 87.7221 24.4896 87.7088 24.475 87.6921C24.448 87.6608 24.4344 87.6202 24.4371 87.5791C24.4397 87.5379 24.4583 87.4994 24.489 87.4718L32.8234 80.1155C32.8388 80.1019 32.8567 80.0914 32.8761 80.0847C32.8956 80.078 32.9162 80.0751 32.9367 80.0764C32.9572 80.0776 32.9773 80.0829 32.9958 80.0919C33.0143 80.1009 33.0308 80.1134 33.0445 80.1288C33.0581 80.1442 33.0686 80.1621 33.0753 80.1816C33.082 80.201 33.0849 80.2216 33.0836 80.2421C33.0824 80.2626 33.0771 80.2827 33.0681 80.3012C33.0591 80.3197 33.0466 80.3363 33.0312 80.3499L24.6968 87.7061C24.6678 87.7314 24.6306 87.7453 24.5921 87.7452ZM25.6671 89.1608C25.6451 89.161 25.6232 89.1565 25.603 89.1476C25.5828 89.1387 25.5647 89.1257 25.55 89.1093C25.5224 89.0781 25.5082 89.0373 25.5105 88.9958C25.5129 88.9542 25.5315 88.9153 25.5625 88.8874L33.8968 81.5311C33.9123 81.5174 33.9303 81.5068 33.9498 81.5001C33.9694 81.4933 33.9901 81.4905 34.0107 81.4918C34.0313 81.4931 34.0515 81.4985 34.0701 81.5077C34.0886 81.5169 34.1051 81.5296 34.1187 81.5452C34.1456 81.5765 34.1592 81.6171 34.1566 81.6582C34.154 81.6994 34.1353 81.7379 34.1046 81.7655L25.7703 89.1218C25.7416 89.1466 25.7051 89.1605 25.6671 89.1608ZM57.2609 88.014C57.2334 88.0141 57.2063 88.0069 57.1824 87.9932C57.1586 87.9795 57.1387 87.9597 57.125 87.9358C57.1147 87.9179 57.1081 87.8981 57.1055 87.8776C57.1029 87.8571 57.1045 87.8363 57.11 87.8164C57.1155 87.7965 57.1249 87.7779 57.1377 87.7616C57.1504 87.7454 57.1663 87.7318 57.1843 87.7218L66.8093 82.1624C66.8455 82.1424 66.8881 82.1372 66.9281 82.148C66.968 82.1588 67.0022 82.1847 67.0234 82.2202C67.0337 82.238 67.0404 82.2577 67.0431 82.2782C67.0458 82.2986 67.0444 82.3194 67.039 82.3393C67.0337 82.3592 67.0244 82.3778 67.0118 82.3941C66.9992 82.4104 66.9835 82.4241 66.9656 82.4343L57.3406 87.9937C57.3167 88.007 57.2882 88.014 57.2609 88.014Z" fill="#00BFB4"/>
<path d="M66.2703 27.9548C66.2399 27.9549 66.21 27.9463 66.1844 27.9298C65.8956 27.7396 65.5984 27.5623 65.2938 27.3986C64.66 27.0666 63.9974 26.7931 63.3141 26.5814C62.3175 26.2748 61.2877 26.0886 60.2469 26.0267C59.0799 25.9559 57.9087 26.0367 56.7625 26.2673C56.6766 26.2923 56.5953 26.2314 56.5781 26.1454C56.5738 26.1254 56.5736 26.1047 56.5774 26.0846C56.5812 26.0645 56.5891 26.0453 56.6004 26.0283C56.6118 26.0112 56.6265 25.9966 56.6436 25.9853C56.6607 25.9741 56.6799 25.9663 56.7 25.9626C57.8724 25.7272 59.0703 25.6437 60.2641 25.7142C61.3314 25.778 62.3873 25.969 63.4094 26.2829C64.4526 26.6024 65.4449 27.069 66.3563 27.6689C66.384 27.6875 66.405 27.7145 66.4162 27.7459C66.4275 27.7774 66.4284 27.8116 66.4188 27.8435C66.4091 27.8755 66.3896 27.9036 66.3628 27.9236C66.3361 27.9436 66.3037 27.9546 66.2703 27.9548ZM66.4469 29.4204C66.417 29.4203 66.3877 29.4116 66.3625 29.3954C66.0737 29.2052 65.7765 29.0279 65.4719 28.8642C64.8382 28.5321 64.1756 28.2586 63.4922 28.047C62.4949 27.7406 61.4648 27.5539 60.4235 27.4908C59.2554 27.4197 58.0831 27.5006 56.936 27.7314C56.9159 27.7362 56.8951 27.7367 56.8748 27.7331C56.8545 27.7295 56.8351 27.7217 56.818 27.7103C56.8008 27.6988 56.7862 27.684 56.7751 27.6666C56.7639 27.6493 56.7564 27.6299 56.7531 27.6095C56.7488 27.5895 56.7486 27.5688 56.7524 27.5487C56.7562 27.5285 56.7641 27.5094 56.7754 27.4923C56.7868 27.4753 56.8015 27.4607 56.8186 27.4494C56.8357 27.4381 56.8549 27.4304 56.875 27.4267C58.0483 27.1898 59.2475 27.1068 60.4422 27.1798C61.5084 27.2436 62.5632 27.434 63.5844 27.747C64.6282 28.0663 65.621 28.533 66.5328 29.1329C66.5612 29.1513 66.5829 29.1784 66.5946 29.2101C66.6064 29.2418 66.6074 29.2765 66.5978 29.3089C66.5881 29.3414 66.5681 29.3697 66.5409 29.3899C66.5137 29.41 66.4807 29.4207 66.4469 29.4204Z" fill="#231F20"/>
<path d="M60.4656 29.2501C60.4352 29.2502 60.4053 29.2414 60.3797 29.2248C60.3542 29.2081 60.3341 29.1843 60.3219 29.1564L59.5406 27.4001C59.5317 27.3789 59.528 27.3559 59.5297 27.3329L59.5531 25.7939C59.5531 25.7079 59.6453 25.6376 59.7125 25.6423C59.7534 25.6435 59.7922 25.6608 59.8205 25.6903C59.8489 25.7198 59.8645 25.7592 59.8641 25.8001L59.8422 27.3033L60.6094 29.0298C60.6259 29.0676 60.6269 29.1103 60.6123 29.1489C60.5977 29.1874 60.5686 29.2187 60.5313 29.2361C60.5105 29.2448 60.4882 29.2506 60.4656 29.2501ZM61.5641 29.3954C61.5455 29.3953 61.527 29.3921 61.5094 29.3861C61.4902 29.3788 61.4726 29.3678 61.4577 29.3537C61.4428 29.3396 61.4307 29.3228 61.4223 29.3041C61.4139 29.2853 61.4093 29.2651 61.4087 29.2446C61.408 29.2241 61.4115 29.2037 61.4188 29.1845L62.0766 27.4267L62.2641 26.0689C62.275 25.9829 62.3578 25.9126 62.4406 25.9361C62.4609 25.9388 62.4804 25.9454 62.4981 25.9557C62.5157 25.966 62.5312 25.9796 62.5435 25.9959C62.5559 26.0122 62.5649 26.0307 62.57 26.0505C62.5751 26.0702 62.5763 26.0908 62.5735 26.1111L62.3781 27.5032L61.711 29.2939C61.6998 29.3238 61.6797 29.3495 61.6535 29.3677C61.6272 29.3859 61.596 29.3955 61.5641 29.3954Z" fill="#231F20"/>
</svg>
