<svg width="100" height="100" viewBox="0 0 100 100" fill="none" xmlns="http://www.w3.org/2000/svg">
<path d="M57.7969 43.7782C57.4578 43.7595 57.0265 43.7782 56.5578 43.8532C53.9734 44.2829 52.6047 46.1767 52.3234 48.1813H52.3797C52.9594 47.4126 53.9734 46.7751 55.3219 46.7751C57.4765 46.7751 58.9937 48.3313 58.9937 50.7126C58.9937 52.9407 57.4765 55.0032 54.9469 55.0032C52.3422 55.0032 50.6375 52.9782 50.6375 49.811C50.6375 47.4126 51.4969 45.5204 52.6969 44.322C53.7109 43.3282 55.0594 42.7095 56.5969 42.522C57.0828 42.447 57.4953 42.4282 57.7953 42.4282V43.7782H57.7969ZM57.3281 50.8048C57.3281 49.0626 56.3344 48.0126 54.8156 48.0126C53.8219 48.0126 52.9047 48.6313 52.4562 49.5126C52.3277 49.734 52.2623 49.9863 52.2672 50.2423C52.3047 52.2485 53.2219 53.7282 54.9469 53.7282C56.3719 53.7282 57.3265 52.547 57.3265 50.8063L57.3281 50.8048ZM65.5594 54.797V51.4798H59.9V50.3923L65.3343 42.6157H67.114V50.1876H68.8203V51.4798H67.114V54.797H65.5594ZM65.5594 50.1876V46.1204C65.5594 45.4829 65.5781 44.8454 65.6156 44.2079H65.5594C65.1844 44.922 64.8844 45.4454 64.5469 46.0079L61.5672 50.1485V50.1876H65.5594Z" fill="black"/>
<path d="M46.1859 75.5907C58.5364 75.5907 68.5484 65.5787 68.5484 53.2282C68.5484 40.8778 58.5364 30.8657 46.1859 30.8657C33.8355 30.8657 23.8234 40.8778 23.8234 53.2282C23.8234 65.5787 33.8355 75.5907 46.1859 75.5907Z" fill="#001716"/>
<path d="M63.5062 64.6376C75.8567 64.6376 85.8687 54.6256 85.8687 42.2751C85.8687 29.9246 75.8567 19.9126 63.5062 19.9126C51.1558 19.9126 41.1437 29.9246 41.1437 42.2751C41.1437 54.6256 51.1558 64.6376 63.5062 64.6376Z" fill="#00BFB4"/>
<path d="M15.9594 49.4172C15.6969 48.7047 15.0406 47.6829 14.5391 46.9532L14.0766 46.2844L13.4266 46.7719C13.2531 46.9032 12.3719 47.5891 12.15 48.3125C11.8984 49.1407 12.8281 51.0157 13.5484 51.4344C13.9766 51.6875 14.4703 51.8172 14.9438 51.8172C15.2688 51.8172 15.5844 51.7563 15.8625 51.6313L15.9719 50.8563L16.2063 50.1954C16.1377 49.9318 16.0553 49.6721 15.9594 49.4172Z" fill="#161A23"/>
<path d="M68.4328 58.2062C68.1469 56.0031 68.1735 55.6703 68.2516 54.7609C68.2781 54.4453 68.3094 54.0609 68.3375 53.4953C68.3531 53.125 68.3781 52.7609 68.4031 52.4062L68.4156 52.2531C68.5375 50.5953 68.6422 49.1656 67.8969 48.2625C66.9875 47.1641 66.4953 46.2891 66.475 46.2547C65.5375 38.6062 61.7781 31.5906 55.8922 26.4984L55.5828 26.3406L55.5094 26.1531L55.2281 25.9125L55.6735 26.2719L56.1563 25.9281C58.1737 24.4998 59.9799 22.7945 61.5219 20.8625L61.7594 20.5656L61.6703 20.1937C60.461 15.1797 57.8078 10.6672 53.9156 7.07656C53.7392 6.95274 53.56 6.83292 53.3781 6.71719L52.8891 6.40469L52.9516 6.35312L51.8422 5.84219C51.6926 5.77107 51.5381 5.71101 51.3797 5.6625L51.0656 5.57812L50.7844 5.74063C50.2578 6.04531 48.8688 7.1125 48.2953 7.55781L47.211 8.39844L48.8156 9.03125H48.8422C48.5029 9.07489 48.1903 9.23836 47.961 9.49219C47.6031 9.86875 46.7313 10.7109 46.061 11.3516L45.186 12.1891L46.311 12.6406C46.8266 12.8484 47.4156 13.075 47.8391 13.2109C47.9016 13.2312 47.9688 13.2484 48.0328 13.2641L46.7344 13.1172L47.6531 14.5078C47.3795 14.4603 47.1044 14.4222 46.8281 14.3937L45.4281 14.2437L45.8531 15.1187C45.7948 15.0106 45.7349 14.9033 45.6735 14.7969L45.35 14.2844L44.7703 14.4359L44.5735 14.5078C44.3813 14.6031 44.186 14.7391 43.9922 14.8719C44.1422 14.7687 44.2891 14.6594 44.4422 14.5766L45.2235 14.1484L44.6969 13.4297C44.5203 13.1875 43.6828 12.4109 42.65 11.7219C41.9703 11.2656 41.0969 11.4953 39.8969 12.0156C39.5969 12.1437 39.3 12.2734 39.0063 12.375C37.75 12.8031 37.2563 13.7922 36.6313 15.0422C36.275 15.7562 36.3938 16.7891 37.0188 18.3937L37.4625 19.5359L38.311 18.65C38.5203 18.4312 38.7906 18.1625 39.1078 17.8578C38.661 18.2922 38.2016 18.7609 37.9156 19.0812L37.4625 19.5922L37.9078 20.1094C38.4797 20.775 39.375 21.5437 40.0797 21.9766C41.236 22.6844 41.9141 23.5344 41.986 24.3703C42.0328 24.9141 41.7828 25.3922 41.5172 25.8969C41.2672 26.3687 41.011 26.8547 41.011 27.4047C41.011 30.3875 43.5531 32.8156 46.6828 32.8156H46.7125L45.2438 33.1187L46.336 34.1484C49.6694 37.2782 51.7331 41.5263 52.1328 46.0812C52.1781 46.6094 52.2016 47.1469 52.2078 47.6812L51.4703 47.3062L51.1391 48.0656C50.1015 50.4146 49.5641 52.9539 49.561 55.5219C49.561 57.2984 49.811 59.0531 50.2766 60.6187L50.3813 61.375C50.3971 63.4466 50.0644 65.506 49.3969 67.4672L48.4313 69.8625C47.1078 70.6687 44.025 72.9172 44.025 76.4172C43.9844 78.4062 42.7625 80.1078 40.9844 80.5765L40.461 80.7703C39.2953 81.3031 39.1703 82.8109 39.1703 83.4359C39.1703 83.7984 39.361 84.1672 39.7078 84.7172L39.7922 85.0078C38.6349 85.945 37.8358 87.2523 37.5293 88.7096C37.2229 90.1669 37.4277 91.6854 38.1094 93.0094L38.3188 93.4172L41.9328 93.55C43.0813 93.55 43.6563 92.4078 43.6563 91.7672C43.6563 83.5 47.9141 76.0672 55.05 71.8844L56.9594 70.7641L54.7719 70.4375C54.3172 70.3703 53.9047 70.3062 53.5235 70.2484C55.3719 70.5312 58.3703 70.9656 59.7391 71.164L60.4672 71.2687C60.3578 71.7672 60.236 72.2375 60.1 72.6562L59.925 73.1953C59.4281 74.7078 59.0969 75.7047 59.4485 77.8687C59.8391 80.275 59.9047 81.389 59.9047 82.9812C59.9047 83.8578 59.6813 85.1719 59.4985 86.2312C59.4156 86.7094 59.3172 87.2906 59.2938 87.55L59.275 87.6844L59.3281 87.8406C59.3016 88.0437 58.7641 88.6375 58.2844 89.1672C57.8063 89.6922 57.5438 89.9937 57.4344 90.1703C57.3328 90.3328 57.1063 90.5515 56.8313 90.8156C55.7735 91.8375 55.4438 92.3312 55.4781 92.8422C55.5453 93.8422 56.1656 94.3422 57.4344 94.4047C57.7125 94.4187 58.0688 94.4234 58.4625 94.4234C59.0422 94.4234 59.7 94.4125 60.2953 94.4015C60.9719 94.389 61.3953 94.3859 61.6703 94.3859L62.1641 94.389L62.3766 93.9437C62.736 93.1969 63.6156 90.7656 63.6156 89.9781C63.6156 89.7125 63.5188 89.475 63.3922 89.1656C63.0891 88.4281 62.6735 87.4187 63.225 85.0265C63.5016 83.8344 63.9406 82.9172 64.3688 82.0266C65.1563 80.3812 66.0485 78.5172 66.0891 74.5484C66.1531 68.4953 66.55 67.1656 67.5219 64.4844L67.7156 63.9484C68.525 61.7375 68.7953 60.9906 68.4328 58.2062ZM41.8953 17.3828L41.8375 17.5187C41.8234 17.5548 41.8067 17.5898 41.7875 17.6234L41.8953 17.3828ZM41.2297 17.7422H41.636C41.536 17.7734 41.3766 17.7687 41.1063 17.7312C41.025 17.7203 40.9344 17.7078 40.8328 17.6969L41.2297 17.7422ZM40.6406 17.6781L39.8078 17.6109C40.0219 17.6266 40.3078 17.6484 40.6406 17.6781ZM49.5828 13.2094L49.6078 13.2406L49.2328 13.2969C49.3703 13.2734 49.4891 13.2406 49.5813 13.2062L49.5828 13.2094ZM52.8016 28.5937C51.9547 27.2078 51.9578 25.1484 52.8063 23.2172L53.0719 22.6156L52.8078 23.2156C51.9703 25.1172 51.9672 27.2297 52.8016 28.5937ZM49.7328 9.10312C49.6674 9.08969 49.6018 9.07719 49.536 9.06562L49.7422 9.09531L49.8781 8.97812L50.7219 9.36875C50.3988 9.2573 50.0683 9.16854 49.7328 9.10312ZM47.1781 19.9937L47.0813 21.0562C46.9406 21.1062 46.8 21.1656 46.6656 21.2281L46.8516 20.9156C46.9453 20.6766 47.0766 20.3281 47.1781 19.9937ZM46.7531 17.325L46.7594 17.3437C46.7573 17.337 46.7552 17.3302 46.7531 17.3234V17.325Z" fill="#EDB29F"/>
<path d="M42.6313 79.9578C42.4078 80.5843 41.5781 81.1187 41.6781 82.4734C41.7766 83.775 42.6078 84.5078 43.1938 84.5718C43.7797 84.6375 45.3094 82.775 45.3094 82.775L43.8125 88.4375L43.7078 91.7234L43.1188 93.9218L40.3063 94.0937L39.0906 93.4453L37.4438 90.8546L37.8844 87.6546L39.9109 84.9171L39.2547 82.3828L39.775 81.3421L42.6313 79.9578Z" fill="#00BFB4"/>
<path d="M39.9703 84.0344C40.6547 84.7188 41.1422 85.8907 41.4844 86.0125C41.8266 86.1344 41.3031 86.7125 41.1188 87.6485C40.9406 88.5469 41.1188 89.7235 41.1188 89.7235C41.1188 89.7235 39.0672 87.5516 39.0188 86.8797C38.9703 86.2079 39.9719 84.036 39.9719 84.036L39.9703 84.0344ZM44.8734 85.125C43.9859 85.5079 43.5609 86.4141 43.2 86.4016C42.8375 86.3875 43.0656 87.1125 42.9344 88.0579C42.8 89.0141 42.5406 90.0094 42.4594 89.9844C42.4594 89.9844 44.1203 88.8391 44.4141 88.2344C44.7094 87.6282 44.8734 85.125 44.8734 85.125Z" fill="#001716"/>
<path d="M42.0391 24.3281C42.0391 24.3281 44.4828 22.6672 45.5734 21.9469C46.6656 21.2266 49.3766 19.7047 49.3766 19.7047L50.0734 18.7656L53.4672 21.2266L54.9516 18.3359L58.2094 24.3281L56.1562 25.9297L57.4312 27.7828L62.5609 34.3984L66.5281 43.4828L65.5562 47.4328L60.2828 48.6531L54.0609 48.0047L51.4703 45.0453L50.9875 40.8922L48.8656 36.9359L46.3344 34.1484L45.2437 33.1187L41.6375 29.8641L41.0641 27.3625L42.0391 24.3281Z" fill="#00BFB4"/>
<path d="M41.2656 81.0312C41.1188 81.4953 40.6484 82.1156 40.5078 82.8625C40.3609 83.6438 40.8203 84.1578 40.6547 84.7188C40.4875 85.2813 40.5078 85.2062 40.1656 85.9156C39.8234 86.625 39.7188 86.9312 39.5469 87.6891C39.375 88.4469 39.2094 89.8562 39.2984 90.4891C39.3844 91.0906 40.3078 94.0938 40.3078 94.0938L38.2141 92.6047L37.3344 89.7719L37.7484 87.4531L38.8234 85.7922L39.4125 84.0688C39.4125 84.0688 39.1891 82.1062 39.2984 81.9594C39.4078 81.8125 40.0484 81.0328 40.0484 81.0328H41.2641L41.2656 81.0312Z" fill="#001716"/>
<path d="M52.2531 48.4265C52.0459 48.4265 51.8472 48.3442 51.7007 48.1976C51.5542 48.0511 51.4719 47.8524 51.4719 47.6452C51.4681 44.5555 50.6639 41.5195 49.1375 38.8332C47.6111 36.1469 45.4148 33.9019 42.7625 32.3171C42.5843 32.211 42.4555 32.0385 42.4046 31.8375C42.3536 31.6364 42.3845 31.4234 42.4906 31.2452C42.5967 31.067 42.7692 30.9383 42.9702 30.8873C43.1713 30.8363 43.3843 30.8673 43.5625 30.9733C46.4472 32.697 48.836 35.1389 50.4961 38.0607C52.1561 40.9826 53.0306 44.2847 53.0344 47.6452C53.0344 47.8524 52.9521 48.0511 52.8055 48.1976C52.659 48.3442 52.4603 48.4265 52.2531 48.4265Z" fill="#231F20"/>
<path d="M38.3109 18.6499L37.1391 17.8093L36.7969 15.578L37.725 13.2515L39.8969 12.0155L41.7875 11.478L43.1625 12.0827L44.2188 13.2062L45.225 14.1483L44.0234 14.4655L41.8906 17.4749L40.7188 17.6374L39.8078 17.6108L38.3109 18.6499Z" fill="#546187"/>
<path d="M39.0656 17.3829C39.0656 17.3829 39.1156 16.9532 39.6719 16.211C40.1312 15.6001 41.0672 14.5423 42.2406 13.9923C43.4359 13.4298 44.714 13.0142 44.714 13.0142L45.1125 13.9329L42.925 15.2985L41.6375 17.5017L39.9687 17.6235L39.0656 17.3829Z" fill="#3D4760"/>
<path d="M46.7688 33.5704C43.1938 33.5704 40.2844 30.786 40.2844 27.361C40.2844 26.6204 40.5985 26.0204 40.8781 25.4907C41.0969 25.0719 41.2891 24.7094 41.261 24.3969C41.2094 23.8313 40.636 23.1579 39.7266 22.6001C38.8813 22.0813 37.7938 21.1219 37.1953 20.3688C37.1452 20.306 37.0967 20.242 37.05 20.1766C36.9599 20.0892 36.891 19.9823 36.8485 19.8641C36.7844 19.7517 36.731 19.6334 36.6891 19.511C36.6547 19.4063 36.5938 19.2579 36.5203 19.0797C36.0594 17.9438 35.2875 16.0454 35.9828 14.6516C36.6328 13.3532 37.2485 12.1235 38.8078 11.5922C39.0781 11.5001 39.3547 11.3782 39.6328 11.2579C40.6703 10.8079 41.961 10.2454 43.1375 11.0297C44.0031 11.6079 45.0172 12.4422 45.4063 12.9719C45.5625 13.0219 45.8703 13.0719 46.086 13.1079L46.5578 13.1922C47.3266 13.3454 48.0266 13.7469 48.1047 13.7907C48.2638 13.8831 48.3852 14.0288 48.4474 14.202C48.5096 14.3752 48.5087 14.5648 48.4449 14.7374C48.381 14.9099 48.2582 15.0544 48.0982 15.1454C47.9383 15.2363 47.7513 15.2678 47.5703 15.2344C46.6172 15.0641 45.3156 14.9969 44.9735 15.1641C44.2719 15.5141 43.4578 16.2829 43.25 16.5844C42.9993 16.9585 42.7857 17.3562 42.6125 17.7719C42.2547 18.6297 41.4797 18.5188 41.0594 18.4641C40.9453 18.4485 40.8094 18.4297 40.6516 18.4157L39.7406 18.3422C39.2953 18.7704 38.8344 19.2391 38.5531 19.5563C39.0672 20.1532 39.9016 20.8751 40.5422 21.2672C41.911 22.1063 42.7188 23.1688 42.8172 24.2579C42.8844 25.0297 42.5531 25.6626 42.261 26.2188C42.0469 26.6235 41.8453 27.0063 41.8453 27.361C41.8453 29.9235 44.0531 32.0079 46.7672 32.0079C46.9744 32.0079 47.1731 32.0902 47.3196 32.2367C47.4661 32.3832 47.5485 32.5819 47.5485 32.7891C47.5485 32.9963 47.4661 33.195 47.3196 33.3415C47.1731 33.4881 46.976 33.5704 46.7688 33.5704ZM41.8125 12.2001C41.4219 12.2001 40.9219 12.4032 40.2547 12.6907C39.9459 12.8299 39.6316 12.9566 39.3125 13.0704C38.4016 13.3829 38.0235 14.0672 37.3813 15.3501C37.061 15.9907 37.4719 17.2313 37.7985 18.0688C38.0797 17.7766 38.4422 17.4157 38.9141 16.9704C38.9918 16.8975 39.0836 16.8412 39.1838 16.8049C39.284 16.7686 39.3905 16.7532 39.4969 16.7594C39.4969 16.7594 40.0281 16.7907 40.7875 16.8594C40.9781 16.8751 41.1375 16.8969 41.275 16.9172H41.2813C41.4813 16.4797 41.7281 16.0376 41.9641 15.6954C42.3375 15.1563 43.2656 14.3172 44.1203 13.8485C44.0188 13.7141 43.286 13.0047 42.2719 12.3297C42.1356 12.2406 41.9753 12.1953 41.8125 12.2001Z" fill="#231F20"/>
<path d="M51.1391 48.0655C51.4703 47.3062 52.4703 48.0577 55.4 48.0655C58.3297 48.0733 61.7484 48.5452 63.1156 48.0655C64.4828 47.5843 66.5281 46.2124 66.5281 46.2124L68.5906 49.0515C68.5906 49.0515 68.75 54.9327 68.5906 56.5687C68.4344 58.2062 68.1422 62.8655 68.1422 62.8655L66.6313 67.4093L66.3984 69.0655L61.025 68.4937L59.7391 71.164L53.5234 70.2483L48.8594 68.889L50.6156 63.014L49.5406 57.839L49.9828 51.7718L51.1391 48.0655Z" fill="#32313C"/>
<path d="M41.9578 95.1937L40.2719 95.1328C38.6813 95.0718 37.5828 93.8656 37.2609 91.8203C37.1906 91.3765 37.1703 89.95 37.1703 89.7734C37.1703 88.2187 37.3781 86.2797 38.8969 84.7578C38.6656 84.3656 38.4406 83.8906 38.4406 83.3922C38.4406 81.775 39.1188 80.5031 40.2531 79.9906L40.8438 79.7781C42.2906 79.3953 43.2953 77.9296 43.2953 76.2718L43.2969 76.2328C43.3391 73.7687 44.7781 71.425 47.3578 69.6234C47.7111 69.3637 47.9814 69.0071 48.1359 68.5968L48.7109 67.1703C49.3328 65.3515 49.6563 63.4046 49.6563 61.4203L49.5781 60.7843C49.0775 59.0608 48.8265 57.2744 48.8328 55.4796C48.8328 52.0875 49.7203 48.7453 51.4016 45.8234C51.4527 45.7343 51.5208 45.6562 51.6021 45.5935C51.6834 45.5308 51.7762 45.4847 51.8753 45.4578C51.9744 45.431 52.0778 45.4239 52.1796 45.4371C52.2815 45.4502 52.3797 45.4832 52.4688 45.5343C52.5578 45.5854 52.6359 45.6536 52.6986 45.7348C52.7614 45.8161 52.8075 45.909 52.8343 46.0081C52.8611 46.1072 52.8682 46.2106 52.8551 46.3124C52.842 46.4142 52.8089 46.5125 52.7578 46.6015C51.2084 49.3037 50.3938 52.3647 50.3953 55.4796C50.3953 57.1828 50.6328 58.8625 51.1047 60.4765L51.2141 61.3312C51.2283 63.5027 50.8765 65.661 50.1734 67.7156L49.5844 69.1812C49.2953 69.9015 48.8344 70.4968 48.2516 70.9047C46.9859 71.789 44.8578 73.675 44.8578 76.3468L44.8563 76.3906C44.8094 78.7312 43.3625 80.7297 41.3047 81.2687L40.8391 81.439C40.0672 81.789 40.0031 83.0218 40.0031 83.3922C40.0031 83.5921 40.2672 84.0125 40.425 84.2625L40.5844 84.5187C40.6867 84.6919 40.7183 84.8978 40.6726 85.0937C40.6269 85.2896 40.5075 85.4603 40.3391 85.5703C39.1891 86.5078 38.7328 87.7218 38.7328 89.7734C38.7328 90.2203 38.7672 91.3359 38.8047 91.575C38.9438 92.4656 39.3219 93.5343 40.3313 93.5703L41.9875 93.6328C42.6359 93.6328 42.9281 92.8703 42.9281 92.6297C42.9281 83.4 48.1156 74.5203 55.8422 70.5312C55.9334 70.484 56.033 70.4553 56.1353 70.4466C56.2377 70.4379 56.3407 70.4494 56.4386 70.4805C56.5364 70.5116 56.6272 70.5617 56.7057 70.6279C56.7842 70.6941 56.8489 70.7752 56.8961 70.8664C56.9433 70.9576 56.9721 71.0572 56.9808 71.1595C56.9895 71.2618 56.9779 71.3649 56.9468 71.4627C56.9157 71.5606 56.8656 71.6514 56.7994 71.7299C56.7332 71.8084 56.6521 71.8731 56.5609 71.9203C49.3422 75.6468 44.4906 83.9672 44.4906 92.6297C44.4906 93.6765 43.5875 95.1937 41.9578 95.1937ZM55.625 27.0937C55.4571 27.0945 55.2935 27.0411 55.1584 26.9415C55.0233 26.8419 54.924 26.7013 54.8752 26.5407C54.8264 26.3801 54.8307 26.208 54.8876 26.0501C54.9444 25.8921 55.0507 25.7567 55.1906 25.664C57.3782 24.1961 59.3257 22.3989 60.9641 20.3359C59.7923 15.4715 57.202 11.0648 53.5219 7.67495C52.6734 7.07963 51.6234 6.47963 51.2281 6.37495C50.8641 6.58588 49.8672 7.32495 48.8266 8.13276L49.1125 8.24526C49.2079 8.28301 49.295 8.33919 49.3687 8.41059C49.4424 8.48198 49.5013 8.56719 49.5421 8.66136C49.5828 8.75552 49.6047 8.8568 49.6063 8.95939C49.6079 9.06199 49.5893 9.16391 49.5516 9.25932C49.5138 9.35474 49.4576 9.44178 49.3862 9.51548C49.3148 9.58918 49.2296 9.6481 49.1355 9.68887C49.0413 9.72964 48.94 9.75147 48.8374 9.7531C48.7348 9.75473 48.6329 9.73614 48.5375 9.69838L46.9875 9.08589C46.8596 9.03634 46.7471 8.95388 46.6613 8.84684C46.5756 8.73981 46.5196 8.61201 46.4992 8.47639C46.4787 8.34077 46.4945 8.20216 46.5448 8.07458C46.5952 7.94701 46.6784 7.83502 46.7859 7.74995C47.7703 6.96401 50.1281 5.10932 50.7594 4.86713C51.0266 4.76713 51.7359 4.49838 54.5063 6.46401C58.6078 10.2499 61.3672 15.0296 62.5687 20.3468C62.5947 20.4586 62.5955 20.5747 62.5712 20.6868C62.5469 20.7989 62.498 20.9043 62.4281 20.9953C60.6426 23.3159 58.4916 25.3307 56.0594 26.9609C55.9312 27.0478 55.7799 27.0941 55.625 27.0937Z" fill="#231F20"/>
<path d="M59.2937 87.55C60.0391 87.5266 60.575 87.4281 61.0641 87.9172C61.5531 88.4047 62.4484 88.8172 62.9203 88.9906C63.3922 89.1656 63.5062 90.5531 63.5062 90.5531L62.7922 93.0328L62.1047 94.361H59.6984L56.8516 94.2782L55.6266 93.2953L55.7906 91.9203L57.4844 90.1313L58.2844 89.1672L59.2937 87.55Z" fill="#00BFB4"/>
<path d="M52.861 29.3391C52.7275 29.3393 52.5961 29.3052 52.4796 29.2401C52.363 29.175 52.2652 29.081 52.1953 28.9672C51.211 27.3657 51.1922 25.025 52.1453 22.8578C52.4594 22.1453 52.7906 21.3672 53.111 20.6157C53.5266 19.6469 53.9219 18.7188 54.2422 18.0157C54.8703 16.625 54.7688 14.9625 53.9516 13.3313C53.3938 12.2141 52.5594 11.6563 51.95 11.2469C51.4813 10.9344 51.111 10.6844 50.9547 10.2547C50.8985 10.2141 50.4516 9.99065 49.6328 9.82659C49.0969 9.71878 48.8485 9.70784 48.5813 9.98753C48.2188 10.3688 47.3328 11.2235 46.6531 11.8735C47.1531 12.0766 47.7203 12.2938 48.1266 12.4235C48.7797 12.6313 49.3672 12.4344 49.3735 12.4328C49.5234 12.3811 49.6854 12.3755 49.8386 12.4167C49.9918 12.4579 50.1291 12.5441 50.2328 12.6641C50.7973 13.3338 51.1982 14.1256 51.4037 14.977C51.6092 15.8284 51.6138 16.7159 51.417 17.5693C51.2203 18.4228 50.8276 19.2187 50.27 19.8942C49.7125 20.5696 49.0054 21.106 48.2047 21.461L47.4891 21.7141C46.6193 22.007 45.8721 22.5816 45.3656 23.3469C45.3092 23.4325 45.2365 23.5061 45.1516 23.5635C45.0667 23.621 44.9714 23.6612 44.871 23.6818C44.7706 23.7024 44.6671 23.703 44.5664 23.6836C44.4658 23.6642 44.37 23.6252 44.2844 23.5688C44.1988 23.5124 44.1252 23.4396 44.0678 23.3547C44.0103 23.2699 43.9701 23.1745 43.9495 23.0741C43.9289 22.9737 43.9283 22.8702 43.9477 22.7696C43.9671 22.6689 44.0061 22.5731 44.0625 22.4875C44.7576 21.4333 45.7849 20.6414 46.9813 20.2375L47.6297 20.0094C49.0469 19.3782 50 17.9157 50 16.3016C50 15.4953 49.761 14.7078 49.3156 14.0422C48.7577 14.1232 48.1887 14.0789 47.65 13.9125C46.6906 13.6063 45.0078 12.886 44.936 12.8547C44.8168 12.8038 44.7122 12.724 44.6316 12.6226C44.551 12.5212 44.4968 12.4013 44.474 12.2737C44.4512 12.1462 44.4605 12.015 44.5011 11.8919C44.5416 11.7689 44.6121 11.6578 44.7063 11.5688C44.7281 11.5485 46.8656 9.52503 47.4453 8.91253C48.336 7.97503 49.4063 8.18596 49.9188 8.29065C52.0594 8.71878 52.3328 9.47347 52.4235 9.72034C52.4203 9.68909 52.6531 9.83909 52.8203 9.94847C53.4875 10.3969 54.6063 11.1453 55.35 12.6328C56.3813 14.6922 56.4922 16.8328 55.6641 18.6594C55.2843 19.5127 54.9124 20.3695 54.5485 21.2297C54.225 21.986 53.8922 22.7688 53.5766 23.486C52.836 25.1657 52.8172 26.9969 53.5266 28.1485C53.5994 28.2669 53.6394 28.4025 53.6423 28.5415C53.6452 28.6805 53.6109 28.8177 53.5431 28.9391C53.4753 29.0604 53.3763 29.1614 53.2564 29.2318C53.1365 29.3021 53 29.3391 52.861 29.3391Z" fill="#231F20"/>
<path d="M47.5063 21.461L46.0688 20.8438C46.0735 20.8344 46.3313 20.2344 46.4813 19.7282C46.5797 19.3922 46.2281 18.1204 46.0594 17.5126C45.8004 16.5825 45.4117 15.6936 44.9047 14.8719C44.7975 14.6944 44.7649 14.4817 44.8141 14.2802C44.8633 14.0788 44.9902 13.905 45.1672 13.7969C45.3449 13.6905 45.5574 13.6584 45.7586 13.7075C45.9598 13.7567 46.1335 13.8831 46.2422 14.0594C46.8422 15.0485 47.2719 16.0329 47.5594 17.0688C47.9406 18.4485 48.1891 19.4626 47.9797 20.1704C47.8047 20.7626 47.5063 21.461 47.5063 21.461Z" fill="#231F20"/>
<path d="M61.2594 90.9437C61.5031 91.3843 62.0953 92.4374 62.2359 93.1906C62.3766 93.9437 63.3016 91.5609 63.3016 91.5609L62.2812 89.7234L61.2594 90.9437Z" fill="#001716"/>
<path d="M58.6594 90.6391C58.175 90.5094 57.5969 90.7688 56.8312 90.8156C56.0656 90.8625 58.1047 89.7234 58.1047 89.7234L59.5953 89.3516L58.6594 90.6391Z" fill="#BCBEC0"/>
<path d="M55.6266 93.2967C55.6266 93.2967 54.9609 92.067 55.7906 91.9217C56.6203 91.7764 57.3047 91.4811 57.6469 91.9217C57.9875 92.3592 58.0844 92.653 58.5734 93.0436C59.0625 93.4342 59.0937 93.5811 59.5656 93.728C60.0391 93.8733 60.2953 94.4014 60.2953 94.4014L58.0375 94.4233L55.6266 93.2967Z" fill="#001716"/>
<path d="M58.4906 95.1626C58.0906 95.1626 57.7265 95.1564 57.4437 95.1423C55.3375 95.0376 54.8172 93.8392 54.75 92.8517C54.7031 92.1298 55.0125 91.3361 55.5797 90.7314C56.1375 90.1376 56.8687 89.7892 57.6578 89.7439C57.9547 89.4251 58.4625 88.3376 58.5719 87.9017C58.5172 87.5908 58.5984 87.1158 58.7797 86.0579C58.9562 85.0314 59.1766 83.7517 59.1766 82.9392C59.1766 81.3923 59.1125 80.3048 58.7312 77.9501C58.35 75.5986 58.7219 74.4704 59.2375 72.9064L59.4094 72.3782C59.7687 71.2564 60.0312 69.7001 60.2594 68.3251C60.3906 67.5501 60.5094 66.8454 60.6281 66.3251C60.6507 66.2251 60.6927 66.1305 60.7519 66.0467C60.811 65.9629 60.8861 65.8916 60.9727 65.8368C61.0594 65.7821 61.1561 65.7449 61.2571 65.7275C61.3582 65.7101 61.4617 65.7127 61.5617 65.7353C61.6617 65.7578 61.7563 65.7999 61.8401 65.859C61.9239 65.9182 61.9952 65.9932 62.05 66.0799C62.1048 66.1666 62.1419 66.2632 62.1593 66.3643C62.1768 66.4653 62.1741 66.5688 62.1516 66.6689C62.0375 67.1673 61.9266 67.8407 61.8016 68.5829C61.5625 70.0095 61.2922 71.6267 60.8953 72.8579L60.7203 73.3954C60.2422 74.8486 59.9516 75.7267 60.2719 77.7001C60.6719 80.1611 60.7391 81.3064 60.7391 82.9392C60.7391 83.8845 60.5078 85.2361 60.3203 86.322C60.2406 86.7892 60.1422 87.3532 60.1234 87.5923C60.2016 87.8892 60.1484 88.447 59.5344 89.6673C58.9641 90.7986 58.4406 91.3017 57.8359 91.3017C57.2703 91.3017 56.8953 91.6142 56.7219 91.8001C56.4515 92.0861 56.289 92.4595 56.3094 92.7486C56.3328 93.0923 56.3609 93.5236 57.5219 93.5829C58.1937 93.6126 59.3437 93.5954 60.3203 93.5783C61.0156 93.5658 61.4531 93.5658 61.725 93.5626C62.125 92.7345 62.8875 90.4814 62.8875 89.9345C62.8875 89.822 62.8141 89.6454 62.7234 89.4204C62.4 88.6329 61.9109 87.4423 62.5172 84.8095C62.8109 83.5392 63.2703 82.5767 63.7156 81.6486C64.5047 80.0001 65.3203 78.2954 65.3609 74.497C65.4266 68.3158 65.8375 66.9454 66.8406 64.1767L67.0344 63.6407C67.8344 61.4517 68.05 60.8626 67.7109 58.2657C67.4141 55.9829 67.4453 55.5986 67.5234 54.6704C67.55 54.3579 67.5828 53.9782 67.6094 53.4204C67.6266 52.9876 67.6594 52.5626 67.6875 52.1532C67.7969 50.6626 67.8922 49.3782 67.3469 48.7173C66.7889 48.0519 66.2867 47.3417 65.8453 46.5939C65.7959 46.5049 65.7641 46.4073 65.7516 46.3064C64.7766 38.3532 60.7703 31.2126 54.4656 26.197C54.3155 26.0641 54.2222 25.8786 54.2047 25.6789C54.1873 25.4792 54.2472 25.2804 54.372 25.1235C54.4968 24.9667 54.6771 24.8637 54.8756 24.8357C55.0741 24.8078 55.2758 24.8572 55.439 24.9735C62.0219 30.2126 66.2234 37.6579 67.2828 45.9548C67.4453 46.2267 67.8797 46.9111 68.5516 47.7236C69.4969 48.8673 69.375 50.5189 69.2469 52.2673C69.2187 52.6642 69.1875 53.072 69.1687 53.4892C69.1422 54.0751 69.1078 54.4736 69.0812 54.8017C69.0109 55.6345 68.9844 55.9454 69.2609 58.0642C69.6484 61.0392 69.3375 61.8939 68.5031 64.1767L68.3094 64.7079C67.4031 67.2095 66.9891 68.3532 66.9234 74.5126C66.8797 78.6579 65.9469 80.6064 65.125 82.322C64.6969 83.2142 64.2937 84.0564 64.0391 85.1611C63.5437 87.3095 63.9031 88.1861 64.1672 88.8267C64.3078 89.1642 64.45 89.5142 64.45 89.9361C64.45 90.8548 63.2828 94.4517 62.6344 94.9611C62.5337 95.0379 62.4177 95.0921 62.2942 95.1198C62.1706 95.1476 62.0426 95.1484 61.9187 95.122C61.8203 95.122 61.0016 95.1298 60.3469 95.1408C59.7282 95.1533 59.1094 95.1606 58.4906 95.1626Z" fill="#231F20"/>
<path d="M60.4063 71.9999C60.4063 71.9999 54.8906 71.2093 52.7391 70.8671C52.5344 70.8348 52.3509 70.7224 52.229 70.5548C52.1071 70.3872 52.0567 70.178 52.0891 69.9733C52.1214 69.7686 52.2337 69.5851 52.4013 69.4632C52.5689 69.3413 52.7781 69.291 52.9828 69.3233C55.1281 69.6655 60.6281 70.453 60.6297 70.453L60.4063 71.9999ZM15 52.5499C14.3859 52.5499 13.7547 52.3874 13.2078 52.0686C12.2766 51.5218 11.0609 49.3233 11.4578 48.0374C11.7578 47.053 13.1656 45.9343 13.5703 45.628L37.3516 20.4405C37.422 20.3659 37.5065 20.306 37.6002 20.264C37.6938 20.2221 37.7949 20.199 37.8974 20.1961C38 20.1932 38.1022 20.2105 38.198 20.2471C38.2939 20.2837 38.3817 20.3388 38.4562 20.4093C38.5308 20.4798 38.5908 20.5642 38.6327 20.6579C38.6747 20.7516 38.6978 20.8526 38.7007 20.9551C38.7036 21.0577 38.6862 21.1599 38.6497 21.2558C38.6131 21.3516 38.558 21.4394 38.4875 21.514L15.1031 46.2811C15.5953 46.9811 16.4203 48.2202 16.7437 49.1061C17.0031 49.8061 17.6828 51.6577 16.2328 52.3046C15.8578 52.4718 15.4328 52.5515 15.0016 52.5515L15 52.5499ZM13.9437 47.3436C13.4562 47.778 13.0297 48.2452 12.9531 48.4983C12.8234 48.9171 13.5469 50.4546 14.0016 50.7218C14.5766 51.0561 15.2141 51.0421 15.5969 50.878C15.5781 50.8749 15.6328 50.5999 15.2797 49.6452C15.05 49.0155 14.4234 48.0421 13.9437 47.3436Z" fill="#231F20"/>
<path d="M60.0469 49.8234C57.5656 49.8234 54.2703 49.4625 51.1031 48.4203L51.8359 46.1922C56.7844 47.8203 61.7984 47.5891 62.8672 47.2234C63.6672 46.9516 65.0703 45.9109 65.7672 45.3203L67.2859 47.1047C67.0672 47.2922 65.1062 48.9375 63.6219 49.4422C62.9625 49.6672 61.6812 49.8234 60.0469 49.8234Z" fill="#1E1C1C"/>
<path d="M57.0313 44.4609C56.9092 44.4616 56.7887 44.4336 56.6794 44.3791C56.5702 44.3246 56.4753 44.2451 56.4024 44.1472C56.3295 44.0492 56.2808 43.9355 56.26 43.8152C56.2392 43.6949 56.247 43.5714 56.2828 43.4547C56.2875 43.4359 56.8781 41.45 57.0641 39.5687C57.2328 37.8609 56.1031 32.9375 55.4578 30.9312C55.4219 30.8325 55.4063 30.7276 55.4118 30.6228C55.4174 30.5179 55.444 30.4152 55.4901 30.3209C55.5363 30.2266 55.6009 30.1425 55.6803 30.0737C55.7596 30.0049 55.852 29.9529 55.952 29.9206C56.0519 29.8883 56.1573 29.8765 56.2619 29.8859C56.3665 29.8953 56.4681 29.9257 56.5607 29.9753C56.6533 30.0249 56.7349 30.0926 56.8007 30.1744C56.8666 30.2562 56.9152 30.3505 56.9438 30.4515C57.5094 32.2031 58.8344 37.5312 58.6203 39.7219C58.4172 41.7562 57.8047 43.8156 57.7797 43.9031C57.7316 44.0642 57.6328 44.2056 57.498 44.3061C57.3631 44.4066 57.1994 44.4609 57.0313 44.4609ZM61.0938 42.0687H61.0813C60.9787 42.0671 60.8774 42.0453 60.7832 42.0045C60.6891 41.9637 60.6039 41.9048 60.5325 41.8311C60.4611 41.7574 60.4049 41.6703 60.3672 41.5749C60.3294 41.4795 60.3109 41.3776 60.3125 41.275C60.3125 41.2547 60.3375 39.1843 60.0016 37.3234C59.9834 37.2224 59.9853 37.1187 60.0072 37.0184C60.0291 36.9181 60.0706 36.8231 60.1292 36.7388C60.1878 36.6545 60.2625 36.5825 60.3489 36.5271C60.4353 36.4716 60.5318 36.4338 60.6328 36.4156C60.7339 36.3974 60.8375 36.3994 60.9379 36.4213C61.0382 36.4432 61.1332 36.4846 61.2175 36.5432C61.3018 36.6018 61.3737 36.6765 61.4292 36.7629C61.4846 36.8493 61.5225 36.9458 61.5407 37.0468C61.9032 39.0593 61.8766 41.2078 61.875 41.2984C61.8721 41.5037 61.7886 41.6996 61.6424 41.8438C61.4962 41.9879 61.2991 42.0687 61.0938 42.0687Z" fill="#231F20"/>
<path d="M54.7735 46.7391L55.261 46.8516C55.4172 46.8875 55.5125 47.0422 55.4781 47.1953L54.9094 49.6547C54.9009 49.6916 54.8853 49.7264 54.8633 49.7572C54.8414 49.788 54.8135 49.8141 54.7815 49.8342C54.7494 49.8542 54.7137 49.8677 54.6764 49.8739C54.6391 49.8801 54.6009 49.8789 54.5641 49.8703L54.0766 49.7578C54.0025 49.7407 53.9382 49.6949 53.8978 49.6305C53.8574 49.5661 53.8441 49.4883 53.861 49.4141L54.4281 46.9547C54.4366 46.9179 54.4523 46.883 54.4742 46.8522C54.4962 46.8215 54.524 46.7953 54.5561 46.7753C54.5881 46.7552 54.6238 46.7417 54.6612 46.7355C54.6985 46.7293 54.7366 46.7305 54.7735 46.7391ZM59.5281 47.2047H60.0281C60.1875 47.2047 60.3172 47.3328 60.3172 47.4922V50.0157C60.3172 50.0535 60.3097 50.0911 60.2952 50.126C60.2806 50.161 60.2593 50.1928 60.2324 50.2195C60.2056 50.2462 60.1737 50.2674 60.1386 50.2817C60.1036 50.2961 60.066 50.3034 60.0281 50.3032H59.5281C59.4519 50.3032 59.3788 50.2729 59.3248 50.2189C59.2709 50.165 59.2406 50.0919 59.2406 50.0157V47.4922C59.2406 47.3328 59.3688 47.2047 59.5281 47.2047ZM64.5594 46.1438L65.0094 45.9266C65.0435 45.9102 65.0806 45.9007 65.1184 45.8986C65.1563 45.8966 65.1941 45.902 65.2298 45.9146C65.2656 45.9273 65.2984 45.9468 65.3266 45.9722C65.3547 45.9976 65.3775 46.0283 65.3938 46.0625L66.4859 48.3375C66.5024 48.3717 66.5119 48.4087 66.5139 48.4466C66.516 48.4844 66.5105 48.5223 66.4979 48.558C66.4853 48.5937 66.4657 48.6266 66.4403 48.6547C66.4149 48.6828 66.3842 48.7057 66.35 48.7219L65.9 48.9375C65.866 48.954 65.829 48.9636 65.7912 48.9658C65.7535 48.9679 65.7156 48.9626 65.6799 48.9501C65.6442 48.9376 65.6113 48.9182 65.5831 48.893C65.5549 48.8678 65.532 48.8373 65.5156 48.8032L64.4219 46.5282C64.4055 46.494 64.396 46.457 64.3939 46.4191C64.3919 46.3813 64.3973 46.3434 64.4099 46.3077C64.4226 46.272 64.4421 46.2391 64.4675 46.211C64.4929 46.1828 64.5252 46.16 64.5594 46.1438Z" fill="#414042"/>
<path d="M61.8016 63.6983C61.6874 63.6985 61.5745 63.6736 61.471 63.6254C61.3675 63.5773 61.2758 63.507 61.2023 63.4195C61.1289 63.3321 61.0755 63.2296 61.046 63.1193C61.0164 63.009 61.0114 62.8936 61.0312 62.7812C61.0359 62.7499 61.5875 59.6187 61.65 57.2968C61.6625 56.8655 61.9516 56.5108 62.4531 56.5358C62.5557 56.5387 62.6568 56.5617 62.7505 56.6036C62.8442 56.6455 62.9287 56.7055 62.9992 56.78C63.0698 56.8546 63.1249 56.9424 63.1615 57.0383C63.1981 57.1342 63.2154 57.2364 63.2125 57.339C63.1453 59.778 62.5937 62.9218 62.5687 63.053C62.5369 63.2335 62.4426 63.397 62.3023 63.515C62.1621 63.6329 61.9848 63.6978 61.8016 63.6983ZM90.4906 95.203H13.4078C13.2006 95.203 13.0019 95.1207 12.8554 94.9742C12.7089 94.8277 12.6266 94.629 12.6266 94.4218C12.6266 94.2146 12.7089 94.0159 12.8554 93.8694C13.0019 93.7228 13.2006 93.6405 13.4078 93.6405H90.4906C90.6978 93.6405 90.8965 93.7228 91.0431 93.8694C91.1896 94.0159 91.2719 94.2146 91.2719 94.4218C91.2719 94.629 91.1896 94.8277 91.0431 94.9742C90.8965 95.1207 90.6978 95.203 90.4906 95.203ZM10.4328 43.0562C10.2509 43.0556 10.075 42.9917 9.93519 42.8753C9.79543 42.7589 9.70064 42.5974 9.66718 42.4187C8.58909 36.6462 8.43666 30.739 9.21562 24.9187C9.22766 24.8163 9.26016 24.7174 9.31119 24.6279C9.36222 24.5383 9.43073 24.46 9.51265 24.3974C9.59457 24.3349 9.68822 24.2895 9.78805 24.2639C9.88788 24.2383 9.99183 24.233 10.0937 24.2483C10.1955 24.2618 10.2936 24.2952 10.3824 24.3467C10.4712 24.3981 10.549 24.4666 10.6113 24.5482C10.6735 24.6298 10.7191 24.7229 10.7453 24.8221C10.7715 24.9213 10.7779 25.0248 10.7641 25.1265C10.0092 30.7827 10.1569 36.5228 11.2016 42.1327C11.2224 42.2455 11.2182 42.3615 11.1892 42.4724C11.1602 42.5834 11.1072 42.6866 11.0338 42.7747C10.9604 42.8629 10.8685 42.9338 10.7647 42.9824C10.6608 43.0311 10.5475 43.0562 10.4328 43.0562ZM13.9172 41.1624C13.7321 41.1618 13.5532 41.0955 13.4124 40.9754C13.2716 40.8552 13.178 40.6889 13.1484 40.5062C12.7074 37.7809 12.4858 35.0247 12.4859 32.264C12.4859 32.0568 12.5682 31.8581 12.7148 31.7115C12.8613 31.565 13.06 31.4827 13.2672 31.4827C13.4744 31.4827 13.6731 31.565 13.8196 31.7115C13.9661 31.8581 14.0484 32.0568 14.0484 32.264C14.0484 34.9437 14.2641 37.6343 14.6891 40.2562C14.7074 40.368 14.7013 40.4824 14.6709 40.5916C14.6405 40.7008 14.5868 40.802 14.5133 40.8883C14.4398 40.9745 14.3484 41.0438 14.2455 41.0911C14.1425 41.1384 14.0305 41.1628 13.9172 41.1624ZM48.0938 90.4905H51.0234V92.053H48.0938V90.4905Z" fill="#231F20"/>
<path d="M48.7016 91.272H50.2641V94.4829H48.7016V91.272Z" fill="#231F20"/>
<path d="M84.1296 77.1438C85.5319 77.1438 86.6687 76.007 86.6687 74.6047C86.6687 73.2025 85.5319 72.0657 84.1296 72.0657C82.7274 72.0657 81.5906 73.2025 81.5906 74.6047C81.5906 76.007 82.7274 77.1438 84.1296 77.1438Z" fill="#00BFB4"/>
<path d="M84.1296 77.925C82.2984 77.925 80.8093 76.436 80.8093 74.6047C80.8093 72.7735 82.2984 71.2844 84.1296 71.2844C85.9609 71.2844 87.45 72.7735 87.45 74.6047C87.45 76.436 85.9609 77.925 84.1296 77.925ZM84.1296 72.8469C83.1609 72.8469 82.3718 73.636 82.3718 74.6047C82.3718 75.5735 83.1609 76.3625 84.1296 76.3625C85.0984 76.3625 85.8875 75.5735 85.8875 74.6047C85.8875 73.636 85.0984 72.8469 84.1296 72.8469Z" fill="#231F20"/>
</svg>
