<svg width="100" height="100" viewBox="0 0 100 100" fill="none" xmlns="http://www.w3.org/2000/svg">
<path d="M37.2922 53.3968C51.4729 53.3968 62.9687 41.901 62.9687 27.7203C62.9687 13.5395 51.4729 2.0437 37.2922 2.0437C23.1114 2.0437 11.6156 13.5395 11.6156 27.7203C11.6156 41.901 23.1114 53.3968 37.2922 53.3968Z" fill="#001716"/>
<path d="M59.8344 79.6954C74.0152 79.6954 85.511 68.1996 85.511 54.0188C85.511 39.8381 74.0152 28.3423 59.8344 28.3423C45.6536 28.3423 34.1578 39.8381 34.1578 54.0188C34.1578 68.1996 45.6536 79.6954 59.8344 79.6954Z" fill="#00BFB4"/>
<path d="M53.6265 72.5906C53.6265 72.5906 56.0687 71.1265 57.7281 70.6859C59.389 70.2484 60.2672 70.4422 60.2672 70.4422L61.0969 74.6906L62.3672 78.939L62.2203 85.725L63.2953 90.6578L59.6328 91.3406L58.4281 91.1937L56.9469 84.7L54.3109 81.7218L53.2844 76.9359L53.6281 72.5922L53.6265 72.5906Z" fill="white"/>
<path d="M53.7687 76.8202C53.4406 76.8202 53.2437 76.8061 53.2219 76.8046L53.3469 75.2468C53.3625 75.2483 54.8437 75.353 56.5969 74.8812C58.0016 74.4817 59.3916 74.0319 60.764 73.5327L61.3016 75.0015C61.2062 75.0358 58.9359 75.8655 57.0047 76.389C55.9497 76.6718 54.861 76.8168 53.7687 76.8202Z" fill="#00BFB4"/>
<path d="M8.32969 28.1094C8.32969 28.1094 7.48437 30.4844 7.77656 31.0063C8.07031 31.5266 8.94844 32.6985 9.53437 32.9266C10.1203 33.1547 10.8375 33.5454 11 33.0891C11.1625 32.6329 10.9344 32.0469 10.9344 31.6891C10.9344 31.3297 11.325 30.9079 11.9109 31.3969C12.4969 31.8844 12.9203 32.2422 13.0516 32.0797C13.1812 31.9172 13.9937 29.8344 13.9937 29.8344L16.175 28.9875L23.9562 28.9547L31.9625 27.1313H35.0234L36.7812 28.3532L38.4734 34.2282L32.5828 51.3016L26.8687 60.3344L25.7453 62.9235L22.8656 62.4828L18.9094 69.5469L24.0859 72.9813L30.9703 70.5891L33.6562 66.0485L35.3156 65.4782L38.7844 63.0203L41.2406 60.5625L42.8344 60.4328C42.8344 60.4328 45.2765 63.9969 45.2765 64.1438C45.2765 64.2907 46.2859 67.4969 46.2859 67.4969L49.9969 67.8875L52.7469 69.9547L53.6265 73.6157L57.3375 72.9813L60.6094 71.175L59.389 66.6828L58.6656 61.7641L57.3375 58.7235L55.2875 53.7922L54.5531 50.3078L57.6781 40.3641L61.8297 29.6219L64.5156 28.1079L76.7219 28.8891L86.6828 27.1313L92.8359 26.35L92.8937 25.6625C92.8937 25.6625 93.1125 25.1282 93.8031 24.9172C94.4922 24.7047 94.5468 24.6141 94.925 24.8438C95.3625 25.1094 95.0531 25.7907 95.1265 26.0938C95.2 26.3969 95.5219 26.6907 96.1469 26.6172C96.7719 26.5438 97.2593 25.6985 97.3422 25.2204C97.425 24.7422 97.2953 23.1797 97.2953 23.1797L95.3422 21.6313L91.5656 21.761L90.3625 22.8032L88.7344 22.9985L85.0562 23.1282L78.7734 23.0297L69.2359 21.6954L63.9297 18.7657L55.7906 17.5297L53.9031 16.7485L56.4594 8.92036L57.0453 4.57349L54.9453 3.05942L49.8672 2.03442L46.3828 4.21567L46.1562 8.83755L46.3516 14.0954L44.8859 18.0485L39.2219 20.9797L14.5156 24.2016L8.32969 28.1094Z" fill="#EBB181"/>
<path d="M45.6188 62.2642C45.6188 62.2642 46.1078 63.2642 47.1328 64.461C48.1578 65.6579 50.3313 67.9032 50.3313 67.9032L47.011 67.8298L45.5219 65.536L44.8375 62.8017L45.6188 62.2642Z" fill="#323233"/>
<path d="M58.4281 91.1938C58.4281 91.1938 60.1203 90.022 61.5531 90.022C62.986 90.022 63.4406 90.1204 63.4406 90.1204L66.2735 92.6595L69.886 93.1798L70.1797 95.3282L68.2578 95.9798L59.8922 95.5892L57.7766 95.4907L57.5172 92.9204L58.4281 91.1938Z" fill="#00BFB4"/>
<path d="M25.9906 61.7499C25.9906 61.7499 31.7359 63.4593 32.8422 64.1436C33.9484 64.8265 35.3156 65.478 35.3156 65.478L38.3109 63.4937L41.2406 60.5624L42.0218 60.4327L44.6265 63.0374L45.2125 65.2499C45.2125 65.2499 45.9625 62.5546 47.7453 61.3405C49.5297 60.128 51.0187 59.9624 51.9922 60.0546C52.9672 60.1468 55.5953 60.0358 57.0109 60.9546C58.4265 61.8749 58.6656 61.764 58.6656 61.764L58.3953 59.3905L56.7672 57.178L54.5547 54.053L54.2937 51.8718L54.5547 50.3093L54.6515 48.4202C54.6515 48.4202 52.2609 49.4468 46.1562 47.5421C42.5682 46.4257 39.0029 45.2375 35.4625 43.978L33.6562 46.4187L32.289 52.0827L30.7265 54.1499L28.2359 58.2358L25.9906 61.7499Z" fill="#32313C"/>
<path d="M16.0125 59.814L13.9297 60.2046L12.1063 62.9077L12.4969 65.5108L15.85 66.1296L18.9094 69.5468L21.3516 71.2077L22.0016 71.4671C22.0016 71.4671 21.4813 70.7843 21.7422 69.5468C22.0016 68.3108 23.2063 66.1624 23.4016 65.9343C23.5969 65.7062 24.6719 64.5671 24.6719 64.5671L23.825 63.0046L18.1609 61.3437L16.0125 59.814Z" fill="white"/>
<path d="M19.7797 69.6657L18.3937 68.9422C18.4406 68.8516 19.5578 66.711 20.6328 65.0219C21.3155 63.9432 22.1645 62.9792 23.1484 62.1657L24.1047 63.4C24.0937 63.4094 22.925 64.3297 21.9515 65.861C21.1825 67.1029 20.4581 68.372 19.7797 69.6657ZM13.4078 66.0641C13.4078 66.0641 12.3672 64.8922 12.7906 63.2C13.2125 61.5063 13.2125 60.986 13.7344 60.8563C14.2547 60.725 16.4031 60.6938 16.4031 60.6938L15.0031 58.9032L11.6187 60.0094L6.54061 62.8094L2.69843 65.9016L2.66718 68.7657L4.9453 70.5235L8.19999 68.5391L12.0094 66.5532L13.4078 66.0641ZM33.2656 47.9657C33.2656 47.9657 34.4375 50.0329 38.8312 50.2766C43.2265 50.5204 49.0859 48.6657 51.0391 49.7391C52.9922 50.8141 54.5547 50.8625 54.5547 50.8625L55.6781 44.5641L59.7797 34.7485L62.4312 29.2157L63.5094 28.8641C65.0445 28.3643 66.661 28.1627 68.2719 28.2704L70.7 28.4344L79.3594 28.3688L89.45 27.0672L89.9703 26.8063C89.9703 26.8063 89.9703 27.6532 89.7109 25.8297C89.45 24.0063 89.9703 22.7704 89.9703 22.7704L86.2594 22.9C86.2594 22.9 77.7312 22.7047 77.5359 22.7047C77.3406 22.7047 68.275 21.3704 68.275 21.3704L60.2187 17.6922L56.1172 17.4969L54.9766 17.4641C54.9766 17.4641 54.4891 18.311 53.7734 18.8313C53.0562 19.3516 51.364 20.0688 49.8015 19.5141C48.239 18.961 46.8719 18.1797 46.2547 17.4969C45.6344 16.8125 45.5703 16.2922 45.5703 16.2922L42.8359 17.886L39.45 18.0172L37.0406 18.3422L34.2422 20.4266L27.7969 21.5985L16.9234 24.1375L12.8875 25.7641C12.8875 25.7641 14.1891 26.0907 14.7109 27.2625C15.2312 28.4344 15.2312 29.3454 15.2312 29.3454L18.2906 28.8891L24.8187 27.9625L30.3844 27.425L36.2437 27.2782L37.6922 29.8657V36.1157L36.2594 41.2594L33.2656 47.9657Z" fill="#00BFB4"/>
<path d="M93.0312 96.5327H3.1875C2.9803 96.5327 2.78159 96.4504 2.63507 96.3039C2.48856 96.1574 2.40625 95.9587 2.40625 95.7515C2.40625 95.5443 2.48856 95.3456 2.63507 95.199C2.78159 95.0525 2.9803 94.9702 3.1875 94.9702H93.0312C93.2384 94.9702 93.4372 95.0525 93.5837 95.199C93.7302 95.3456 93.8125 95.5443 93.8125 95.7515C93.8125 95.9587 93.7302 96.1574 93.5837 96.3039C93.4372 96.4504 93.2384 96.5327 93.0312 96.5327Z" fill="#231F20"/>
<path d="M70.0469 96.4094C69.9562 96.4094 69.9453 96.4219 69.8609 96.3891L57.8031 96.5016C57.6985 96.5006 57.5952 96.4785 57.4993 96.4366C57.4035 96.3948 57.3171 96.3339 57.2453 96.2578C56.8875 95.8844 56.3703 94.9453 56.7016 93.8078C56.85 93.2922 57.0969 92.8719 57.3141 92.5016C57.5484 92.0984 57.7344 91.7828 57.7141 91.5125C57.6344 90.4469 57.0141 86.975 55.1203 83.7797C52.925 80.0766 52.7969 78.3172 52.7312 74.9984L52.7172 74.0703C52.6859 71.5906 52.6828 71.3312 51.3 70.0969L49.7469 68.7109C48.7703 68.825 46.8344 68.9047 46.0297 67.8828C45.4297 67.1172 43.0062 62.7922 41.925 60.8469C40.0094 62.8 37.6156 65.2094 37.0656 65.6391C36.6828 65.9359 36.5469 66.075 36.4797 66.1469C36.3947 66.2451 36.2909 66.3253 36.1745 66.3827C36.058 66.4401 35.9312 66.4736 35.8015 66.4813C35.6109 66.5078 35.0047 66.4781 34.0094 66.3953C33.2906 67.5812 31.3531 70.6984 30.3109 71.6516C28.975 72.875 28.1562 73.1625 27.5922 73.2766C27.5422 73.2891 27.4578 73.3266 27.3531 73.3656C26.525 73.6922 24.5875 74.45 22.5687 73.0641C22.514 73.025 17.0469 69.2625 16.0562 67.8484C15.3797 66.8797 15.3 66.7906 14.6922 66.7344C13.8562 66.6469 11.1312 67.2484 9.7703 68.1484C8.90623 68.7188 6.79686 70.0797 5.87967 70.4188C5.17342 70.6813 3.63592 70.9578 2.89061 70.1125C2.83755 70.0588 2.77828 70.0116 2.71405 69.9719C2.1203 69.5531 1.78436 69.0516 1.8328 67.7297C1.89998 65.8281 3.56873 63.8516 4.4453 63.3266C4.62342 63.2203 4.78123 63.0703 4.96561 62.9047C5.5328 62.3937 6.30936 61.6922 7.93436 61.1859C9.86561 60.5812 12.325 58.7234 12.35 58.7031C12.4703 58.625 13.975 57.7031 15.7031 58.7562C16.5875 59.2953 17.0437 59.7797 17.4094 60.1687C17.6187 60.3922 17.8125 60.6031 18.0969 60.8078C18.3469 60.9672 19.5344 61.1547 20.3187 61.2797C21.8781 61.525 23.4906 61.7781 24.2937 62.3797L25.4656 63.2578C25.5478 63.3194 25.617 63.3965 25.6694 63.4848C25.7218 63.5731 25.7562 63.6709 25.7708 63.7726C25.7854 63.8742 25.7798 63.9777 25.7544 64.0772C25.729 64.1767 25.6842 64.2702 25.6226 64.3523C25.5611 64.4345 25.4839 64.5038 25.3956 64.5561C25.3073 64.6085 25.2095 64.643 25.1079 64.6575C25.0063 64.6721 24.9027 64.6665 24.8033 64.6411C24.7038 64.6157 24.6103 64.5709 24.5281 64.5094L23.3562 63.6312C22.8656 63.2609 21.2531 63.0078 20.075 62.8219C18.5594 62.5828 17.675 62.4312 17.1844 62.0766C16.7937 61.7953 16.5281 61.5125 16.2703 61.2391C15.873 60.7868 15.4075 60.3993 14.8906 60.0906C13.9922 59.5437 13.2437 59.9812 13.2375 59.9875C13.1859 60.0312 10.5906 61.9922 8.40155 62.6766C7.10155 63.0812 6.52342 63.6031 6.01092 64.0641C5.7453 64.3047 5.5078 64.5109 5.24998 64.6672C4.71873 64.9844 3.43748 66.5312 3.39373 67.7844C3.36717 68.5187 3.45467 68.5813 3.61248 68.6906C3.73436 68.7766 3.89998 68.8937 4.06248 69.0797C4.18748 69.1562 4.80467 69.1547 5.33592 68.9547C5.85311 68.7641 7.25467 67.9344 8.90936 66.8453C10.5906 65.7328 13.6531 65.0641 14.8359 65.1781C16.1828 65.3031 16.6125 65.9156 17.325 66.9344C17.8562 67.6922 20.9156 70.0328 23.4547 71.775C24.789 72.6906 26.0375 72.2047 26.7828 71.9109C27.0015 71.8266 27.1734 71.7672 27.2859 71.7438C27.5 71.7016 28.0703 71.5875 29.2547 70.5016C30.1453 69.6844 32.2031 66.3797 32.9203 65.1766C32.998 65.0528 33.1077 64.9523 33.2378 64.8858C33.3679 64.8192 33.5135 64.789 33.6594 64.7984C34.3375 64.8578 35.1422 64.9172 35.4875 64.9281C35.6094 64.8109 35.7937 64.6469 36.1062 64.4062C36.7187 63.9281 40.7266 59.8547 43.2703 57.2328C43.4153 57.0916 43.6095 57.0121 43.812 57.0112C44.0144 57.0104 44.2093 57.0881 44.3556 57.2281C44.5018 57.3681 44.588 57.5593 44.596 57.7616C44.604 57.9639 44.5332 58.1614 44.3984 58.3125L43.0797 59.7094C44.6015 62.4562 46.7906 66.3203 47.2578 66.9172C47.4781 67.1969 48.75 67.2937 49.875 67.1156C50.1094 67.0844 50.3437 67.1484 50.5172 67.3047L52.3406 68.9313C54.2359 70.625 54.2469 71.4875 54.2797 74.0484L54.2953 74.9672C54.3578 78.1703 54.4625 79.6047 56.4641 82.9828C58.9312 87.1453 59.2687 91.3547 59.2719 91.3969C59.3281 92.1516 58.975 92.7563 58.6625 93.2891C58.475 93.6125 58.2969 93.9156 58.2016 94.2438C58.1324 94.4736 58.1445 94.7203 58.2359 94.9422L69.3562 95.0297C69.2703 94.3844 68.7234 93.9109 68.5281 93.8141C68.3474 93.7823 68.1646 93.764 67.9812 93.7594C67.4625 93.7281 66.7516 93.6844 65.9891 93.3859C64.7078 92.8859 62.8328 91.3531 62.1937 89.9563C61.8344 89.175 61.6047 86.4125 61.2531 80.9C61.1531 79.3344 61.0656 77.9844 61.0078 77.5672C60.9359 77.0688 60.775 76.6 60.5891 76.0594C60.3125 75.2547 59.9687 74.2547 59.7703 72.7422C59.5516 71.0938 58.9859 69.2609 58.6109 68.0484C58.4266 67.4547 58.2812 66.9781 58.2187 66.6844C58.1187 66.2219 58.1641 65.9344 58.2094 65.6531C58.2719 65.2563 58.3766 64.5906 58.0156 62.3469C57.5578 59.5031 56.6078 58.1953 55.6016 56.8094C55.3828 56.5094 55.1641 56.2078 54.95 55.8906C53.8062 54.2062 53.4656 51.8766 53.9109 48.7656C54.2594 46.325 58.5516 35.2531 60.4344 31.0609C62.1906 27.139 64.1906 27.2609 65.2656 27.3375C65.4094 27.3484 65.6031 27.3609 65.6641 27.3453C66.45 27.1719 69.05 27.3437 72.6375 27.6109L74.1406 27.7203C76.8359 27.9094 80.8516 27.6922 81.8984 27.5625C82.3984 27.5 83.6859 27.1765 84.8203 26.8953C85.9562 26.6109 87.0297 26.3437 87.575 26.2625C88.0281 26.1937 88.3516 26.1734 88.6844 26.1531C89.3065 26.1219 89.9252 26.0409 90.5344 25.9109C91.8906 25.6375 92.7625 24.7969 92.7719 24.789C92.8439 24.7144 92.9301 24.6549 93.0255 24.614C93.1208 24.573 93.2233 24.5515 93.327 24.5506C93.4308 24.5497 93.5336 24.5694 93.6296 24.6087C93.7257 24.648 93.8129 24.706 93.8862 24.7794C93.9596 24.8527 94.0176 24.9399 94.0569 25.036C94.0962 25.132 94.1159 25.2348 94.115 25.3386C94.1141 25.4423 94.0926 25.5448 94.0516 25.6401C94.0107 25.7355 93.9512 25.8217 93.8766 25.8937C93.0234 26.6752 91.9741 27.2103 90.8406 27.4422C90.1613 27.5864 89.4717 27.6768 88.7781 27.7125C88.4875 27.7297 88.2047 27.7469 87.8094 27.8062C87.3359 27.8781 86.25 28.15 85.2 28.4109C83.9078 28.7344 82.6875 29.0359 82.0937 29.1125C80.9687 29.2531 76.8719 29.4781 74.0312 29.2781L72.5219 29.1687C70.3141 29.0031 66.625 28.7359 66.0031 28.8719C65.7234 28.9312 65.4406 28.914 65.1656 28.8969C64.2797 28.8375 63.1719 28.7687 61.8594 31.6984C59.8531 36.175 55.7547 46.9109 55.4578 48.9859C55.0703 51.6953 55.3265 53.6656 56.2422 55.0125C56.4484 55.3156 56.6578 55.6047 56.8656 55.8906C57.9359 57.3656 59.0422 58.8875 59.5578 62.1C59.9578 64.5891 59.8344 65.375 59.7516 65.8953C59.7172 66.1187 59.7078 66.1781 59.7453 66.3578C59.8031 66.6234 59.9375 67.0516 60.1031 67.5859C60.4937 68.8484 61.0844 70.7578 61.3187 72.5375C61.4969 73.8969 61.8 74.7734 62.0656 75.5484C62.2687 76.1422 62.4625 76.7016 62.5547 77.3484C62.6219 77.825 62.7062 79.1375 62.8125 80.8016C62.9859 83.5281 63.3094 88.6047 63.6141 89.3063C64.0578 90.2719 65.6031 91.5563 66.5578 91.9313C67.0906 92.1406 67.6141 92.1719 68.0766 92.2C68.5141 92.225 68.8906 92.2485 69.225 92.4156C69.8609 92.7328 70.8844 93.7438 70.9281 95.1094C70.9531 95.8859 70.9562 96.4063 70.2062 96.4906C70.1797 96.4938 70.1344 96.4219 70.1094 96.4219L70.0469 96.4094Z" fill="#231F20"/>
<path d="M23.8406 66.4875C23.6992 66.4873 23.5605 66.4488 23.4392 66.376C23.318 66.3031 23.2188 66.1987 23.1522 66.074C23.0857 65.9492 23.0542 65.8087 23.0613 65.6674C23.0683 65.5261 23.1136 65.3894 23.1922 65.2719C23.2078 65.2469 24.9188 62.6719 25.7109 60.8109C26.6219 58.6656 28.4016 55.5 30.1547 53.6172C31.4234 52.2547 31.9281 50.1391 32.2625 48.7375C32.3547 48.35 32.4359 48.011 32.5172 47.7422C32.8813 46.525 33.2578 45.8203 34.0828 44.2766L34.4641 43.5625C35.6719 41.2875 36.5141 39.2234 36.9 37.5953C37.2938 35.9313 36.3281 29.3672 36.0594 28.6531C35.9208 28.3221 35.7606 28.0006 35.5797 27.6906C35.5254 27.6035 35.4888 27.5066 35.472 27.4053C35.4552 27.3041 35.4585 27.2005 35.4817 27.1006C35.5049 27.0006 35.5476 26.9062 35.6073 26.8227C35.667 26.7392 35.7426 26.6683 35.8297 26.6141C35.9168 26.5598 36.0137 26.5232 36.115 26.5064C36.2162 26.4896 36.3198 26.4929 36.4198 26.5161C36.5197 26.5393 36.6141 26.582 36.6976 26.6417C36.7811 26.7014 36.852 26.777 36.9063 26.8641C36.9063 26.8641 37.1766 27.2938 37.5 28.0438C37.8828 28.9391 38.8906 35.9688 38.4203 37.9563C37.8938 40.175 36.7297 42.6281 35.8422 44.2953L35.4609 45.0141C34.6406 46.55 34.3328 47.1234 34.0141 48.1906C33.9391 48.4375 33.8672 48.7469 33.7813 49.1016C33.4094 50.6609 32.8469 53.0203 31.2969 54.6828C29.6734 56.4266 28.0078 59.4 27.1484 61.4203C26.3 63.4188 24.5641 66.0297 24.4922 66.1391C24.4208 66.2464 24.3239 66.3344 24.2102 66.3952C24.0965 66.456 23.9696 66.4877 23.8406 66.4875Z" fill="#231F20"/>
<path d="M13.05 31.3312C12.8585 31.3322 12.6732 31.2627 12.5295 31.1361C12.3858 31.0095 12.2936 30.8345 12.2705 30.6443C12.2474 30.4542 12.2949 30.2622 12.404 30.1048C12.5131 29.9474 12.6763 29.8356 12.8625 29.7906C12.8625 29.7765 13.05 29.614 13.175 29.5062C13.6078 29.1265 14.0984 28.6968 14.6953 28.6468C14.7984 28.639 14.95 28.6171 15.1437 28.5921C16.0765 28.4671 17.8125 28.2296 20.1703 28.3531C21.775 28.4234 22.6562 27.9968 23.3594 27.6437C23.8344 27.4062 24.2812 27.1796 24.8187 27.1796C25.1594 27.1796 25.6625 27.1109 26.2984 27.0234C27.2828 26.889 28.6312 26.7031 30.3578 26.6437C33.5016 26.5343 36.5187 26.1609 37.0172 25.9124C38.1031 25.3718 39.8015 25.6781 39.9906 25.714C40.1941 25.7534 40.3736 25.8719 40.4896 26.0437C40.6057 26.2154 40.6487 26.4261 40.6094 26.6296C40.57 26.8331 40.4514 27.0126 40.2797 27.1286C40.108 27.2447 39.8972 27.2877 39.6937 27.2484C39.1359 27.139 38.1531 27.0906 37.7156 27.3109C36.7078 27.814 32.7 28.1265 30.4109 28.2062C28.764 28.2624 27.4609 28.4406 26.5109 28.5718C25.8156 28.6687 25.2656 28.7437 24.8187 28.7437C24.6531 28.7437 24.3781 28.8796 24.0609 29.0406C23.2859 29.4296 22.1109 30.0281 20.0906 29.9124C17.875 29.8031 16.2359 30.0218 15.3531 30.1406C15.1234 30.1718 14.9469 30.1952 14.825 30.2031C14.7094 30.2374 14.3797 30.5281 14.2031 30.6827C13.8719 30.9702 13.5875 31.2202 13.239 31.3077C13.1772 31.323 13.1137 31.3308 13.05 31.3312Z" fill="#231F20"/>
<path d="M46.8391 11.4422C46.8391 11.4422 47.5891 7.56719 48.761 7.04687C49.9328 6.52656 49.7047 6.00625 51.886 6.55937C54.0656 7.1125 54.4891 7.66562 55.1406 7.34062C55.7906 7.01406 56.6375 6.81875 56.6375 6.81875L55.4 3.17344L51.2344 1.77344L48.8906 2.2625L46.5781 4.54062L46.025 5.74375L45.7 8.86875L46.8406 11.4422H46.8391Z" fill="#30384C"/>
<path d="M8.6 32.8219C8.48468 32.8221 8.37074 32.7967 8.26644 32.7475C8.16213 32.6984 8.07005 32.6266 7.99688 32.5375C7.91407 32.4375 7.48907 31.9078 7.32969 31.4125C7.14532 30.8406 7.20938 29.5562 7.27188 29.2562C7.39531 28.6656 8.69844 27.2062 9.30313 26.7031C9.83438 26.2594 11.2188 25.6094 13.2688 24.6719C14.0219 24.3281 14.7328 24 15.2406 23.7469C16.8594 22.9375 20.5375 21.7156 23.2906 21.6625C25.7625 21.6156 29.2594 20.9547 31.4375 20.3265C32.5313 20.0109 34.1313 19.2765 35.5422 18.6297C37.1469 17.8937 38.1609 17.4359 38.7813 17.3156C39.6094 17.1547 40.175 17.1844 40.775 17.2125C41.1031 17.2281 41.4703 17.25 41.9375 17.2359C42.7922 17.2156 44.0063 16.6734 44.5438 16.3937L45.6141 15.0828C45.6094 15.0828 45.9938 14.4812 45.9938 13.6234C45.9938 13.2609 45.8156 12.5047 45.6266 11.7031C45.2875 10.2656 44.8672 8.47498 45.0219 7.12029C45.0301 7.01576 45.0594 6.91396 45.1078 6.82097C45.1563 6.72797 45.2229 6.64568 45.3038 6.57899C45.3848 6.51231 45.4783 6.46259 45.5788 6.43281C45.6793 6.40303 45.7849 6.39379 45.889 6.40564C45.9932 6.4175 46.0939 6.45021 46.1852 6.50182C46.2765 6.55343 46.3565 6.62288 46.4203 6.70604C46.4842 6.78921 46.5307 6.88437 46.557 6.98588C46.5833 7.08738 46.5889 7.19314 46.5734 7.29685C46.4484 8.38279 46.8359 10.025 47.1484 11.3469C47.3766 12.314 47.5547 13.0797 47.5547 13.6234C47.5547 15.0031 46.9297 15.9265 46.8578 16.0281L45.6547 17.5031C45.5915 17.5795 45.5147 17.6436 45.4281 17.6922C45.2313 17.8015 43.4594 18.7625 41.975 18.7984C41.4547 18.8094 41.0578 18.7906 40.6969 18.7734C40.1313 18.7469 39.725 18.7219 39.0797 18.8515C38.6109 18.9406 37.3828 19.5031 36.1938 20.0484C34.7328 20.7203 33.0766 21.4797 31.8703 21.8281C29.6672 22.464 26.0484 23.1719 23.3188 23.225C20.9172 23.2719 17.4906 24.3703 15.9391 25.1453C15.4203 25.4047 14.6906 25.739 13.9188 26.0922C12.5672 26.7109 10.7156 27.5594 10.3047 27.9015C9.69219 28.4109 8.87969 29.4531 8.76563 29.6875C8.76094 29.8078 8.75469 30.7187 8.81719 30.9328C8.86407 31.0828 9.07188 31.3843 9.20313 31.5437C9.29735 31.6581 9.35712 31.7968 9.37548 31.9438C9.39383 32.0908 9.37001 32.24 9.30678 32.374C9.24356 32.508 9.14354 32.6212 9.0184 32.7005C8.89326 32.7798 8.74815 32.8219 8.6 32.8219ZM51.5094 19.1062C50.3016 19.1062 49.6422 18.6609 49.1141 18.2312C48.4734 17.7156 48.0969 16.9437 48.0547 16.8562C48.0104 16.7637 47.9847 16.6633 47.9792 16.5609C47.9736 16.4584 47.9883 16.3559 48.0224 16.2591C48.0565 16.1623 48.1094 16.0732 48.1779 15.9968C48.2464 15.9205 48.3293 15.8584 48.4219 15.814C48.6088 15.7245 48.8236 15.7129 49.019 15.7818C49.1158 15.8159 49.2049 15.8687 49.2813 15.9372C49.3576 16.0058 49.4198 16.0887 49.4641 16.1812C49.5359 16.3297 49.7906 16.7687 50.0984 17.0187C50.5406 17.3781 50.8984 17.6047 51.8219 17.5328C52.8125 17.4515 53.0203 17.0078 53.0984 16.839C53.4891 15.9484 55.9484 8.29217 55.8953 7.30779C55.8833 7.10452 55.9486 6.90422 56.0782 6.74713C56.2077 6.59004 56.3919 6.48779 56.5938 6.46092C57 6.41404 57.3797 6.67967 57.4422 7.09217C57.6641 8.54529 54.5484 17.4265 54.5141 17.5C54.2078 18.1547 53.5141 18.9625 51.9484 19.089C51.8024 19.1013 51.6559 19.107 51.5094 19.1062Z" fill="#231F20"/>
<path d="M97.3281 26.1233C97.218 26.1234 97.1091 26.1002 97.0086 26.0552C96.908 26.0102 96.8181 25.9444 96.7448 25.8622C96.6715 25.78 96.6164 25.6833 96.5831 25.5783C96.5498 25.4733 96.539 25.3625 96.5516 25.253C96.8641 22.5046 95.9703 22.3983 95.1063 22.2936L94.9469 22.2765C94.1094 22.1624 93.0203 22.3624 92.2469 22.7686L91.9235 22.9405C91.025 23.4249 90.0985 23.928 89.0703 23.5405C88.7203 23.4124 88.5657 23.4671 88.1157 23.6405C87.9828 23.6905 87.8422 23.7436 87.6875 23.7968C87.5485 23.8421 87.4469 23.8874 87.3547 23.928C86.7953 24.178 86.3985 24.2765 84.9328 24.1999C84.1297 24.1593 82.9953 23.9874 81.7969 23.8093C80.1313 23.5577 78.2438 23.2733 76.8688 23.2733C74.3219 23.2733 72.9578 23.1171 71.4625 22.653C70.4406 22.3358 69.5844 22.2655 68.8297 22.2046C68.6031 22.1858 68.3891 22.1686 68.1891 22.1468C67.1578 22.0311 65.8266 21.2811 63.0375 19.5968C61.0578 18.4015 60.0688 18.4311 58.5719 18.4718C58.275 18.4796 57.9641 18.4874 57.6313 18.4874C55.4891 18.4874 53.6563 17.9405 53.5797 17.9187C53.3828 17.8574 53.218 17.7208 53.1214 17.5386C53.0248 17.3564 53.0041 17.1434 53.0639 16.946C53.1237 16.7487 53.2592 16.583 53.4407 16.485C53.6222 16.3871 53.835 16.3649 54.0328 16.4233C54.0485 16.428 55.7281 16.9265 57.6313 16.9265C57.9485 16.9265 58.2438 16.9171 58.5281 16.9108C60.1063 16.864 61.4719 16.8265 63.8453 18.2593C66.0906 19.6155 67.6188 20.5093 68.361 20.5937C68.5485 20.614 68.7469 20.6296 68.9563 20.6468C69.75 20.7124 70.7375 20.7936 71.925 21.1608C73.2532 21.5733 74.4985 21.7108 76.8688 21.7108C78.361 21.7108 80.3094 22.0046 82.0281 22.2624C83.1891 22.4374 84.2875 22.603 85.0156 22.6405C86.2594 22.703 86.4438 22.6249 86.7188 22.4999C86.8516 22.4421 86.9969 22.378 87.1938 22.3124C87.325 22.2687 87.4453 22.2233 87.5578 22.1796C88.1 21.9718 88.7141 21.7374 89.6203 22.0796C89.961 22.203 90.4375 21.9655 91.1828 21.564L91.5203 21.3858C92.5719 20.8312 93.9969 20.5687 95.1516 20.7265C96.8281 20.9265 98.5375 21.6265 98.1047 25.4296C98.0832 25.6205 97.9921 25.7967 97.8489 25.9247C97.7056 26.0527 97.5202 26.1234 97.3281 26.1233ZM56.6703 7.99053C56.4631 7.99053 56.2644 7.90822 56.1179 7.7617C55.9714 7.61519 55.8891 7.41648 55.8891 7.20928C55.8874 5.97516 55.3962 4.79211 54.5233 3.91974C53.6503 3.04738 52.467 2.55698 51.2328 2.55615C49.9993 2.55781 48.8167 3.04858 47.9444 3.92085C47.0721 4.79312 46.5814 5.9757 46.5797 7.20928C46.5797 7.41648 46.4974 7.61519 46.3509 7.7617C46.2044 7.90822 46.0057 7.99053 45.7985 7.99053C45.5913 7.99053 45.3925 7.90822 45.246 7.7617C45.0995 7.61519 45.0172 7.41648 45.0172 7.20928C45.0197 5.56128 45.6756 3.98152 46.841 2.81635C48.0065 1.65119 49.5864 0.995719 51.2344 0.993652C52.8824 0.995719 54.4623 1.65119 55.6278 2.81635C56.7932 3.98152 57.4491 5.56128 57.4516 7.20928C57.4516 7.41648 57.3693 7.61519 57.2228 7.7617C57.0763 7.90822 56.8775 7.99053 56.6703 7.99053Z" fill="#231F20"/>
<path d="M33.9797 95.7328C37.9173 95.7328 41.1093 92.5407 41.1093 88.6031C41.1093 84.6655 37.9173 81.4734 33.9797 81.4734C30.042 81.4734 26.85 84.6655 26.85 88.6031C26.85 92.5407 30.042 95.7328 33.9797 95.7328Z" fill="#E6E6E6"/>
<path d="M35.0734 81.5671L34.9922 82.614L33.0266 83.739L35.1203 84.6187L35.5922 86.8406L37.0672 85.1218L39.3219 85.3703L38.1375 83.4296L38.3406 82.975C37.3883 82.2379 36.2648 81.7541 35.075 81.5687L35.0734 81.5671ZM31.7453 83.2L29.5375 83.7187L29.15 83.3671C28.2975 84.1546 27.6501 85.1383 27.2641 86.2328L27.8047 86.4593L28.2734 88.6812L29.7484 86.9625L31.9203 87.2015L32.5203 89.1781L31.2313 90.8031L33.2922 90.8328L34.4266 92.5531L35.1047 90.5937L37.0891 90.0328L35.4484 88.7906L35.5437 86.7218L33.8531 87.9187L31.9344 87.2L32.0031 87.2093L30.8234 85.2687L31.7453 83.2ZM39.9266 87.7078L39.1172 89.6093L37.0906 90.0328L38.6531 91.3765L38.425 93.4234L39.9328 92.514C40.5285 91.6077 40.9095 90.5773 41.0469 89.5015L40.9484 89.4921L39.9266 87.7078ZM27.3172 89.8593L27.2344 90.8843C27.7864 92.5158 28.9103 93.8922 30.3984 94.7593L31.4672 94.8765L30.2859 92.9359L31.2078 90.8656L29.0016 91.3843L27.3172 89.8593ZM34.4484 92.5156L34.2687 94.7781L32.7938 95.6234C33.1849 95.6923 33.581 95.7283 33.9781 95.7312C35.3622 95.7307 36.7163 95.3273 37.875 94.5703L38.3391 93.5265L36.1359 94.0421L34.4484 92.5156Z" fill="#00BFB4"/>
<path d="M33.9797 96.5125C31.8826 96.51 29.8721 95.676 28.3891 94.1933C26.9061 92.7106 26.0716 90.7002 26.0687 88.6031C26.0712 86.5058 26.9055 84.4951 28.3885 83.012C29.8716 81.5289 31.8823 80.6947 33.9797 80.6922C36.0767 80.6951 38.0871 81.5295 39.5698 83.0126C41.0525 84.4956 41.8866 86.5061 41.889 88.6031C41.8861 90.7 41.0519 92.7101 39.5692 94.1927C38.0866 95.6754 36.0765 96.5096 33.9797 96.5125ZM33.9797 82.2547C32.2965 82.2564 30.6827 82.9257 29.4925 84.1159C28.3023 85.3061 27.6329 86.9199 27.6312 88.6031C27.6333 90.2861 28.3029 91.8995 29.493 93.0893C30.6832 94.2792 32.2967 94.9484 33.9797 94.95C35.6623 94.948 37.2755 94.2786 38.4653 93.0888C39.6551 91.8989 40.3245 90.2858 40.3265 88.6031C40.3249 86.9202 39.6557 85.3067 38.4658 84.1165C37.276 82.9263 35.6626 82.2568 33.9797 82.2547ZM48.2922 28.75C47.0015 28.75 45.8093 28.5 44.6422 28.2563C44.039 28.1297 43.4234 28.0016 42.7828 27.9031C42.6784 27.8912 42.5776 27.8584 42.4862 27.8066C42.3949 27.7548 42.3149 27.6851 42.2511 27.6017C42.1873 27.5183 42.1409 27.4229 42.1148 27.3212C42.0887 27.2195 42.0834 27.1135 42.0991 27.0097C42.1149 26.9059 42.1514 26.8063 42.2065 26.7169C42.2617 26.6275 42.3342 26.5501 42.4199 26.4894C42.5056 26.4287 42.6027 26.3859 42.7053 26.3636C42.8079 26.3412 42.914 26.3398 43.0172 26.3594C43.689 26.461 44.3297 26.5938 44.9625 26.7266C46.7547 27.1047 48.3015 27.4281 50.1656 26.9594C53.0562 26.2375 55.8062 26.9297 55.9218 26.9594C56.1228 27.0112 56.295 27.1407 56.4005 27.3195C56.506 27.4982 56.5361 27.7115 56.4843 27.9125C56.4325 28.1135 56.303 28.2857 56.1243 28.3912C55.9455 28.4967 55.7322 28.5268 55.5312 28.475C55.5078 28.4672 53.0453 27.85 50.5437 28.475C49.8073 28.6585 49.0511 28.7519 48.2922 28.75ZM49.5422 34.0985C49.4987 34.0986 49.4553 34.0949 49.4125 34.0875C49.3625 34.0797 48.1687 33.8781 45.9359 33.2203C43.6062 32.5344 40.8422 30.8516 40.3093 30.3953C40.2314 30.3285 40.1673 30.2471 40.1208 30.1555C40.0744 30.064 40.0464 29.9642 40.0385 29.8618C40.0306 29.7594 40.0429 29.6565 40.0748 29.5589C40.1066 29.4613 40.1574 29.371 40.2242 29.293C40.291 29.215 40.3725 29.151 40.464 29.1045C40.5556 29.058 40.6554 29.03 40.7577 29.0221C40.8601 29.0142 40.963 29.0265 41.0606 29.0584C41.1582 29.0903 41.2486 29.141 41.3265 29.2078C41.6734 29.5078 44.2234 31.086 46.3765 31.7219C48.5062 32.3485 49.6578 32.5453 49.6703 32.5469C49.8632 32.5795 50.0369 32.6834 50.157 32.8379C50.2771 32.9925 50.3347 33.1865 50.3186 33.3815C50.3025 33.5765 50.2138 33.7584 50.07 33.8912C49.9262 34.024 49.7379 34.0979 49.5422 34.0985ZM42.4453 42.9531C42.3275 42.9532 42.2113 42.9266 42.1052 42.8754C41.9992 42.8242 41.9061 42.7496 41.8329 42.6574C41.7597 42.5651 41.7084 42.4575 41.6826 42.3426C41.6569 42.2277 41.6575 42.1084 41.6843 41.9938C41.8187 41.4094 42.1218 39.6531 41.9 38.5672C41.564 36.9344 41.1109 35.8141 40.3828 34.8203C40.2601 34.6531 40.2089 34.444 40.2404 34.2391C40.2719 34.0341 40.3835 33.85 40.5508 33.7274C40.718 33.6047 40.9271 33.5535 41.132 33.585C41.337 33.6165 41.5211 33.7281 41.6437 33.8953C42.5 35.0672 43.0515 36.411 43.4297 38.2547C43.7672 39.8969 43.2297 42.2485 43.2062 42.3485C43.166 42.5201 43.069 42.6731 42.9308 42.7826C42.7927 42.8921 42.6216 42.9532 42.4453 42.9531Z" fill="#231F20"/>
</svg>
