<svg width="100" height="100" viewBox="0 0 100 100" fill="none" xmlns="http://www.w3.org/2000/svg">
<path d="M41.9203 18.797C45.8579 18.797 49.05 15.6049 49.05 11.6673C49.05 7.72967 45.8579 4.5376 41.9203 4.5376C37.9827 4.5376 34.7906 7.72967 34.7906 11.6673C34.7906 15.6049 37.9827 18.797 41.9203 18.797Z" fill="#EFEFEF"/>
<path d="M41.7563 84.7516C54.1067 84.7516 64.1188 74.7396 64.1188 62.3891C64.1188 50.0386 54.1067 40.0266 41.7563 40.0266C29.4058 40.0266 19.3938 50.0386 19.3938 62.3891C19.3938 74.7396 29.4058 84.7516 41.7563 84.7516Z" fill="#001716"/>
<path d="M59.0781 73.7985C71.4286 73.7985 81.4406 63.7865 81.4406 51.436C81.4406 39.0855 71.4286 29.0735 59.0781 29.0735C46.7277 29.0735 36.7156 39.0855 36.7156 51.436C36.7156 63.7865 46.7277 73.7985 59.0781 73.7985Z" fill="#00BFB4"/>
<path d="M15.4391 46.5454L21.3969 45.747L37.0875 42.3298L41.0578 41.0923L42.2297 41.2235L42.2953 42.1345L39.1047 51.9657L38.5844 61.536L41.1234 73.1563L46.7875 81.2626L54.5015 86.6329L60.264 88.0985L71.8844 89.4657L78.8187 92.0048L86.5828 95.0313L88.5843 95.8126L89.3172 95.6657L88.4375 92.5407L84.6781 88.8798L82.3344 85.9501L79.2094 86.9267L70.225 83.1173L60.3609 81.1641L57.725 81.6532L54.8922 74.9141L53.7203 71.1063V67.1017L54.8922 62.2188L52.7765 59.1267L52.2969 55.9923L55.039 51.5751L58.8969 46.561L60.7515 45.422L66.514 44.836L70.225 42.6548L72.0484 40.7017L70.6812 36.3407L67.0344 27.3563L66.2703 19.5923L64.5609 18.4204L62.2172 19.1532L61.5656 21.1063L62.2172 23.1079L63.4547 27.4204L65.7328 33.2157L66.7578 35.8517L66.4156 38.0001L63.4375 38.3907L62.364 39.0751L59.5312 38.1954L57.6265 38.5376L58.5062 36.5845L60.85 35.5095L60.1656 28.5282L56.7484 27.3563L55.6734 26.086L51.8984 30.6438L51.9625 33.7032L50.3031 34.9735L43.7281 33.997L37.1187 37.122L33.0172 39.0751H28.7203L18.9234 43.2407L15.2766 43.697L11.4688 43.1767" fill="#EDB29F"/>
<path d="M41.6438 73.7094L39.6266 66.0282L38.65 62.2516L46.6578 60.8188L53.3016 59.6438L55.0563 63.8797L53.5578 68.111L54.6 73.9704L55.3813 75.8579L46.1359 79.7641L41.6438 73.7094Z" fill="#32313C"/>
<path d="M43.2719 61.2749L46.3969 61.7952L51.3453 77.4858L43.2719 61.2749Z" fill="#001716"/>
<path d="M59.9219 26.3797L58.4078 24.1812L56.8453 22.375L55.4781 24.475L55.6734 26.0859C55.6734 26.0859 57.0406 28.0391 57.4812 28.4297C57.9187 28.8203 58.3594 31.4578 58.8484 32.8734C59.3359 34.2891 60.2641 35.3641 60.2641 35.3641L62.0703 34.875L59.9219 26.3797Z" fill="#3D4760"/>
<path d="M41.4484 43.4031C41.4484 43.4031 41.3516 44.6078 42.6203 45.5516C43.8906 46.4969 46.4297 48.0906 48.4156 47.5047C50.4 46.9188 52.0281 45.0313 52.3219 44.25C52.6141 43.4688 53.525 40.2141 53.2656 39.4C53.0047 38.5875 52.9719 37.0563 52.125 36.3406C51.2797 35.6234 50.6937 35.3641 50.6937 35.3641L51.6375 35.0703C51.6375 35.0703 52.1578 35.0047 52.9719 35.5906C53.7859 36.1766 54.3719 37.2188 55.6094 37.8375C56.8453 38.4563 56.8453 38.6344 57.6266 38.5375C58.4078 38.4391 58.8969 38.3906 58.8969 38.3906L59.4172 38.4891C59.4172 38.4891 59.6125 38.9438 59.6125 39.725C59.6125 40.5063 59.6781 41.6469 58.8312 42.9484C57.9859 44.25 56.4234 46.4641 56.4234 46.9516C56.4234 47.4406 56.7812 48.9703 56.7812 48.9703L52.2969 55.9922L53.3016 59.6438C53.3016 59.6438 52.7937 60.2172 51.3281 60.1687C49.8641 60.1187 48.4969 62.1219 45.9578 62.4625C43.4187 62.8063 42.2953 62.1219 41.4156 62.1219C40.5375 62.1219 38.8766 62.7563 38.8766 62.7563L38.6328 54.7969L40.4891 45.9594L41.4484 43.4031Z" fill="#00BFB4"/>
<path d="M59.3844 25.0125C59.3844 25.0125 59.3531 26.6391 59.5156 29.4063C59.6781 32.1719 61.3062 34.7454 61.3062 34.7454C61.3062 34.7454 63.5516 34.1922 63.5844 34.0282C63.6156 33.8657 64.3969 30.3172 64.3969 30.3172L64.0406 27.7141L61.5328 25.3704L59.6125 25.011L59.3844 25.0125Z" fill="#546187"/>
<path d="M20.0547 46.661C19.9172 46.6594 19.7826 46.6214 19.6646 46.5508C19.5466 46.4803 19.4493 46.3798 19.3828 46.2594C19.2831 46.0754 19.2594 45.8596 19.317 45.6583C19.3745 45.4571 19.5087 45.2864 19.6906 45.1829C20.1547 44.9188 21.7016 44.6876 26.425 44.0829C28.4922 43.8173 30.4438 43.5673 31.4094 43.386C32.7656 43.1282 33.4141 42.8626 34.4875 42.4219C35.2297 42.1173 36.1375 41.7454 37.5516 41.2657C41.0156 40.0876 44.7922 39.3766 44.95 39.3485C45.1494 39.3199 45.3521 39.3694 45.5159 39.4867C45.6796 39.604 45.7918 39.78 45.8289 39.9779C45.866 40.1759 45.8252 40.3806 45.715 40.5492C45.6048 40.7178 45.4337 40.8374 45.2375 40.8829C45.2 40.8907 41.4094 41.6048 38.0547 42.7454C36.6812 43.211 35.8 43.5719 35.0812 43.8673C33.9969 44.3126 33.2125 44.6329 31.6984 44.9204C30.6875 45.111 28.7141 45.3641 26.6234 45.6313C24.2156 45.9423 20.9172 46.3657 20.4281 46.5594C20.3142 46.6255 20.1849 46.6605 20.0531 46.661H20.0547Z" fill="#231F20"/>
<path d="M16.4953 47.3499C16.1703 47.3499 15.8625 47.3218 15.5922 47.2562C14.1703 46.8968 10.7094 43.7874 10.0297 43.1671C9.89908 43.0483 9.81257 42.8888 9.78425 42.7145C9.75593 42.5403 9.78747 42.3615 9.87374 42.2075C9.96 42.0534 10.0959 41.9332 10.2593 41.8662C10.4227 41.7993 10.6039 41.7897 10.7734 41.839C11.7547 42.1218 14.4859 42.8671 15.3234 42.9171C16.4844 42.9796 18.2141 42.6156 20.9594 41.7156C22.2266 41.3031 23.4234 40.6749 24.5813 40.0703C26.2844 39.1796 27.8906 38.3359 29.5156 38.2937L29.8688 38.2843C32.1297 38.2265 33.7641 38.1859 35.7297 37.3187C36.6906 36.8937 37.6438 36.2249 38.5641 35.5781C39.7063 34.7734 40.7844 34.0156 41.8859 33.7015C43.8078 33.1515 46.2156 33.5734 48.7656 34.0203L49.0703 34.0734C50.8203 34.3765 51.1844 34.0437 51.1875 34.039C51.2074 33.9804 51.232 33.9234 51.2609 33.8687C51.4031 33.5749 51.5031 33.3015 51.2609 32.9046C50.6406 31.8796 50.9391 30.764 51.2141 30.2656L54.7844 25.9374C54.6 25.3515 54.4109 24.3796 54.8578 23.6343C55.3359 22.8374 56.2406 21.8781 56.2797 21.8374C56.4297 21.6812 56.6516 21.5421 56.8594 21.5937C56.9682 21.5956 57.0754 21.6202 57.1742 21.6659C57.2729 21.7117 57.361 21.7776 57.4328 21.8593L59.7266 24.4578C60.5375 24.3499 62.1625 24.3749 63.3594 25.8359C64.8516 27.6593 65.4156 29.3156 65.1359 31.0453C64.9078 32.4671 64.1188 34.7671 63.0797 35.4359C62.7563 35.6437 62.2359 35.8124 61.4156 36.0703C60.7672 36.2749 59.4172 36.6999 59.1813 36.9765L59.1219 37.1015C59.0391 37.2656 58.9188 37.4968 58.8453 37.6828C58.9219 37.6671 59.0109 37.6406 59.1219 37.6093C59.6375 37.4578 60.4156 37.2249 61.4438 37.7406L62.3344 38.1859C62.9531 37.8421 64.2031 37.2437 65.3906 37.2437C66.9219 37.2437 67.3875 37.4124 68.1359 37.7343C68.5828 37.9265 69.1891 38.4281 69.3641 38.5781C69.5144 38.7144 69.6058 38.9039 69.6189 39.1065C69.6319 39.3091 69.5657 39.5087 69.4341 39.6633C69.3025 39.8178 69.1159 39.9151 68.9139 39.9345C68.7118 39.9538 68.5101 39.8938 68.3516 39.7671C68.0484 39.5078 67.6719 39.2359 67.5484 39.1828C66.9391 38.9203 66.6734 38.8078 65.3922 38.8078C64.4172 38.8078 63.1844 39.4734 62.7906 39.7296C62.6763 39.8041 62.5444 39.8473 62.4082 39.855C62.2719 39.8627 62.1361 39.8345 62.0141 39.7734L60.7453 39.139C60.2641 38.8984 59.9844 38.9828 59.5625 39.1078C59.1875 39.2171 58.7172 39.3531 58.175 39.1859C57.6516 39.0218 57.4172 38.6937 57.3141 38.4468C57.0297 37.7734 57.3828 37.0718 57.7266 36.3953L57.8078 36.2359C58.175 35.5015 59.2891 35.1031 60.9469 34.5812C61.4203 34.4312 62.0719 34.2249 62.2344 34.1203C62.5969 33.8859 63.3516 32.3046 63.5953 30.7953C63.7969 29.539 63.3391 28.2781 62.15 26.8265C61.1719 25.6296 59.6688 26.0515 59.6547 26.0546C59.5123 26.0977 59.3605 26.0988 59.2175 26.0578C59.0745 26.0168 58.9464 25.9354 58.8484 25.8234L56.8469 23.5578C56.6106 23.8356 56.394 24.1296 56.1984 24.4374C56.0688 24.6531 56.1922 25.3203 56.3891 25.7703C56.4477 25.9034 56.4681 26.0502 56.448 26.1943C56.4278 26.3384 56.3679 26.474 56.275 26.5859L52.5625 31.0671C52.4969 31.2234 52.3438 31.6765 52.5984 32.0937C53.3016 33.2515 52.8219 34.2343 52.6641 34.5562C52.2484 35.6453 50.9609 35.9937 48.8016 35.6109L48.4953 35.5578C46.1266 35.1421 43.8938 34.7515 42.3156 35.2015C41.4688 35.4453 40.4938 36.1296 39.4625 36.8578C38.4781 37.5453 37.4625 38.2609 36.3609 38.7468C34.1109 39.739 32.2563 39.7859 29.9078 39.8468L29.5563 39.8562C28.2938 39.8874 26.8438 40.6484 25.3063 41.4531C24.0922 42.0906 22.8375 42.7484 21.4438 43.2031C18.4594 44.1765 16.5969 44.5609 15.2312 44.4765C14.8672 44.4546 14.2875 44.3468 13.6531 44.2031C14.6906 45.0249 15.5844 45.6421 15.9719 45.739C16.7688 45.9406 18.5547 45.5312 19.4984 45.2296C19.6961 45.1664 19.9108 45.1844 20.0952 45.2794C20.2797 45.3745 20.4188 45.539 20.482 45.7367C20.5452 45.9343 20.5273 46.149 20.4322 46.3335C20.3371 46.5179 20.1727 46.6571 19.975 46.7203C19.7359 46.7953 17.9469 47.3499 16.4953 47.3499Z" fill="#231F20"/>
<path d="M67.3937 38.8796C67.2332 38.8796 67.0765 38.83 66.9451 38.7378C66.8137 38.6455 66.714 38.515 66.6594 38.364L63.6437 30.0593C63.6087 29.963 63.5931 29.8607 63.5976 29.7583C63.6022 29.6559 63.6268 29.5554 63.6702 29.4626C63.7136 29.3697 63.7749 29.2863 63.8505 29.2171C63.9261 29.1479 64.0146 29.0943 64.1109 29.0593C64.2073 29.0243 64.3095 29.0087 64.4119 29.0132C64.5143 29.0178 64.6148 29.0424 64.7077 29.0858C64.8005 29.1292 64.8839 29.1904 64.9531 29.2661C65.0223 29.3417 65.0759 29.4302 65.1109 29.5265L68.1266 37.8312C68.1699 37.9492 68.184 38.076 68.1678 38.2007C68.1516 38.3254 68.1054 38.4443 68.0333 38.5473C67.9611 38.6503 67.8651 38.7343 67.7535 38.7921C67.6419 38.85 67.5195 38.88 67.3937 38.8796Z" fill="#231F20"/>
<path d="M88.8235 96.5842C87.7141 96.5842 86.3797 95.8186 86.186 95.7046C85.3 95.1811 76.061 91.4592 71.0156 90.2233C67.7609 89.4264 63.5828 89.3014 60.8188 89.2186C59.1547 89.1686 58.3344 89.1389 57.9094 89.0233C56.8031 88.7202 55.25 88.0921 55.1844 88.0655C44.1844 82.6764 37.9016 71.3671 37.9016 57.0124C37.9016 51.103 39.4172 45.2718 42.2828 40.1452C42.3329 40.0556 42.4001 39.9768 42.4806 39.9132C42.5612 39.8496 42.6534 39.8025 42.7522 39.7746C42.8509 39.7467 42.9542 39.7384 43.0561 39.7504C43.158 39.7624 43.2565 39.7943 43.3461 39.8444C43.4357 39.8945 43.5145 39.9617 43.5781 40.0422C43.6417 40.1228 43.6888 40.215 43.7167 40.3138C43.7446 40.4125 43.7528 40.5158 43.7409 40.6177C43.7289 40.7196 43.6969 40.8181 43.6469 40.9077C40.9023 45.8315 39.4624 51.3753 39.4641 57.0124C39.4641 70.7467 45.4266 81.5467 55.8234 86.6389C55.8266 86.6389 57.3188 87.2421 58.3219 87.5155C58.5875 87.5874 59.7453 87.6217 60.8656 87.6561C63.6953 87.7421 67.9734 87.8702 71.3875 88.7077C76.45 89.9483 85.861 93.6983 86.9797 94.3592C87.625 94.7405 88.2297 94.9374 88.5953 94.9999C88.4656 94.5561 88.1516 93.8374 87.9063 93.2749L87.7203 92.853C87.4109 92.1389 86.5656 91.4811 85.7469 90.8467C85.1625 90.3936 84.5563 89.9233 84.0922 89.3952C83.6469 88.8722 83.2371 88.3199 82.8656 87.7421C82.5906 87.3296 82.2125 86.7671 82.0438 86.6749C81.8953 86.6749 81.2328 86.9671 80.8375 87.1436C80.3563 87.3546 79.8563 87.5749 79.3906 87.6858C78.1453 87.9889 77.9422 87.9046 75.45 86.8343L75.2875 86.7655C73.3969 85.9546 71.8391 85.1499 70.0375 84.2186C69.2078 83.7905 68.325 83.3343 67.3375 82.8405C65.4516 81.8968 62.1891 82.1905 60.0313 82.3842C58.4688 82.5249 57.8172 82.5749 57.375 82.353C56.6344 81.9811 56.1813 80.7561 55.3063 78.2436C54.9422 77.1936 54.5656 76.1077 54.1781 75.228C53.0797 72.7311 52.3406 68.6343 52.3094 68.4624C52.286 68.3315 52.2963 68.1967 52.3395 68.071C52.3827 67.9452 52.4573 67.8325 52.5563 67.7436C53.0798 67.2701 53.5017 66.6951 53.7963 66.0536C54.091 65.4121 54.2523 64.7174 54.2704 64.0117C54.2885 63.306 54.1631 62.604 53.9017 61.9482C53.6404 61.2924 53.2486 60.6965 52.75 60.1968L52.6094 60.0655C52.3125 59.7889 51.8094 59.3296 51.5516 58.4967C51.4141 58.054 51.344 57.5931 51.3438 57.1296C51.3438 56.8952 51.3703 56.4061 51.5469 55.7811C51.7703 54.9811 52.1656 54.2217 52.7188 53.528C53.0781 52.9811 53.6672 52.1217 54.4109 51.1108C54.8828 50.4702 55.3094 49.8717 55.7031 49.3233C57.6406 46.6139 58.8125 44.9796 60.6141 44.653C60.8828 44.6061 61.6422 44.5343 62.9641 44.4124C64.2156 44.2983 65.6531 44.1671 66.4078 44.0624C67.1328 43.9624 68.0141 43.2936 68.9484 42.5858C69.4953 42.1718 70.0578 41.7436 70.6516 41.3858C71.3797 40.9421 71.3078 40.3514 71.1359 39.6249C71.0953 39.4483 71.0594 39.3014 71.0531 39.1514C70.7844 38.2874 68.2625 32.4968 66.8938 29.3499C66.2344 27.8343 65.7141 26.6389 65.5484 26.2405C64.9484 24.7889 65.2844 21.9733 65.3813 21.2686C65.275 20.7499 64.9047 19.9093 64.5609 19.9327C63.7473 19.9787 62.9402 20.1053 62.1516 20.3108C62.7844 20.6983 63.4984 21.1858 63.3813 21.9983C63.2875 22.6514 63.0313 25.6343 63.0281 25.6655C63.0079 25.8709 62.9082 26.0602 62.7502 26.1931C62.5923 26.3259 62.3886 26.3917 62.1828 26.3764C61.9768 26.3586 61.7862 26.2597 61.6529 26.1015C61.5197 25.9434 61.4546 25.7388 61.4719 25.5327C61.4813 25.4155 61.6984 22.8921 61.8094 21.9655C61.6719 21.8468 61.3922 21.678 61.2141 21.5702C60.6516 21.228 59.7125 20.6593 60.1516 19.7796C60.6969 18.6905 63.5891 18.428 64.4641 18.3733C66.0719 18.2811 66.7781 20.0608 66.9453 21.1343C66.9574 21.2114 66.9574 21.2899 66.9453 21.3671C66.7688 22.5514 66.625 24.7577 66.9922 25.6405C67.1563 26.0389 67.6719 27.2233 68.3266 28.7264C72.6766 38.7202 72.6594 38.8389 72.611 39.1843C72.6188 39.128 72.6359 39.1796 72.6578 39.2655C72.8109 39.9186 73.2203 41.6561 71.4594 42.7218C70.925 43.0452 70.4031 43.4436 69.8906 43.8311C68.7906 44.6655 67.75 45.4546 66.6219 45.6108C65.8516 45.7171 64.3844 45.8514 63.1063 45.9702C62.0531 46.0639 61.1328 46.1467 60.8938 46.1921C59.7141 46.4046 58.6828 47.8452 56.975 50.2327C56.5781 50.7874 56.1469 51.3889 55.6688 52.0374C55.0876 52.8281 54.5244 53.632 53.9797 54.4483C53.5172 55.0327 53.2172 55.6046 53.05 56.203C52.9611 56.5041 52.9127 56.8157 52.9063 57.1296C52.9063 57.4358 52.9531 57.7389 53.0438 58.0327C53.1781 58.4639 53.4266 58.6936 53.6688 58.9139L53.8563 59.0952C54.4861 59.7222 54.9854 60.4679 55.3253 61.2891C55.6651 62.1103 55.8386 62.9908 55.8359 63.8796C55.8352 65.6391 55.1505 67.3295 53.9266 68.5936C54.1375 69.6827 54.775 72.7092 55.6094 74.5999C56.0188 75.5358 56.4078 76.6514 56.7813 77.7296C57.1938 78.9124 57.8156 80.6983 58.1328 80.9905C58.2281 80.9764 59.15 80.8952 59.8906 80.828C62.2281 80.6202 65.7563 80.303 68.0359 81.4421C69.0328 81.9405 69.9188 82.3999 70.7547 82.8311C72.5313 83.7483 74.0641 84.5421 75.9047 85.3296L76.0641 85.3983C78.2766 86.3452 78.2766 86.3421 78.8969 86.1983C79.3563 86.0889 79.7875 85.8983 80.2078 85.7139C81.0906 85.3233 81.9266 84.9546 82.6141 85.2202C83.2125 85.4499 83.6313 86.0764 84.1641 86.8702C84.4813 87.3467 84.8438 87.8858 85.2641 88.3639C85.6328 88.7811 86.1531 89.1842 86.7047 89.6124C87.6781 90.3671 88.6875 91.1483 89.1547 92.2311L89.3375 92.6483C90.1078 94.4077 90.6156 95.5702 89.8313 96.2546C89.5594 96.4921 89.2047 96.5842 88.8235 96.5842Z" fill="#231F20"/>
<path d="M53.0378 50.936C53.7306 49.9064 53.721 48.6875 53.0165 48.2135C52.312 47.7394 51.1793 48.1898 50.4866 49.2193C49.7938 50.2489 49.8034 51.4678 50.5079 51.9418C51.2124 52.4158 52.3451 51.9655 53.0378 50.936Z" fill="#001716"/>
<path d="M80.5297 30.9327C80.4112 30.9329 80.2947 30.9028 80.1911 30.8454C80.0874 30.788 80.0002 30.7051 79.9375 30.6046C77.5039 26.7288 74.114 23.5444 70.0937 21.3577C69.9314 21.2685 69.8108 21.1189 69.7581 20.9413C69.7054 20.7637 69.725 20.5725 69.8125 20.4093C69.902 20.2472 70.0516 20.1269 70.2291 20.0742C70.4065 20.0216 70.5976 20.0409 70.7609 20.128C74.9914 22.4312 78.5587 25.7833 81.1203 29.8624C81.1873 29.9679 81.2247 30.0895 81.2285 30.2145C81.2323 30.3394 81.2025 30.4631 81.1421 30.5725C81.0817 30.682 80.993 30.7732 80.8852 30.8365C80.7775 30.8999 80.6547 30.9331 80.5297 30.9327ZM79.7703 36.7593C79.6313 36.7594 79.4954 36.718 79.3802 36.6403C79.2649 36.5626 79.1755 36.4522 79.1234 36.3233C78.0032 33.582 76.1963 31.1751 73.8766 29.3343C73.8045 29.2771 73.7445 29.2064 73.6998 29.126C73.6551 29.0456 73.6267 28.9573 73.6162 28.8659C73.6057 28.7746 73.6133 28.6821 73.6385 28.5937C73.6637 28.5053 73.7061 28.4227 73.7633 28.3507C73.8204 28.2787 73.8912 28.2186 73.9716 28.1739C74.0519 28.1293 74.1403 28.1008 74.2316 28.0903C74.3229 28.0798 74.4155 28.0874 74.5039 28.1126C74.5923 28.1379 74.6748 28.1803 74.7469 28.2374C77.2537 30.2289 79.2063 32.8315 80.4172 35.7952C80.4608 35.9014 80.4777 36.0167 80.4661 36.1309C80.4546 36.2451 80.4152 36.3547 80.3512 36.45C80.2872 36.5453 80.2008 36.6234 80.0995 36.6773C79.9981 36.7313 79.8851 36.7594 79.7703 36.7593Z" fill="#231F20"/>
<path d="M43.0172 4.60156L42.9328 5.67656L40.9672 6.80156L43.0641 7.68438L43.5328 9.90625L45.0078 8.1875L47.2625 8.43438L46.0781 6.49375L46.3313 5.92656C45.3572 5.21131 44.2158 4.75537 43.0172 4.60156ZM39.6844 6.26563L37.4813 6.78125L37.1922 6.51875C36.3685 7.30987 35.7469 8.28729 35.3797 9.36875L35.7453 9.52188L36.2141 11.7438L37.6922 10.0281L39.8625 10.2656L40.4609 12.2406L39.1719 13.8672L41.2328 13.8953L42.3672 15.6188L43.0453 13.6563L45.0313 13.0938L43.3906 11.8562L43.4844 9.7875L41.7938 10.9797L39.875 10.2656L39.9469 10.275L38.7641 8.33438L39.6844 6.26563ZM47.8672 10.7703L47.0578 12.6703L45.0281 13.0984L46.5938 14.4375L46.3656 16.4891L48.1391 15.4141L48.1656 15.4266C48.7038 14.5611 49.0501 13.5903 49.1813 12.5797L48.8891 12.5547L47.8672 10.7703ZM35.2594 12.9219L35.2203 13.4344C35.4571 14.3578 35.8767 15.2244 36.4543 15.9828C37.0318 16.7413 37.7556 17.3762 38.5828 17.85L39.4109 17.9406L38.2266 16L39.1484 13.9313L36.9453 14.4469L35.2594 12.9219ZM42.3922 15.5828L42.2125 17.8438L40.7781 18.6641C41.2204 18.7501 41.6698 18.7941 42.1203 18.7953C43.395 18.7928 44.6457 18.4485 45.7422 17.7984L46.2797 16.5891L44.0766 17.1078L42.3922 15.5828Z" fill="#00BFB4"/>
<path d="M42.1188 18.797C46.0564 18.797 49.2484 15.6049 49.2484 11.6673C49.2484 7.72967 46.0564 4.5376 42.1188 4.5376C38.1811 4.5376 34.9891 7.72967 34.9891 11.6673C34.9891 15.6049 38.1811 18.797 42.1188 18.797Z" stroke="black"/>
</svg>
